<?xml version="1.0" encoding="UTF-8" standalone="no"?>
<!DOCTYPE svg PUBLIC "-//W3C//DTD SVG 1.1//EN"
 "http://www.w3.org/Graphics/SVG/1.1/DTD/svg11.dtd">
<!-- Generated by graphviz version 2.40.1 (20161225.0304)
 -->
<!-- Title: dependencies Pages: 1 -->
<svg width="725pt" height="211pt"
 viewBox="0.00 0.00 725.00 211.00" xmlns="http://www.w3.org/2000/svg" xmlns:xlink="http://www.w3.org/1999/xlink">
<g id="graph0" class="graph" transform="scale(1 1) rotate(0) translate(4 207)">
<title>dependencies</title>
<polygon fill="#ffffff" stroke="transparent" points="-4,4 -4,-207 721,-207 721,4 -4,4"/>
<text text-anchor="start" x="337.5091" y="-42.4" font-family="sans-serif" font-weight="bold" font-size="14.00" fill="#000000">Legend</text>
<polygon fill="#ffffb3" stroke="transparent" points="124.5,-10 124.5,-30 144.5,-30 144.5,-10 124.5,-10"/>
<text text-anchor="start" x="148.129" y="-15.4" font-family="sans-serif" font-size="14.00" fill="#000000"> &#160;Declarations</text>
<polygon fill="#8dd3c7" stroke="transparent" points="237.5,-10 237.5,-30 257.5,-30 257.5,-10 237.5,-10"/>
<text text-anchor="start" x="261.2251" y="-15.4" font-family="sans-serif" font-size="14.00" fill="#000000"> &#160;Module</text>
<polygon fill="#80b1d3" stroke="transparent" points="323.5,-10 323.5,-30 343.5,-30 343.5,-10 323.5,-10"/>
<text text-anchor="start" x="347.2812" y="-15.4" font-family="sans-serif" font-size="14.00" fill="#000000"> &#160;Bootstrap</text>
<polygon fill="#fdb462" stroke="transparent" points="420.5,-10 420.5,-30 440.5,-30 440.5,-10 420.5,-10"/>
<text text-anchor="start" x="444.1732" y="-15.4" font-family="sans-serif" font-size="14.00" fill="#000000"> &#160;Providers</text>
<polygon fill="#fb8072" stroke="transparent" points="516.5,-10 516.5,-30 536.5,-30 536.5,-10 516.5,-10"/>
<text text-anchor="start" x="540.2258" y="-15.4" font-family="sans-serif" font-size="14.00" fill="#000000"> &#160;Exports</text>
<g id="clust1" class="cluster">
<title>cluster_CoreModule</title>
<polygon fill="none" stroke="#000000" stroke-dasharray="1,5" points="8,-70 8,-195 709,-195 709,-70 8,-70"/>
</g>
<g id="clust3" class="cluster">
<title>cluster_CoreModule_imports</title>
<polygon fill="none" stroke="#000000" points="459,-78 459,-130 701,-130 701,-78 459,-78"/>
</g>
<g id="clust6" class="cluster">
<title>cluster_CoreModule_providers</title>
<polygon fill="none" stroke="#000000" points="16,-78 16,-130 451,-130 451,-78 16,-78"/>
</g>
<!-- ProtectedModule -->
<g id="node1" class="node">
<title>ProtectedModule</title>
<polygon fill="#8dd3c7" stroke="#000000" points="693.4188,-122 690.4188,-126 669.4188,-126 666.4188,-122 580.5812,-122 580.5812,-86 693.4188,-86 693.4188,-122"/>
<text text-anchor="middle" x="637" y="-99.8" font-family="Times,serif" font-size="14.00" fill="#000000">ProtectedModule</text>
</g>
<!-- CoreModule -->
<g id="node3" class="node">
<title>CoreModule</title>
<polygon fill="#8dd3c7" stroke="#000000" points="427.2619,-187 424.2619,-191 403.2619,-191 400.2619,-187 340.7381,-187 340.7381,-151 427.2619,-151 427.2619,-187"/>
<text text-anchor="middle" x="384" y="-164.8" font-family="Times,serif" font-size="14.00" fill="#000000">CoreModule</text>
</g>
<!-- ProtectedModule&#45;&gt;CoreModule -->
<g id="edge1" class="edge">
<title>ProtectedModule&#45;&gt;CoreModule</title>
<path fill="none" stroke="#000000" d="M637,-122.2843C637,-143.3211 637,-175 637,-175 637,-175 437.4923,-175 437.4923,-175"/>
<polygon fill="#000000" stroke="#000000" points="437.4923,-171.5001 427.4923,-175 437.4922,-178.5001 437.4923,-171.5001"/>
</g>
<!-- PublicModule -->
<g id="node2" class="node">
<title>PublicModule</title>
<polygon fill="#8dd3c7" stroke="#000000" points="562.8288,-122 559.8288,-126 538.8288,-126 535.8288,-122 467.1712,-122 467.1712,-86 562.8288,-86 562.8288,-122"/>
<text text-anchor="middle" x="515" y="-99.8" font-family="Times,serif" font-size="14.00" fill="#000000">PublicModule</text>
</g>
<!-- PublicModule&#45;&gt;CoreModule -->
<g id="edge2" class="edge">
<title>PublicModule&#45;&gt;CoreModule</title>
<path fill="none" stroke="#000000" d="M515,-122.0225C515,-139.3734 515,-163 515,-163 515,-163 437.6211,-163 437.6211,-163"/>
<polygon fill="#000000" stroke="#000000" points="437.6211,-159.5001 427.6211,-163 437.6211,-166.5001 437.6211,-159.5001"/>
</g>
<!-- AuthService -->
<g id="node4" class="node">
<title>AuthService</title>
<ellipse fill="#fdb462" stroke="#000000" cx="384" cy="-104" rx="59.1083" ry="18"/>
<text text-anchor="middle" x="384" y="-99.8" font-family="Times,serif" font-size="14.00" fill="#000000">AuthService</text>
</g>
<!-- AuthService&#45;&gt;CoreModule -->
<g id="edge3" class="edge">
<title>AuthService&#45;&gt;CoreModule</title>
<path fill="none" stroke="#000000" d="M384,-122.1061C384,-122.1061 384,-140.991 384,-140.991"/>
<polygon fill="#000000" stroke="#000000" points="380.5001,-140.9909 384,-150.991 387.5001,-140.991 380.5001,-140.9909"/>
</g>
<!-- DeviceService -->
<g id="node5" class="node">
<title>DeviceService</title>
<ellipse fill="#fdb462" stroke="#000000" cx="239" cy="-104" rx="67.1715" ry="18"/>
<text text-anchor="middle" x="239" y="-99.8" font-family="Times,serif" font-size="14.00" fill="#000000">DeviceService</text>
</g>
<!-- DeviceService&#45;&gt;CoreModule -->
<g id="edge4" class="edge">
<title>DeviceService&#45;&gt;CoreModule</title>
<path fill="none" stroke="#000000" d="M239,-122.0225C239,-139.3734 239,-163 239,-163 239,-163 330.4952,-163 330.4952,-163"/>
<polygon fill="#000000" stroke="#000000" points="330.4953,-166.5001 340.4952,-163 330.4952,-159.5001 330.4953,-166.5001"/>
</g>
<!-- MeteoService -->
<g id="node6" class="node">
<title>MeteoService</title>
<ellipse fill="#fdb462" stroke="#000000" cx="89" cy="-104" rx="64.8234" ry="18"/>
<text text-anchor="middle" x="89" y="-99.8" font-family="Times,serif" font-size="14.00" fill="#000000">MeteoService</text>
</g>
<!-- MeteoService&#45;&gt;CoreModule -->
<g id="edge5" class="edge">
<title>MeteoService&#45;&gt;CoreModule</title>
<path fill="none" stroke="#000000" d="M89,-122.2843C89,-143.3211 89,-175 89,-175 89,-175 330.4717,-175 330.4717,-175"/>
<polygon fill="#000000" stroke="#000000" points="330.4718,-178.5001 340.4717,-175 330.4717,-171.5001 330.4718,-178.5001"/>
</g>
</g>
</svg>
