<?xml version="1.0" encoding="UTF-8" standalone="no"?>
<!DOCTYPE svg PUBLIC "-//W3C//DTD SVG 1.1//EN"
 "http://www.w3.org/Graphics/SVG/1.1/DTD/svg11.dtd">
<!-- Generated by graphviz version 2.40.1 (20161225.0304)
 -->
<!-- Title: dependencies Pages: 1 -->
<svg width="853pt" height="211pt"
 viewBox="0.00 0.00 853.00 211.00" xmlns="http://www.w3.org/2000/svg" xmlns:xlink="http://www.w3.org/1999/xlink">
<g id="graph0" class="graph" transform="scale(1 1) rotate(0) translate(4 207)">
<title>dependencies</title>
<polygon fill="#ffffff" stroke="transparent" points="-4,4 -4,-207 849,-207 849,4 -4,4"/>
<text text-anchor="start" x="401.5091" y="-42.4" font-family="sans-serif" font-weight="bold" font-size="14.00" fill="#000000">Legend</text>
<polygon fill="#ffffb3" stroke="transparent" points="188.5,-10 188.5,-30 208.5,-30 208.5,-10 188.5,-10"/>
<text text-anchor="start" x="212.129" y="-15.4" font-family="sans-serif" font-size="14.00" fill="#000000"> &#160;Declarations</text>
<polygon fill="#8dd3c7" stroke="transparent" points="301.5,-10 301.5,-30 321.5,-30 321.5,-10 301.5,-10"/>
<text text-anchor="start" x="325.2251" y="-15.4" font-family="sans-serif" font-size="14.00" fill="#000000"> &#160;Module</text>
<polygon fill="#80b1d3" stroke="transparent" points="387.5,-10 387.5,-30 407.5,-30 407.5,-10 387.5,-10"/>
<text text-anchor="start" x="411.2812" y="-15.4" font-family="sans-serif" font-size="14.00" fill="#000000"> &#160;Bootstrap</text>
<polygon fill="#fdb462" stroke="transparent" points="484.5,-10 484.5,-30 504.5,-30 504.5,-10 484.5,-10"/>
<text text-anchor="start" x="508.1732" y="-15.4" font-family="sans-serif" font-size="14.00" fill="#000000"> &#160;Providers</text>
<polygon fill="#fb8072" stroke="transparent" points="580.5,-10 580.5,-30 600.5,-30 600.5,-10 580.5,-10"/>
<text text-anchor="start" x="604.2258" y="-15.4" font-family="sans-serif" font-size="14.00" fill="#000000"> &#160;Exports</text>
<g id="clust1" class="cluster">
<title>cluster_CoreModule</title>
<polygon fill="none" stroke="#000000" stroke-dasharray="1,5" points="8,-70 8,-195 837,-195 837,-70 8,-70"/>
</g>
<g id="clust3" class="cluster">
<title>cluster_CoreModule_imports</title>
<polygon fill="none" stroke="#000000" points="587,-78 587,-130 829,-130 829,-78 587,-78"/>
</g>
<g id="clust6" class="cluster">
<title>cluster_CoreModule_providers</title>
<polygon fill="none" stroke="#000000" points="16,-78 16,-130 579,-130 579,-78 16,-78"/>
</g>
<!-- ProtectedModule -->
<g id="node1" class="node">
<title>ProtectedModule</title>
<polygon fill="#8dd3c7" stroke="#000000" points="821.4188,-122 818.4188,-126 797.4188,-126 794.4188,-122 708.5812,-122 708.5812,-86 821.4188,-86 821.4188,-122"/>
<text text-anchor="middle" x="765" y="-99.8" font-family="Times,serif" font-size="14.00" fill="#000000">ProtectedModule</text>
</g>
<!-- CoreModule -->
<g id="node3" class="node">
<title>CoreModule</title>
<polygon fill="#8dd3c7" stroke="#000000" points="482.2619,-187 479.2619,-191 458.2619,-191 455.2619,-187 395.7381,-187 395.7381,-151 482.2619,-151 482.2619,-187"/>
<text text-anchor="middle" x="439" y="-164.8" font-family="Times,serif" font-size="14.00" fill="#000000">CoreModule</text>
</g>
<!-- ProtectedModule&#45;&gt;CoreModule -->
<g id="edge1" class="edge">
<title>ProtectedModule&#45;&gt;CoreModule</title>
<path fill="none" stroke="#000000" d="M765,-122.2843C765,-143.3211 765,-175 765,-175 765,-175 492.2903,-175 492.2903,-175"/>
<polygon fill="#000000" stroke="#000000" points="492.2903,-171.5001 482.2903,-175 492.2902,-178.5001 492.2903,-171.5001"/>
</g>
<!-- PublicModule -->
<g id="node2" class="node">
<title>PublicModule</title>
<polygon fill="#8dd3c7" stroke="#000000" points="690.8288,-122 687.8288,-126 666.8288,-126 663.8288,-122 595.1712,-122 595.1712,-86 690.8288,-86 690.8288,-122"/>
<text text-anchor="middle" x="643" y="-99.8" font-family="Times,serif" font-size="14.00" fill="#000000">PublicModule</text>
</g>
<!-- PublicModule&#45;&gt;CoreModule -->
<g id="edge2" class="edge">
<title>PublicModule&#45;&gt;CoreModule</title>
<path fill="none" stroke="#000000" d="M643,-122.0225C643,-139.3734 643,-163 643,-163 643,-163 492.2632,-163 492.2632,-163"/>
<polygon fill="#000000" stroke="#000000" points="492.2632,-159.5001 482.2632,-163 492.2631,-166.5001 492.2632,-159.5001"/>
</g>
<!-- AuthService -->
<g id="node4" class="node">
<title>AuthService</title>
<ellipse fill="#fdb462" stroke="#000000" cx="512" cy="-104" rx="59.1083" ry="18"/>
<text text-anchor="middle" x="512" y="-99.8" font-family="Times,serif" font-size="14.00" fill="#000000">AuthService</text>
</g>
<!-- AuthService&#45;&gt;CoreModule -->
<g id="edge3" class="edge">
<title>AuthService&#45;&gt;CoreModule</title>
<path fill="none" stroke="#000000" d="M467.5385,-115.922C467.5385,-115.922 467.5385,-140.7669 467.5385,-140.7669"/>
<polygon fill="#000000" stroke="#000000" points="464.0386,-140.7669 467.5385,-150.7669 471.0386,-140.7669 464.0386,-140.7669"/>
</g>
<!-- DeviceService -->
<g id="node5" class="node">
<title>DeviceService</title>
<ellipse fill="#fdb462" stroke="#000000" cx="367" cy="-104" rx="67.1715" ry="18"/>
<text text-anchor="middle" x="367" y="-99.8" font-family="Times,serif" font-size="14.00" fill="#000000">DeviceService</text>
</g>
<!-- DeviceService&#45;&gt;CoreModule -->
<g id="edge4" class="edge">
<title>DeviceService&#45;&gt;CoreModule</title>
<path fill="none" stroke="#000000" d="M414.9774,-116.8419C414.9774,-116.8419 414.9774,-140.5231 414.9774,-140.5231"/>
<polygon fill="#000000" stroke="#000000" points="411.4775,-140.523 414.9774,-150.5231 418.4775,-140.5231 411.4775,-140.523"/>
</g>
<!-- LedService -->
<g id="node6" class="node">
<title>LedService</title>
<ellipse fill="#fdb462" stroke="#000000" cx="227" cy="-104" rx="55.013" ry="18"/>
<text text-anchor="middle" x="227" y="-99.8" font-family="Times,serif" font-size="14.00" fill="#000000">LedService</text>
</g>
<!-- LedService&#45;&gt;CoreModule -->
<g id="edge5" class="edge">
<title>LedService&#45;&gt;CoreModule</title>
<path fill="none" stroke="#000000" d="M227,-122.0225C227,-139.3734 227,-163 227,-163 227,-163 385.5871,-163 385.5871,-163"/>
<polygon fill="#000000" stroke="#000000" points="385.5871,-166.5001 395.5871,-163 385.587,-159.5001 385.5871,-166.5001"/>
</g>
<!-- MeteoService -->
<g id="node7" class="node">
<title>MeteoService</title>
<ellipse fill="#fdb462" stroke="#000000" cx="89" cy="-104" rx="64.8234" ry="18"/>
<text text-anchor="middle" x="89" y="-99.8" font-family="Times,serif" font-size="14.00" fill="#000000">MeteoService</text>
</g>
<!-- MeteoService&#45;&gt;CoreModule -->
<g id="edge6" class="edge">
<title>MeteoService&#45;&gt;CoreModule</title>
<path fill="none" stroke="#000000" d="M89,-122.2843C89,-143.3211 89,-175 89,-175 89,-175 385.7321,-175 385.7321,-175"/>
<polygon fill="#000000" stroke="#000000" points="385.7321,-178.5001 395.7321,-175 385.7321,-171.5001 385.7321,-178.5001"/>
</g>
</g>
</svg>
