<?xml version="1.0" encoding="UTF-8" standalone="no"?>
<!DOCTYPE svg PUBLIC "-//W3C//DTD SVG 1.1//EN"
 "http://www.w3.org/Graphics/SVG/1.1/DTD/svg11.dtd">
<!-- Generated by graphviz version 2.40.1 (20161225.0304)
 -->
<!-- Title: dependencies Pages: 1 -->
<svg width="883pt" height="211pt"
 viewBox="0.00 0.00 883.00 211.00" xmlns="http://www.w3.org/2000/svg" xmlns:xlink="http://www.w3.org/1999/xlink">
<g id="graph0" class="graph" transform="scale(1 1) rotate(0) translate(4 207)">
<title>dependencies</title>
<polygon fill="#ffffff" stroke="transparent" points="-4,4 -4,-207 879,-207 879,4 -4,4"/>
<text text-anchor="start" x="416.5091" y="-42.4" font-family="sans-serif" font-weight="bold" font-size="14.00" fill="#000000">Legend</text>
<polygon fill="#ffffb3" stroke="transparent" points="203.5,-10 203.5,-30 223.5,-30 223.5,-10 203.5,-10"/>
<text text-anchor="start" x="227.129" y="-15.4" font-family="sans-serif" font-size="14.00" fill="#000000"> &#160;Declarations</text>
<polygon fill="#8dd3c7" stroke="transparent" points="316.5,-10 316.5,-30 336.5,-30 336.5,-10 316.5,-10"/>
<text text-anchor="start" x="340.2251" y="-15.4" font-family="sans-serif" font-size="14.00" fill="#000000"> &#160;Module</text>
<polygon fill="#80b1d3" stroke="transparent" points="402.5,-10 402.5,-30 422.5,-30 422.5,-10 402.5,-10"/>
<text text-anchor="start" x="426.2812" y="-15.4" font-family="sans-serif" font-size="14.00" fill="#000000"> &#160;Bootstrap</text>
<polygon fill="#fdb462" stroke="transparent" points="499.5,-10 499.5,-30 519.5,-30 519.5,-10 499.5,-10"/>
<text text-anchor="start" x="523.1732" y="-15.4" font-family="sans-serif" font-size="14.00" fill="#000000"> &#160;Providers</text>
<polygon fill="#fb8072" stroke="transparent" points="595.5,-10 595.5,-30 615.5,-30 615.5,-10 595.5,-10"/>
<text text-anchor="start" x="619.2258" y="-15.4" font-family="sans-serif" font-size="14.00" fill="#000000"> &#160;Exports</text>
<g id="clust1" class="cluster">
<title>cluster_CoreModule</title>
<polygon fill="none" stroke="#000000" stroke-dasharray="1,5" points="8,-70 8,-195 867,-195 867,-70 8,-70"/>
</g>
<g id="clust3" class="cluster">
<title>cluster_CoreModule_imports</title>
<polygon fill="none" stroke="#000000" points="617,-78 617,-130 859,-130 859,-78 617,-78"/>
</g>
<g id="clust6" class="cluster">
<title>cluster_CoreModule_providers</title>
<polygon fill="none" stroke="#000000" points="16,-78 16,-130 609,-130 609,-78 16,-78"/>
</g>
<!-- ProtectedModule -->
<g id="node1" class="node">
<title>ProtectedModule</title>
<polygon fill="#8dd3c7" stroke="#000000" points="851.4188,-122 848.4188,-126 827.4188,-126 824.4188,-122 738.5812,-122 738.5812,-86 851.4188,-86 851.4188,-122"/>
<text text-anchor="middle" x="795" y="-99.8" font-family="Times,serif" font-size="14.00" fill="#000000">ProtectedModule</text>
</g>
<!-- CoreModule -->
<g id="node3" class="node">
<title>CoreModule</title>
<polygon fill="#8dd3c7" stroke="#000000" points="512.2619,-187 509.2619,-191 488.2619,-191 485.2619,-187 425.7381,-187 425.7381,-151 512.2619,-151 512.2619,-187"/>
<text text-anchor="middle" x="469" y="-164.8" font-family="Times,serif" font-size="14.00" fill="#000000">CoreModule</text>
</g>
<!-- ProtectedModule&#45;&gt;CoreModule -->
<g id="edge1" class="edge">
<title>ProtectedModule&#45;&gt;CoreModule</title>
<path fill="none" stroke="#000000" d="M795,-122.2843C795,-143.3211 795,-175 795,-175 795,-175 522.2903,-175 522.2903,-175"/>
<polygon fill="#000000" stroke="#000000" points="522.2903,-171.5001 512.2903,-175 522.2902,-178.5001 522.2903,-171.5001"/>
</g>
<!-- PublicModule -->
<g id="node2" class="node">
<title>PublicModule</title>
<polygon fill="#8dd3c7" stroke="#000000" points="720.8288,-122 717.8288,-126 696.8288,-126 693.8288,-122 625.1712,-122 625.1712,-86 720.8288,-86 720.8288,-122"/>
<text text-anchor="middle" x="673" y="-99.8" font-family="Times,serif" font-size="14.00" fill="#000000">PublicModule</text>
</g>
<!-- PublicModule&#45;&gt;CoreModule -->
<g id="edge2" class="edge">
<title>PublicModule&#45;&gt;CoreModule</title>
<path fill="none" stroke="#000000" d="M673,-122.0225C673,-139.3734 673,-163 673,-163 673,-163 522.2632,-163 522.2632,-163"/>
<polygon fill="#000000" stroke="#000000" points="522.2632,-159.5001 512.2632,-163 522.2631,-166.5001 522.2632,-159.5001"/>
</g>
<!-- AuthService -->
<g id="node4" class="node">
<title>AuthService</title>
<ellipse fill="#fdb462" stroke="#000000" cx="542" cy="-104" rx="59.1083" ry="18"/>
<text text-anchor="middle" x="542" y="-99.8" font-family="Times,serif" font-size="14.00" fill="#000000">AuthService</text>
</g>
<!-- AuthService&#45;&gt;CoreModule -->
<g id="edge3" class="edge">
<title>AuthService&#45;&gt;CoreModule</title>
<path fill="none" stroke="#000000" d="M497.5385,-115.922C497.5385,-115.922 497.5385,-140.7669 497.5385,-140.7669"/>
<polygon fill="#000000" stroke="#000000" points="494.0386,-140.7669 497.5385,-150.7669 501.0386,-140.7669 494.0386,-140.7669"/>
</g>
<!-- DeviceService -->
<g id="node5" class="node">
<title>DeviceService</title>
<ellipse fill="#fdb462" stroke="#000000" cx="397" cy="-104" rx="67.1715" ry="18"/>
<text text-anchor="middle" x="397" y="-99.8" font-family="Times,serif" font-size="14.00" fill="#000000">DeviceService</text>
</g>
<!-- DeviceService&#45;&gt;CoreModule -->
<g id="edge4" class="edge">
<title>DeviceService&#45;&gt;CoreModule</title>
<path fill="none" stroke="#000000" d="M444.9774,-116.8419C444.9774,-116.8419 444.9774,-140.5231 444.9774,-140.5231"/>
<polygon fill="#000000" stroke="#000000" points="441.4775,-140.523 444.9774,-150.5231 448.4775,-140.5231 441.4775,-140.523"/>
</g>
<!-- DisplayService -->
<g id="node6" class="node">
<title>DisplayService</title>
<ellipse fill="#fdb462" stroke="#000000" cx="242" cy="-104" rx="70.0596" ry="18"/>
<text text-anchor="middle" x="242" y="-99.8" font-family="Times,serif" font-size="14.00" fill="#000000">DisplayService</text>
</g>
<!-- DisplayService&#45;&gt;CoreModule -->
<g id="edge5" class="edge">
<title>DisplayService&#45;&gt;CoreModule</title>
<path fill="none" stroke="#000000" d="M242,-122.0225C242,-139.3734 242,-163 242,-163 242,-163 415.5007,-163 415.5007,-163"/>
<polygon fill="#000000" stroke="#000000" points="415.5007,-166.5001 425.5007,-163 415.5007,-159.5001 415.5007,-166.5001"/>
</g>
<!-- MeteoService -->
<g id="node7" class="node">
<title>MeteoService</title>
<ellipse fill="#fdb462" stroke="#000000" cx="89" cy="-104" rx="64.8234" ry="18"/>
<text text-anchor="middle" x="89" y="-99.8" font-family="Times,serif" font-size="14.00" fill="#000000">MeteoService</text>
</g>
<!-- MeteoService&#45;&gt;CoreModule -->
<g id="edge6" class="edge">
<title>MeteoService&#45;&gt;CoreModule</title>
<path fill="none" stroke="#000000" d="M89,-122.2843C89,-143.3211 89,-175 89,-175 89,-175 415.4092,-175 415.4092,-175"/>
<polygon fill="#000000" stroke="#000000" points="415.4092,-178.5001 425.4092,-175 415.4091,-171.5001 415.4092,-178.5001"/>
</g>
</g>
</svg>
