<?xml version="1.0" encoding="UTF-8" standalone="no"?>
<!DOCTYPE svg PUBLIC "-//W3C//DTD SVG 1.1//EN"
 "http://www.w3.org/Graphics/SVG/1.1/DTD/svg11.dtd">
<!-- Generated by graphviz version 2.40.1 (20161225.0304)
 -->
<!-- Title: dependencies Pages: 1 -->
<svg width="1389pt" height="211pt"
 viewBox="0.00 0.00 1389.00 211.00" xmlns="http://www.w3.org/2000/svg" xmlns:xlink="http://www.w3.org/1999/xlink">
<g id="graph0" class="graph" transform="scale(1 1) rotate(0) translate(4 207)">
<title>dependencies</title>
<polygon fill="#ffffff" stroke="transparent" points="-4,4 -4,-207 1385,-207 1385,4 -4,4"/>
<text text-anchor="start" x="669.5091" y="-42.4" font-family="sans-serif" font-weight="bold" font-size="14.00" fill="#000000">Legend</text>
<polygon fill="#ffffb3" stroke="transparent" points="456.5,-10 456.5,-30 476.5,-30 476.5,-10 456.5,-10"/>
<text text-anchor="start" x="480.129" y="-15.4" font-family="sans-serif" font-size="14.00" fill="#000000"> &#160;Declarations</text>
<polygon fill="#8dd3c7" stroke="transparent" points="569.5,-10 569.5,-30 589.5,-30 589.5,-10 569.5,-10"/>
<text text-anchor="start" x="593.2251" y="-15.4" font-family="sans-serif" font-size="14.00" fill="#000000"> &#160;Module</text>
<polygon fill="#80b1d3" stroke="transparent" points="655.5,-10 655.5,-30 675.5,-30 675.5,-10 655.5,-10"/>
<text text-anchor="start" x="679.2812" y="-15.4" font-family="sans-serif" font-size="14.00" fill="#000000"> &#160;Bootstrap</text>
<polygon fill="#fdb462" stroke="transparent" points="752.5,-10 752.5,-30 772.5,-30 772.5,-10 752.5,-10"/>
<text text-anchor="start" x="776.1732" y="-15.4" font-family="sans-serif" font-size="14.00" fill="#000000"> &#160;Providers</text>
<polygon fill="#fb8072" stroke="transparent" points="848.5,-10 848.5,-30 868.5,-30 868.5,-10 848.5,-10"/>
<text text-anchor="start" x="872.2258" y="-15.4" font-family="sans-serif" font-size="14.00" fill="#000000"> &#160;Exports</text>
<g id="clust1" class="cluster">
<title>cluster_DevicesModule</title>
<polygon fill="none" stroke="#000000" stroke-dasharray="1,5" points="8,-70 8,-195 1373,-195 1373,-70 8,-70"/>
</g>
<g id="clust2" class="cluster">
<title>cluster_DevicesModule_declarations</title>
<polygon fill="none" stroke="#000000" points="544,-78 544,-130 1365,-130 1365,-78 544,-78"/>
</g>
<g id="clust8" class="cluster">
<title>cluster_DevicesModule_imports</title>
<polygon fill="none" stroke="#000000" points="16,-78 16,-130 536,-130 536,-78 16,-78"/>
</g>
<!-- DetailDeviceComponent -->
<g id="node1" class="node">
<title>DetailDeviceComponent</title>
<polygon fill="#ffffb3" stroke="#000000" points="1356.6811,-122 1201.3189,-122 1201.3189,-86 1356.6811,-86 1356.6811,-122"/>
<text text-anchor="middle" x="1279" y="-99.8" font-family="Times,serif" font-size="14.00" fill="#000000">DetailDeviceComponent</text>
</g>
<!-- DevicesModule -->
<g id="node6" class="node">
<title>DevicesModule</title>
<polygon fill="#8dd3c7" stroke="#000000" points="745.136,-187 742.136,-191 721.136,-191 718.136,-187 640.864,-187 640.864,-151 745.136,-151 745.136,-187"/>
<text text-anchor="middle" x="693" y="-164.8" font-family="Times,serif" font-size="14.00" fill="#000000">DevicesModule</text>
</g>
<!-- DetailDeviceComponent&#45;&gt;DevicesModule -->
<g id="edge1" class="edge">
<title>DetailDeviceComponent&#45;&gt;DevicesModule</title>
<path fill="none" stroke="#000000" d="M1279,-122.2921C1279,-144.2057 1279,-178 1279,-178 1279,-178 755.2612,-178 755.2612,-178"/>
<polygon fill="#000000" stroke="#000000" points="755.2612,-174.5001 745.2612,-178 755.2611,-181.5001 755.2612,-174.5001"/>
</g>
<!-- ListDevicesComponent -->
<g id="node2" class="node">
<title>ListDevicesComponent</title>
<polygon fill="#ffffb3" stroke="#000000" points="1183.1965,-122 1034.8035,-122 1034.8035,-86 1183.1965,-86 1183.1965,-122"/>
<text text-anchor="middle" x="1109" y="-99.8" font-family="Times,serif" font-size="14.00" fill="#000000">ListDevicesComponent</text>
</g>
<!-- ListDevicesComponent&#45;&gt;DevicesModule -->
<g id="edge2" class="edge">
<title>ListDevicesComponent&#45;&gt;DevicesModule</title>
<path fill="none" stroke="#000000" d="M1109,-122.1061C1109,-141.3391 1109,-169 1109,-169 1109,-169 755.2655,-169 755.2655,-169"/>
<polygon fill="#000000" stroke="#000000" points="755.2655,-165.5001 745.2655,-169 755.2654,-172.5001 755.2655,-165.5001"/>
</g>
<!-- MeteoStationComponent -->
<g id="node3" class="node">
<title>MeteoStationComponent</title>
<polygon fill="#ffffb3" stroke="#000000" points="1017.266,-122 860.734,-122 860.734,-86 1017.266,-86 1017.266,-122"/>
<text text-anchor="middle" x="939" y="-99.8" font-family="Times,serif" font-size="14.00" fill="#000000">MeteoStationComponent</text>
</g>
<!-- MeteoStationComponent&#45;&gt;DevicesModule -->
<g id="edge3" class="edge">
<title>MeteoStationComponent&#45;&gt;DevicesModule</title>
<path fill="none" stroke="#000000" d="M939,-122.027C939,-138.3976 939,-160 939,-160 939,-160 755.1703,-160 755.1703,-160"/>
<polygon fill="#000000" stroke="#000000" points="755.1703,-156.5001 745.1703,-160 755.1702,-163.5001 755.1703,-156.5001"/>
</g>
<!-- MeteoStatsComponent -->
<g id="node4" class="node">
<title>MeteoStatsComponent</title>
<polygon fill="#ffffb3" stroke="#000000" points="842.3202,-122 697.6798,-122 697.6798,-86 842.3202,-86 842.3202,-122"/>
<text text-anchor="middle" x="770" y="-99.8" font-family="Times,serif" font-size="14.00" fill="#000000">MeteoStatsComponent</text>
</g>
<!-- MeteoStatsComponent&#45;&gt;DevicesModule -->
<g id="edge4" class="edge">
<title>MeteoStatsComponent&#45;&gt;DevicesModule</title>
<path fill="none" stroke="#000000" d="M729.4918,-122.1061C729.4918,-122.1061 729.4918,-140.991 729.4918,-140.991"/>
<polygon fill="#000000" stroke="#000000" points="725.9919,-140.9909 729.4918,-150.991 732.9919,-140.991 725.9919,-140.9909"/>
</g>
<!-- MeteoStatsComponent&#45;&gt;DevicesModule -->
<g id="edge5" class="edge">
<title>MeteoStatsComponent&#45;&gt;DevicesModule</title>
<path fill="none" stroke="#000000" d="M713.666,-122.1061C713.666,-122.1061 713.666,-140.991 713.666,-140.991"/>
<polygon fill="#000000" stroke="#000000" points="710.1661,-140.9909 713.666,-150.991 717.1661,-140.991 710.1661,-140.9909"/>
</g>
<!-- PlayLedComponent -->
<g id="node5" class="node">
<title>PlayLedComponent</title>
<polygon fill="#ffffb3" stroke="#000000" points="679.9874,-122 552.0126,-122 552.0126,-86 679.9874,-86 679.9874,-122"/>
<text text-anchor="middle" x="616" y="-99.8" font-family="Times,serif" font-size="14.00" fill="#000000">PlayLedComponent</text>
</g>
<!-- PlayLedComponent&#45;&gt;DevicesModule -->
<g id="edge6" class="edge">
<title>PlayLedComponent&#45;&gt;DevicesModule</title>
<path fill="none" stroke="#000000" d="M660.338,-122.1061C660.338,-122.1061 660.338,-140.991 660.338,-140.991"/>
<polygon fill="#000000" stroke="#000000" points="656.8381,-140.9909 660.338,-150.991 663.8381,-140.991 656.8381,-140.9909"/>
</g>
<!-- DeviceRoutingModule -->
<g id="node7" class="node">
<title>DeviceRoutingModule</title>
<polygon fill="#8dd3c7" stroke="#000000" points="528.3089,-122 525.3089,-126 504.3089,-126 501.3089,-122 383.6911,-122 383.6911,-86 528.3089,-86 528.3089,-122"/>
<text text-anchor="middle" x="456" y="-99.8" font-family="Times,serif" font-size="14.00" fill="#000000">DeviceRoutingModule</text>
</g>
<!-- DeviceRoutingModule&#45;&gt;DevicesModule -->
<g id="edge7" class="edge">
<title>DeviceRoutingModule&#45;&gt;DevicesModule</title>
<path fill="none" stroke="#000000" d="M456,-122.0091C456,-138.0494 456,-159 456,-159 456,-159 630.6959,-159 630.6959,-159"/>
<polygon fill="#000000" stroke="#000000" points="630.696,-162.5001 640.6959,-159 630.6959,-155.5001 630.696,-162.5001"/>
</g>
<!-- ForecastModule -->
<g id="node8" class="node">
<title>ForecastModule</title>
<polygon fill="#8dd3c7" stroke="#000000" points="365.472,-122 362.472,-126 341.472,-126 338.472,-122 258.528,-122 258.528,-86 365.472,-86 365.472,-122"/>
<text text-anchor="middle" x="312" y="-99.8" font-family="Times,serif" font-size="14.00" fill="#000000">ForecastModule</text>
</g>
<!-- ForecastModule&#45;&gt;DevicesModule -->
<g id="edge8" class="edge">
<title>ForecastModule&#45;&gt;DevicesModule</title>
<path fill="none" stroke="#000000" d="M312,-122.2667C312,-140.5552 312,-166 312,-166 312,-166 630.8224,-166 630.8224,-166"/>
<polygon fill="#000000" stroke="#000000" points="630.8225,-169.5001 640.8224,-166 630.8224,-162.5001 630.8225,-169.5001"/>
</g>
<!-- SharedModule -->
<g id="node9" class="node">
<title>SharedModule</title>
<polygon fill="#8dd3c7" stroke="#000000" points="240.4231,-122 237.4231,-126 216.4231,-126 213.4231,-122 141.5769,-122 141.5769,-86 240.4231,-86 240.4231,-122"/>
<text text-anchor="middle" x="191" y="-99.8" font-family="Times,serif" font-size="14.00" fill="#000000">SharedModule</text>
</g>
<!-- SharedModule&#45;&gt;DevicesModule -->
<g id="edge9" class="edge">
<title>SharedModule&#45;&gt;DevicesModule</title>
<path fill="none" stroke="#000000" d="M191,-122.1289C191,-142.5724 191,-173 191,-173 191,-173 630.6978,-173 630.6978,-173"/>
<polygon fill="#000000" stroke="#000000" points="630.6979,-176.5001 640.6978,-173 630.6978,-169.5001 630.6979,-176.5001"/>
</g>
<!-- StationModule -->
<g id="node10" class="node">
<title>StationModule</title>
<polygon fill="#8dd3c7" stroke="#000000" points="123.719,-122 120.719,-126 99.719,-126 96.719,-122 24.281,-122 24.281,-86 123.719,-86 123.719,-122"/>
<text text-anchor="middle" x="74" y="-99.8" font-family="Times,serif" font-size="14.00" fill="#000000">StationModule</text>
</g>
<!-- StationModule&#45;&gt;DevicesModule -->
<g id="edge10" class="edge">
<title>StationModule&#45;&gt;DevicesModule</title>
<path fill="none" stroke="#000000" d="M74,-122.0109C74,-144.4852 74,-180 74,-180 74,-180 630.7579,-180 630.7579,-180"/>
<polygon fill="#000000" stroke="#000000" points="630.7579,-183.5001 640.7579,-180 630.7579,-176.5001 630.7579,-183.5001"/>
</g>
</g>
</svg>
