<?xml version="1.0" encoding="UTF-8" standalone="no"?>
<!DOCTYPE svg PUBLIC "-//W3C//DTD SVG 1.1//EN"
 "http://www.w3.org/Graphics/SVG/1.1/DTD/svg11.dtd">
<!-- Generated by graphviz version 2.40.1 (20161225.0304)
 -->
<!-- Title: dependencies Pages: 1 -->
<svg width="1597pt" height="211pt"
 viewBox="0.00 0.00 1597.00 211.00" xmlns="http://www.w3.org/2000/svg" xmlns:xlink="http://www.w3.org/1999/xlink">
<g id="graph0" class="graph" transform="scale(1 1) rotate(0) translate(4 207)">
<title>dependencies</title>
<polygon fill="#ffffff" stroke="transparent" points="-4,4 -4,-207 1593,-207 1593,4 -4,4"/>
<text text-anchor="start" x="773.5091" y="-42.4" font-family="sans-serif" font-weight="bold" font-size="14.00" fill="#000000">Legend</text>
<polygon fill="#ffffb3" stroke="transparent" points="560.5,-10 560.5,-30 580.5,-30 580.5,-10 560.5,-10"/>
<text text-anchor="start" x="584.129" y="-15.4" font-family="sans-serif" font-size="14.00" fill="#000000"> &#160;Declarations</text>
<polygon fill="#8dd3c7" stroke="transparent" points="673.5,-10 673.5,-30 693.5,-30 693.5,-10 673.5,-10"/>
<text text-anchor="start" x="697.2251" y="-15.4" font-family="sans-serif" font-size="14.00" fill="#000000"> &#160;Module</text>
<polygon fill="#80b1d3" stroke="transparent" points="759.5,-10 759.5,-30 779.5,-30 779.5,-10 759.5,-10"/>
<text text-anchor="start" x="783.2812" y="-15.4" font-family="sans-serif" font-size="14.00" fill="#000000"> &#160;Bootstrap</text>
<polygon fill="#fdb462" stroke="transparent" points="856.5,-10 856.5,-30 876.5,-30 876.5,-10 856.5,-10"/>
<text text-anchor="start" x="880.1732" y="-15.4" font-family="sans-serif" font-size="14.00" fill="#000000"> &#160;Providers</text>
<polygon fill="#fb8072" stroke="transparent" points="952.5,-10 952.5,-30 972.5,-30 972.5,-10 952.5,-10"/>
<text text-anchor="start" x="976.2258" y="-15.4" font-family="sans-serif" font-size="14.00" fill="#000000"> &#160;Exports</text>
<g id="clust1" class="cluster">
<title>cluster_DevicesModule</title>
<polygon fill="none" stroke="#000000" stroke-dasharray="1,5" points="8,-70 8,-195 1581,-195 1581,-70 8,-70"/>
</g>
<g id="clust2" class="cluster">
<title>cluster_DevicesModule_declarations</title>
<polygon fill="none" stroke="#000000" points="544,-78 544,-130 1573,-130 1573,-78 544,-78"/>
</g>
<g id="clust9" class="cluster">
<title>cluster_DevicesModule_imports</title>
<polygon fill="none" stroke="#000000" points="16,-78 16,-130 536,-130 536,-78 16,-78"/>
</g>
<!-- DetailDeviceComponent -->
<g id="node1" class="node">
<title>DetailDeviceComponent</title>
<polygon fill="#ffffb3" stroke="#000000" points="1564.6811,-122 1409.3189,-122 1409.3189,-86 1564.6811,-86 1564.6811,-122"/>
<text text-anchor="middle" x="1487" y="-99.8" font-family="Times,serif" font-size="14.00" fill="#000000">DetailDeviceComponent</text>
</g>
<!-- DevicesModule -->
<g id="node7" class="node">
<title>DevicesModule</title>
<polygon fill="#8dd3c7" stroke="#000000" points="756.136,-187 753.136,-191 732.136,-191 729.136,-187 651.864,-187 651.864,-151 756.136,-151 756.136,-187"/>
<text text-anchor="middle" x="704" y="-164.8" font-family="Times,serif" font-size="14.00" fill="#000000">DevicesModule</text>
</g>
<!-- DetailDeviceComponent&#45;&gt;DevicesModule -->
<g id="edge1" class="edge">
<title>DetailDeviceComponent&#45;&gt;DevicesModule</title>
<path fill="none" stroke="#000000" d="M1487,-122.0109C1487,-144.4852 1487,-180 1487,-180 1487,-180 766.2856,-180 766.2856,-180"/>
<polygon fill="#000000" stroke="#000000" points="766.2856,-176.5001 756.2856,-180 766.2855,-183.5001 766.2856,-176.5001"/>
</g>
<!-- ListDevicesComponent -->
<g id="node2" class="node">
<title>ListDevicesComponent</title>
<polygon fill="#ffffb3" stroke="#000000" points="1391.1965,-122 1242.8035,-122 1242.8035,-86 1391.1965,-86 1391.1965,-122"/>
<text text-anchor="middle" x="1317" y="-99.8" font-family="Times,serif" font-size="14.00" fill="#000000">ListDevicesComponent</text>
</g>
<!-- ListDevicesComponent&#45;&gt;DevicesModule -->
<g id="edge2" class="edge">
<title>ListDevicesComponent&#45;&gt;DevicesModule</title>
<path fill="none" stroke="#000000" d="M1317,-122.1289C1317,-142.5724 1317,-173 1317,-173 1317,-173 766.264,-173 766.264,-173"/>
<polygon fill="#000000" stroke="#000000" points="766.2641,-169.5001 756.264,-173 766.264,-176.5001 766.2641,-169.5001"/>
</g>
<!-- MeteoStationComponent -->
<g id="node3" class="node">
<title>MeteoStationComponent</title>
<polygon fill="#ffffb3" stroke="#000000" points="1225.266,-122 1068.734,-122 1068.734,-86 1225.266,-86 1225.266,-122"/>
<text text-anchor="middle" x="1147" y="-99.8" font-family="Times,serif" font-size="14.00" fill="#000000">MeteoStationComponent</text>
</g>
<!-- MeteoStationComponent&#45;&gt;DevicesModule -->
<g id="edge3" class="edge">
<title>MeteoStationComponent&#45;&gt;DevicesModule</title>
<path fill="none" stroke="#000000" d="M1147,-122.2667C1147,-140.5552 1147,-166 1147,-166 1147,-166 766.5575,-166 766.5575,-166"/>
<polygon fill="#000000" stroke="#000000" points="766.5576,-162.5001 756.5575,-166 766.5575,-169.5001 766.5576,-162.5001"/>
</g>
<!-- MeteoStatsComponent -->
<g id="node4" class="node">
<title>MeteoStatsComponent</title>
<polygon fill="#ffffb3" stroke="#000000" points="1050.3202,-122 905.6798,-122 905.6798,-86 1050.3202,-86 1050.3202,-122"/>
<text text-anchor="middle" x="978" y="-99.8" font-family="Times,serif" font-size="14.00" fill="#000000">MeteoStatsComponent</text>
</g>
<!-- MeteoStatsComponent&#45;&gt;DevicesModule -->
<g id="edge4" class="edge">
<title>MeteoStatsComponent&#45;&gt;DevicesModule</title>
<path fill="none" stroke="#000000" d="M978,-122.0091C978,-138.0494 978,-159 978,-159 978,-159 766.1822,-159 766.1822,-159"/>
<polygon fill="#000000" stroke="#000000" points="766.1823,-155.5001 756.1822,-159 766.1822,-162.5001 766.1823,-155.5001"/>
</g>
<!-- MeteoStatsGraphicComponent -->
<g id="node5" class="node">
<title>MeteoStatsGraphicComponent</title>
<polygon fill="#ffffb3" stroke="#000000" points="887.9072,-122 698.0928,-122 698.0928,-86 887.9072,-86 887.9072,-122"/>
<text text-anchor="middle" x="793" y="-99.8" font-family="Times,serif" font-size="14.00" fill="#000000">MeteoStatsGraphicComponent</text>
</g>
<!-- MeteoStatsGraphicComponent&#45;&gt;DevicesModule -->
<g id="edge5" class="edge">
<title>MeteoStatsGraphicComponent&#45;&gt;DevicesModule</title>
<path fill="none" stroke="#000000" d="M727.3072,-122.1061C727.3072,-122.1061 727.3072,-140.991 727.3072,-140.991"/>
<polygon fill="#000000" stroke="#000000" points="723.8072,-140.9909 727.3072,-150.991 730.8072,-140.991 723.8072,-140.9909"/>
</g>
<!-- PlayLedComponent -->
<g id="node6" class="node">
<title>PlayLedComponent</title>
<polygon fill="#ffffb3" stroke="#000000" points="679.9874,-122 552.0126,-122 552.0126,-86 679.9874,-86 679.9874,-122"/>
<text text-anchor="middle" x="616" y="-99.8" font-family="Times,serif" font-size="14.00" fill="#000000">PlayLedComponent</text>
</g>
<!-- PlayLedComponent&#45;&gt;DevicesModule -->
<g id="edge6" class="edge">
<title>PlayLedComponent&#45;&gt;DevicesModule</title>
<path fill="none" stroke="#000000" d="M665.838,-122.1061C665.838,-122.1061 665.838,-140.991 665.838,-140.991"/>
<polygon fill="#000000" stroke="#000000" points="662.3381,-140.9909 665.838,-150.991 669.3381,-140.991 662.3381,-140.9909"/>
</g>
<!-- DeviceRoutingModule -->
<g id="node8" class="node">
<title>DeviceRoutingModule</title>
<polygon fill="#8dd3c7" stroke="#000000" points="528.3089,-122 525.3089,-126 504.3089,-126 501.3089,-122 383.6911,-122 383.6911,-86 528.3089,-86 528.3089,-122"/>
<text text-anchor="middle" x="456" y="-99.8" font-family="Times,serif" font-size="14.00" fill="#000000">DeviceRoutingModule</text>
</g>
<!-- DeviceRoutingModule&#45;&gt;DevicesModule -->
<g id="edge7" class="edge">
<title>DeviceRoutingModule&#45;&gt;DevicesModule</title>
<path fill="none" stroke="#000000" d="M456,-122.0091C456,-138.0494 456,-159 456,-159 456,-159 641.7086,-159 641.7086,-159"/>
<polygon fill="#000000" stroke="#000000" points="641.7087,-162.5001 651.7086,-159 641.7086,-155.5001 641.7087,-162.5001"/>
</g>
<!-- ForecastModule -->
<g id="node9" class="node">
<title>ForecastModule</title>
<polygon fill="#8dd3c7" stroke="#000000" points="365.472,-122 362.472,-126 341.472,-126 338.472,-122 258.528,-122 258.528,-86 365.472,-86 365.472,-122"/>
<text text-anchor="middle" x="312" y="-99.8" font-family="Times,serif" font-size="14.00" fill="#000000">ForecastModule</text>
</g>
<!-- ForecastModule&#45;&gt;DevicesModule -->
<g id="edge8" class="edge">
<title>ForecastModule&#45;&gt;DevicesModule</title>
<path fill="none" stroke="#000000" d="M312,-122.2667C312,-140.5552 312,-166 312,-166 312,-166 641.5399,-166 641.5399,-166"/>
<polygon fill="#000000" stroke="#000000" points="641.5399,-169.5001 651.5399,-166 641.5399,-162.5001 641.5399,-169.5001"/>
</g>
<!-- SharedModule -->
<g id="node10" class="node">
<title>SharedModule</title>
<polygon fill="#8dd3c7" stroke="#000000" points="240.4231,-122 237.4231,-126 216.4231,-126 213.4231,-122 141.5769,-122 141.5769,-86 240.4231,-86 240.4231,-122"/>
<text text-anchor="middle" x="191" y="-99.8" font-family="Times,serif" font-size="14.00" fill="#000000">SharedModule</text>
</g>
<!-- SharedModule&#45;&gt;DevicesModule -->
<g id="edge9" class="edge">
<title>SharedModule&#45;&gt;DevicesModule</title>
<path fill="none" stroke="#000000" d="M191,-122.1289C191,-142.5724 191,-173 191,-173 191,-173 641.5108,-173 641.5108,-173"/>
<polygon fill="#000000" stroke="#000000" points="641.5109,-176.5001 651.5108,-173 641.5108,-169.5001 641.5109,-176.5001"/>
</g>
<!-- StationModule -->
<g id="node11" class="node">
<title>StationModule</title>
<polygon fill="#8dd3c7" stroke="#000000" points="123.719,-122 120.719,-126 99.719,-126 96.719,-122 24.281,-122 24.281,-86 123.719,-86 123.719,-122"/>
<text text-anchor="middle" x="74" y="-99.8" font-family="Times,serif" font-size="14.00" fill="#000000">StationModule</text>
</g>
<!-- StationModule&#45;&gt;DevicesModule -->
<g id="edge10" class="edge">
<title>StationModule&#45;&gt;DevicesModule</title>
<path fill="none" stroke="#000000" d="M74,-122.0109C74,-144.4852 74,-180 74,-180 74,-180 641.6396,-180 641.6396,-180"/>
<polygon fill="#000000" stroke="#000000" points="641.6396,-183.5001 651.6396,-180 641.6396,-176.5001 641.6396,-183.5001"/>
</g>
</g>
</svg>
