<?xml version="1.0" encoding="UTF-8" standalone="no"?>
<!DOCTYPE svg PUBLIC "-//W3C//DTD SVG 1.1//EN"
 "http://www.w3.org/Graphics/SVG/1.1/DTD/svg11.dtd">
<!-- Generated by graphviz version 2.40.1 (20161225.0304)
 -->
<!-- Title: dependencies Pages: 1 -->
<svg width="1226pt" height="211pt"
 viewBox="0.00 0.00 1226.00 211.00" xmlns="http://www.w3.org/2000/svg" xmlns:xlink="http://www.w3.org/1999/xlink">
<g id="graph0" class="graph" transform="scale(1 1) rotate(0) translate(4 207)">
<title>dependencies</title>
<polygon fill="#ffffff" stroke="transparent" points="-4,4 -4,-207 1222,-207 1222,4 -4,4"/>
<text text-anchor="start" x="588.0091" y="-42.4" font-family="sans-serif" font-weight="bold" font-size="14.00" fill="#000000">Legend</text>
<polygon fill="#ffffb3" stroke="transparent" points="375,-10 375,-30 395,-30 395,-10 375,-10"/>
<text text-anchor="start" x="398.629" y="-15.4" font-family="sans-serif" font-size="14.00" fill="#000000"> &#160;Declarations</text>
<polygon fill="#8dd3c7" stroke="transparent" points="488,-10 488,-30 508,-30 508,-10 488,-10"/>
<text text-anchor="start" x="511.7251" y="-15.4" font-family="sans-serif" font-size="14.00" fill="#000000"> &#160;Module</text>
<polygon fill="#80b1d3" stroke="transparent" points="574,-10 574,-30 594,-30 594,-10 574,-10"/>
<text text-anchor="start" x="597.7812" y="-15.4" font-family="sans-serif" font-size="14.00" fill="#000000"> &#160;Bootstrap</text>
<polygon fill="#fdb462" stroke="transparent" points="671,-10 671,-30 691,-30 691,-10 671,-10"/>
<text text-anchor="start" x="694.6732" y="-15.4" font-family="sans-serif" font-size="14.00" fill="#000000"> &#160;Providers</text>
<polygon fill="#fb8072" stroke="transparent" points="767,-10 767,-30 787,-30 787,-10 767,-10"/>
<text text-anchor="start" x="790.7258" y="-15.4" font-family="sans-serif" font-size="14.00" fill="#000000"> &#160;Exports</text>
<g id="clust1" class="cluster">
<title>cluster_DevicesModule</title>
<polygon fill="none" stroke="#000000" stroke-dasharray="1,5" points="8,-70 8,-195 1210,-195 1210,-70 8,-70"/>
</g>
<g id="clust2" class="cluster">
<title>cluster_DevicesModule_declarations</title>
<polygon fill="none" stroke="#000000" points="544,-78 544,-130 1202,-130 1202,-78 544,-78"/>
</g>
<g id="clust7" class="cluster">
<title>cluster_DevicesModule_imports</title>
<polygon fill="none" stroke="#000000" points="16,-78 16,-130 536,-130 536,-78 16,-78"/>
</g>
<!-- DetailDeviceComponent -->
<g id="node1" class="node">
<title>DetailDeviceComponent</title>
<polygon fill="#ffffb3" stroke="#000000" points="1193.6811,-122 1038.3189,-122 1038.3189,-86 1193.6811,-86 1193.6811,-122"/>
<text text-anchor="middle" x="1116" y="-99.8" font-family="Times,serif" font-size="14.00" fill="#000000">DetailDeviceComponent</text>
</g>
<!-- DevicesModule -->
<g id="node5" class="node">
<title>DevicesModule</title>
<polygon fill="#8dd3c7" stroke="#000000" points="588.136,-187 585.136,-191 564.136,-191 561.136,-187 483.864,-187 483.864,-151 588.136,-151 588.136,-187"/>
<text text-anchor="middle" x="536" y="-164.8" font-family="Times,serif" font-size="14.00" fill="#000000">DevicesModule</text>
</g>
<!-- DetailDeviceComponent&#45;&gt;DevicesModule -->
<g id="edge1" class="edge">
<title>DetailDeviceComponent&#45;&gt;DevicesModule</title>
<path fill="none" stroke="#000000" d="M1116,-122.2921C1116,-144.2057 1116,-178 1116,-178 1116,-178 598.2376,-178 598.2376,-178"/>
<polygon fill="#000000" stroke="#000000" points="598.2376,-174.5001 588.2376,-178 598.2375,-181.5001 598.2376,-174.5001"/>
</g>
<!-- ListDevicesComponent -->
<g id="node2" class="node">
<title>ListDevicesComponent</title>
<polygon fill="#ffffb3" stroke="#000000" points="1020.1965,-122 871.8035,-122 871.8035,-86 1020.1965,-86 1020.1965,-122"/>
<text text-anchor="middle" x="946" y="-99.8" font-family="Times,serif" font-size="14.00" fill="#000000">ListDevicesComponent</text>
</g>
<!-- ListDevicesComponent&#45;&gt;DevicesModule -->
<g id="edge2" class="edge">
<title>ListDevicesComponent&#45;&gt;DevicesModule</title>
<path fill="none" stroke="#000000" d="M946,-122.1061C946,-141.3391 946,-169 946,-169 946,-169 598.3432,-169 598.3432,-169"/>
<polygon fill="#000000" stroke="#000000" points="598.3433,-165.5001 588.3432,-169 598.3432,-172.5001 598.3433,-165.5001"/>
</g>
<!-- MeteoStationComponent -->
<g id="node3" class="node">
<title>MeteoStationComponent</title>
<polygon fill="#ffffb3" stroke="#000000" points="854.266,-122 697.734,-122 697.734,-86 854.266,-86 854.266,-122"/>
<text text-anchor="middle" x="776" y="-99.8" font-family="Times,serif" font-size="14.00" fill="#000000">MeteoStationComponent</text>
</g>
<!-- MeteoStationComponent&#45;&gt;DevicesModule -->
<g id="edge3" class="edge">
<title>MeteoStationComponent&#45;&gt;DevicesModule</title>
<path fill="none" stroke="#000000" d="M776,-122.027C776,-138.3976 776,-160 776,-160 776,-160 598.3724,-160 598.3724,-160"/>
<polygon fill="#000000" stroke="#000000" points="598.3725,-156.5001 588.3724,-160 598.3724,-163.5001 598.3725,-156.5001"/>
</g>
<!-- PlayLedComponent -->
<g id="node4" class="node">
<title>PlayLedComponent</title>
<polygon fill="#ffffb3" stroke="#000000" points="679.9874,-122 552.0126,-122 552.0126,-86 679.9874,-86 679.9874,-122"/>
<text text-anchor="middle" x="616" y="-99.8" font-family="Times,serif" font-size="14.00" fill="#000000">PlayLedComponent</text>
</g>
<!-- PlayLedComponent&#45;&gt;DevicesModule -->
<g id="edge4" class="edge">
<title>PlayLedComponent&#45;&gt;DevicesModule</title>
<path fill="none" stroke="#000000" d="M570.162,-122.1061C570.162,-122.1061 570.162,-140.991 570.162,-140.991"/>
<polygon fill="#000000" stroke="#000000" points="566.6621,-140.9909 570.162,-150.991 573.6621,-140.991 566.6621,-140.9909"/>
</g>
<!-- DeviceRoutingModule -->
<g id="node6" class="node">
<title>DeviceRoutingModule</title>
<polygon fill="#8dd3c7" stroke="#000000" points="528.3089,-122 525.3089,-126 504.3089,-126 501.3089,-122 383.6911,-122 383.6911,-86 528.3089,-86 528.3089,-122"/>
<text text-anchor="middle" x="456" y="-99.8" font-family="Times,serif" font-size="14.00" fill="#000000">DeviceRoutingModule</text>
</g>
<!-- DeviceRoutingModule&#45;&gt;DevicesModule -->
<g id="edge5" class="edge">
<title>DeviceRoutingModule&#45;&gt;DevicesModule</title>
<path fill="none" stroke="#000000" d="M505.9183,-122.1061C505.9183,-122.1061 505.9183,-140.991 505.9183,-140.991"/>
<polygon fill="#000000" stroke="#000000" points="502.4184,-140.9909 505.9183,-150.991 509.4184,-140.991 502.4184,-140.9909"/>
</g>
<!-- ForecastModule -->
<g id="node7" class="node">
<title>ForecastModule</title>
<polygon fill="#8dd3c7" stroke="#000000" points="365.472,-122 362.472,-126 341.472,-126 338.472,-122 258.528,-122 258.528,-86 365.472,-86 365.472,-122"/>
<text text-anchor="middle" x="312" y="-99.8" font-family="Times,serif" font-size="14.00" fill="#000000">ForecastModule</text>
</g>
<!-- ForecastModule&#45;&gt;DevicesModule -->
<g id="edge6" class="edge">
<title>ForecastModule&#45;&gt;DevicesModule</title>
<path fill="none" stroke="#000000" d="M312,-122.027C312,-138.3976 312,-160 312,-160 312,-160 473.7647,-160 473.7647,-160"/>
<polygon fill="#000000" stroke="#000000" points="473.7647,-163.5001 483.7647,-160 473.7646,-156.5001 473.7647,-163.5001"/>
</g>
<!-- SharedModule -->
<g id="node8" class="node">
<title>SharedModule</title>
<polygon fill="#8dd3c7" stroke="#000000" points="240.4231,-122 237.4231,-126 216.4231,-126 213.4231,-122 141.5769,-122 141.5769,-86 240.4231,-86 240.4231,-122"/>
<text text-anchor="middle" x="191" y="-99.8" font-family="Times,serif" font-size="14.00" fill="#000000">SharedModule</text>
</g>
<!-- SharedModule&#45;&gt;DevicesModule -->
<g id="edge7" class="edge">
<title>SharedModule&#45;&gt;DevicesModule</title>
<path fill="none" stroke="#000000" d="M191,-122.1061C191,-141.3391 191,-169 191,-169 191,-169 473.6019,-169 473.6019,-169"/>
<polygon fill="#000000" stroke="#000000" points="473.602,-172.5001 483.6019,-169 473.6019,-165.5001 473.602,-172.5001"/>
</g>
<!-- StationModule -->
<g id="node9" class="node">
<title>StationModule</title>
<polygon fill="#8dd3c7" stroke="#000000" points="123.719,-122 120.719,-126 99.719,-126 96.719,-122 24.281,-122 24.281,-86 123.719,-86 123.719,-122"/>
<text text-anchor="middle" x="74" y="-99.8" font-family="Times,serif" font-size="14.00" fill="#000000">StationModule</text>
</g>
<!-- StationModule&#45;&gt;DevicesModule -->
<g id="edge8" class="edge">
<title>StationModule&#45;&gt;DevicesModule</title>
<path fill="none" stroke="#000000" d="M74,-122.2921C74,-144.2057 74,-178 74,-178 74,-178 473.4525,-178 473.4525,-178"/>
<polygon fill="#000000" stroke="#000000" points="473.4526,-181.5001 483.4525,-178 473.4525,-174.5001 473.4526,-181.5001"/>
</g>
</g>
</svg>
