<?xml version="1.0" encoding="UTF-8" standalone="no"?>
<!DOCTYPE svg PUBLIC "-//W3C//DTD SVG 1.1//EN"
 "http://www.w3.org/Graphics/SVG/1.1/DTD/svg11.dtd">
<!-- Generated by graphviz version 2.40.1 (20161225.0304)
 -->
<!-- Title: dependencies Pages: 1 -->
<svg width="504pt" height="211pt"
 viewBox="0.00 0.00 504.00 211.00" xmlns="http://www.w3.org/2000/svg" xmlns:xlink="http://www.w3.org/1999/xlink">
<g id="graph0" class="graph" transform="scale(1 1) rotate(0) translate(4 207)">
<title>dependencies</title>
<polygon fill="#ffffff" stroke="transparent" points="-4,4 -4,-207 500,-207 500,4 -4,4"/>
<text text-anchor="start" x="227.0091" y="-42.4" font-family="sans-serif" font-weight="bold" font-size="14.00" fill="#000000">Legend</text>
<polygon fill="#ffffb3" stroke="transparent" points="14,-10 14,-30 34,-30 34,-10 14,-10"/>
<text text-anchor="start" x="37.629" y="-15.4" font-family="sans-serif" font-size="14.00" fill="#000000"> &#160;Declarations</text>
<polygon fill="#8dd3c7" stroke="transparent" points="127,-10 127,-30 147,-30 147,-10 127,-10"/>
<text text-anchor="start" x="150.7251" y="-15.4" font-family="sans-serif" font-size="14.00" fill="#000000"> &#160;Module</text>
<polygon fill="#80b1d3" stroke="transparent" points="213,-10 213,-30 233,-30 233,-10 213,-10"/>
<text text-anchor="start" x="236.7812" y="-15.4" font-family="sans-serif" font-size="14.00" fill="#000000"> &#160;Bootstrap</text>
<polygon fill="#fdb462" stroke="transparent" points="310,-10 310,-30 330,-30 330,-10 310,-10"/>
<text text-anchor="start" x="333.6732" y="-15.4" font-family="sans-serif" font-size="14.00" fill="#000000"> &#160;Providers</text>
<polygon fill="#fb8072" stroke="transparent" points="406,-10 406,-30 426,-30 426,-10 406,-10"/>
<text text-anchor="start" x="429.7258" y="-15.4" font-family="sans-serif" font-size="14.00" fill="#000000"> &#160;Exports</text>
<g id="clust1" class="cluster">
<title>cluster_ProtectedModule</title>
<polygon fill="none" stroke="#000000" stroke-dasharray="1,5" points="34,-70 34,-195 462,-195 462,-70 34,-70"/>
</g>
<g id="clust3" class="cluster">
<title>cluster_ProtectedModule_imports</title>
<polygon fill="none" stroke="#000000" points="42,-78 42,-130 454,-130 454,-78 42,-78"/>
</g>
<!-- DevicesModule -->
<g id="node1" class="node">
<title>DevicesModule</title>
<polygon fill="#8dd3c7" stroke="#000000" points="446.136,-122 443.136,-126 422.136,-126 419.136,-122 341.864,-122 341.864,-86 446.136,-86 446.136,-122"/>
<text text-anchor="middle" x="394" y="-99.8" font-family="Times,serif" font-size="14.00" fill="#000000">DevicesModule</text>
</g>
<!-- ProtectedModule -->
<g id="node4" class="node">
<title>ProtectedModule</title>
<polygon fill="#8dd3c7" stroke="#000000" points="301.4188,-187 298.4188,-191 277.4188,-191 274.4188,-187 188.5812,-187 188.5812,-151 301.4188,-151 301.4188,-187"/>
<text text-anchor="middle" x="245" y="-164.8" font-family="Times,serif" font-size="14.00" fill="#000000">ProtectedModule</text>
</g>
<!-- DevicesModule&#45;&gt;ProtectedModule -->
<g id="edge1" class="edge">
<title>DevicesModule&#45;&gt;ProtectedModule</title>
<path fill="none" stroke="#000000" d="M394,-122.1061C394,-141.3391 394,-169 394,-169 394,-169 311.3305,-169 311.3305,-169"/>
<polygon fill="#000000" stroke="#000000" points="311.3305,-165.5001 301.3305,-169 311.3305,-172.5001 311.3305,-165.5001"/>
</g>
<!-- ProtectedRoutingModule -->
<g id="node2" class="node">
<title>ProtectedRoutingModule</title>
<polygon fill="#8dd3c7" stroke="#000000" points="323.5365,-122 320.5365,-126 299.5365,-126 296.5365,-122 166.4635,-122 166.4635,-86 323.5365,-86 323.5365,-122"/>
<text text-anchor="middle" x="245" y="-99.8" font-family="Times,serif" font-size="14.00" fill="#000000">ProtectedRoutingModule</text>
</g>
<!-- ProtectedRoutingModule&#45;&gt;ProtectedModule -->
<g id="edge2" class="edge">
<title>ProtectedRoutingModule&#45;&gt;ProtectedModule</title>
<path fill="none" stroke="#000000" d="M245,-122.1061C245,-122.1061 245,-140.991 245,-140.991"/>
<polygon fill="#000000" stroke="#000000" points="241.5001,-140.9909 245,-150.991 248.5001,-140.991 241.5001,-140.9909"/>
</g>
<!-- SharedModule -->
<g id="node3" class="node">
<title>SharedModule</title>
<polygon fill="#8dd3c7" stroke="#000000" points="148.4231,-122 145.4231,-126 124.4231,-126 121.4231,-122 49.5769,-122 49.5769,-86 148.4231,-86 148.4231,-122"/>
<text text-anchor="middle" x="99" y="-99.8" font-family="Times,serif" font-size="14.00" fill="#000000">SharedModule</text>
</g>
<!-- SharedModule&#45;&gt;ProtectedModule -->
<g id="edge3" class="edge">
<title>SharedModule&#45;&gt;ProtectedModule</title>
<path fill="none" stroke="#000000" d="M99,-122.1061C99,-141.3391 99,-169 99,-169 99,-169 178.5526,-169 178.5526,-169"/>
<polygon fill="#000000" stroke="#000000" points="178.5526,-172.5001 188.5526,-169 178.5526,-165.5001 178.5526,-172.5001"/>
</g>
</g>
</svg>
