<?xml version="1.0" encoding="UTF-8" standalone="no"?>
<!DOCTYPE svg PUBLIC "-//W3C//DTD SVG 1.1//EN"
 "http://www.w3.org/Graphics/SVG/1.1/DTD/svg11.dtd">
<!-- Generated by graphviz version 2.40.1 (20161225.0304)
 -->
<!-- Title: dependencies Pages: 1 -->
<svg width="516pt" height="284pt"
 viewBox="0.00 0.00 516.00 284.00" xmlns="http://www.w3.org/2000/svg" xmlns:xlink="http://www.w3.org/1999/xlink">
<g id="graph0" class="graph" transform="scale(1 1) rotate(0) translate(4 280)">
<title>dependencies</title>
<polygon fill="#ffffff" stroke="transparent" points="-4,4 -4,-280 512,-280 512,4 -4,4"/>
<text text-anchor="start" x="233.0091" y="-42.4" font-family="sans-serif" font-weight="bold" font-size="14.00" fill="#000000">Legend</text>
<polygon fill="#ffffb3" stroke="transparent" points="20,-10 20,-30 40,-30 40,-10 20,-10"/>
<text text-anchor="start" x="43.629" y="-15.4" font-family="sans-serif" font-size="14.00" fill="#000000"> &#160;Declarations</text>
<polygon fill="#8dd3c7" stroke="transparent" points="133,-10 133,-30 153,-30 153,-10 133,-10"/>
<text text-anchor="start" x="156.7251" y="-15.4" font-family="sans-serif" font-size="14.00" fill="#000000"> &#160;Module</text>
<polygon fill="#80b1d3" stroke="transparent" points="219,-10 219,-30 239,-30 239,-10 219,-10"/>
<text text-anchor="start" x="242.7812" y="-15.4" font-family="sans-serif" font-size="14.00" fill="#000000"> &#160;Bootstrap</text>
<polygon fill="#fdb462" stroke="transparent" points="316,-10 316,-30 336,-30 336,-10 316,-10"/>
<text text-anchor="start" x="339.6732" y="-15.4" font-family="sans-serif" font-size="14.00" fill="#000000"> &#160;Providers</text>
<polygon fill="#fb8072" stroke="transparent" points="412,-10 412,-30 432,-30 432,-10 412,-10"/>
<text text-anchor="start" x="435.7258" y="-15.4" font-family="sans-serif" font-size="14.00" fill="#000000"> &#160;Exports</text>
<g id="clust1" class="cluster">
<title>cluster_ForecastModule</title>
<polygon fill="none" stroke="#000000" stroke-dasharray="1,5" points="8,-70 8,-268 500,-268 500,-70 8,-70"/>
</g>
<g id="clust2" class="cluster">
<title>cluster_ForecastModule_declarations</title>
<polygon fill="none" stroke="#000000" points="138,-78 138,-130 492,-130 492,-78 138,-78"/>
</g>
<g id="clust5" class="cluster">
<title>cluster_ForecastModule_imports</title>
<polygon fill="none" stroke="#000000" points="16,-78 16,-130 130,-130 130,-78 16,-78"/>
</g>
<g id="clust6" class="cluster">
<title>cluster_ForecastModule_exports</title>
<polygon fill="none" stroke="#000000" points="136,-208 136,-260 318,-260 318,-208 136,-208"/>
</g>
<!-- ForecastDaysComponent -->
<g id="node1" class="node">
<title>ForecastDaysComponent</title>
<polygon fill="#ffffb3" stroke="#000000" points="483.5211,-122 326.4789,-122 326.4789,-86 483.5211,-86 483.5211,-122"/>
<text text-anchor="middle" x="405" y="-99.8" font-family="Times,serif" font-size="14.00" fill="#000000">ForecastDaysComponent</text>
</g>
<!-- ForecastModule -->
<g id="node3" class="node">
<title>ForecastModule</title>
<polygon fill="#8dd3c7" stroke="#000000" points="280.472,-187 277.472,-191 256.472,-191 253.472,-187 173.528,-187 173.528,-151 280.472,-151 280.472,-187"/>
<text text-anchor="middle" x="227" y="-164.8" font-family="Times,serif" font-size="14.00" fill="#000000">ForecastModule</text>
</g>
<!-- ForecastDaysComponent&#45;&gt;ForecastModule -->
<g id="edge1" class="edge">
<title>ForecastDaysComponent&#45;&gt;ForecastModule</title>
<path fill="none" stroke="#000000" d="M405,-122.1061C405,-141.3391 405,-169 405,-169 405,-169 290.8889,-169 290.8889,-169"/>
<polygon fill="#000000" stroke="#000000" points="290.889,-165.5001 280.8889,-169 290.8889,-172.5001 290.889,-165.5001"/>
</g>
<!-- ForecastDetailComponent -->
<g id="node2" class="node">
<title>ForecastDetailComponent</title>
<polygon fill="#ffffb3" stroke="#000000" points="308.4622,-122 145.5378,-122 145.5378,-86 308.4622,-86 308.4622,-122"/>
<text text-anchor="middle" x="227" y="-99.8" font-family="Times,serif" font-size="14.00" fill="#000000">ForecastDetailComponent</text>
</g>
<!-- ForecastDetailComponent&#45;&gt;ForecastModule -->
<g id="edge2" class="edge">
<title>ForecastDetailComponent&#45;&gt;ForecastModule</title>
<path fill="none" stroke="#000000" d="M227,-122.1061C227,-122.1061 227,-140.991 227,-140.991"/>
<polygon fill="#000000" stroke="#000000" points="223.5001,-140.9909 227,-150.991 230.5001,-140.991 223.5001,-140.9909"/>
</g>
<!-- ForecastDetailComponent  -->
<g id="node5" class="node">
<title>ForecastDetailComponent </title>
<polygon fill="#fb8072" stroke="#000000" points="310.4628,-252 143.5372,-252 143.5372,-216 310.4628,-216 310.4628,-252"/>
<text text-anchor="middle" x="227" y="-229.8" font-family="Times,serif" font-size="14.00" fill="#000000">ForecastDetailComponent </text>
</g>
<!-- ForecastModule&#45;&gt;ForecastDetailComponent  -->
<g id="edge4" class="edge">
<title>ForecastModule&#45;&gt;ForecastDetailComponent </title>
<path fill="none" stroke="#000000" stroke-dasharray="5,2" d="M227,-187.1061C227,-187.1061 227,-205.991 227,-205.991"/>
<polygon fill="#000000" stroke="#000000" points="223.5001,-205.9909 227,-215.991 230.5001,-205.991 223.5001,-205.9909"/>
</g>
<!-- SharedModule -->
<g id="node4" class="node">
<title>SharedModule</title>
<polygon fill="#8dd3c7" stroke="#000000" points="122.4231,-122 119.4231,-126 98.4231,-126 95.4231,-122 23.5769,-122 23.5769,-86 122.4231,-86 122.4231,-122"/>
<text text-anchor="middle" x="73" y="-99.8" font-family="Times,serif" font-size="14.00" fill="#000000">SharedModule</text>
</g>
<!-- SharedModule&#45;&gt;ForecastModule -->
<g id="edge3" class="edge">
<title>SharedModule&#45;&gt;ForecastModule</title>
<path fill="none" stroke="#000000" d="M73,-122.1061C73,-141.3391 73,-169 73,-169 73,-169 163.1383,-169 163.1383,-169"/>
<polygon fill="#000000" stroke="#000000" points="163.1383,-172.5001 173.1383,-169 163.1382,-165.5001 163.1383,-172.5001"/>
</g>
</g>
</svg>
