<?xml version="1.0" encoding="UTF-8" standalone="no"?>
<!DOCTYPE svg PUBLIC "-//W3C//DTD SVG 1.1//EN"
 "http://www.w3.org/Graphics/SVG/1.1/DTD/svg11.dtd">
<!-- Generated by graphviz version 2.40.1 (20161225.0304)
 -->
<!-- Title: dependencies Pages: 1 -->
<svg width="504pt" height="284pt"
 viewBox="0.00 0.00 504.00 284.00" xmlns="http://www.w3.org/2000/svg" xmlns:xlink="http://www.w3.org/1999/xlink">
<g id="graph0" class="graph" transform="scale(1 1) rotate(0) translate(4 280)">
<title>dependencies</title>
<polygon fill="#ffffff" stroke="transparent" points="-4,4 -4,-280 500,-280 500,4 -4,4"/>
<text text-anchor="start" x="227.0091" y="-42.4" font-family="sans-serif" font-weight="bold" font-size="14.00" fill="#000000">Legend</text>
<polygon fill="#ffffb3" stroke="transparent" points="14,-10 14,-30 34,-30 34,-10 14,-10"/>
<text text-anchor="start" x="37.629" y="-15.4" font-family="sans-serif" font-size="14.00" fill="#000000"> &#160;Declarations</text>
<polygon fill="#8dd3c7" stroke="transparent" points="127,-10 127,-30 147,-30 147,-10 127,-10"/>
<text text-anchor="start" x="150.7251" y="-15.4" font-family="sans-serif" font-size="14.00" fill="#000000"> &#160;Module</text>
<polygon fill="#80b1d3" stroke="transparent" points="213,-10 213,-30 233,-30 233,-10 213,-10"/>
<text text-anchor="start" x="236.7812" y="-15.4" font-family="sans-serif" font-size="14.00" fill="#000000"> &#160;Bootstrap</text>
<polygon fill="#fdb462" stroke="transparent" points="310,-10 310,-30 330,-30 330,-10 310,-10"/>
<text text-anchor="start" x="333.6732" y="-15.4" font-family="sans-serif" font-size="14.00" fill="#000000"> &#160;Providers</text>
<polygon fill="#fb8072" stroke="transparent" points="406,-10 406,-30 426,-30 426,-10 406,-10"/>
<text text-anchor="start" x="429.7258" y="-15.4" font-family="sans-serif" font-size="14.00" fill="#000000"> &#160;Exports</text>
<g id="clust1" class="cluster">
<title>cluster_StationModule</title>
<polygon fill="none" stroke="#000000" stroke-dasharray="1,5" points="93,-70 93,-268 403,-268 403,-70 93,-70"/>
</g>
<g id="clust2" class="cluster">
<title>cluster_StationModule_declarations</title>
<polygon fill="none" stroke="#000000" points="223,-78 223,-130 395,-130 395,-78 223,-78"/>
</g>
<g id="clust4" class="cluster">
<title>cluster_StationModule_imports</title>
<polygon fill="none" stroke="#000000" points="101,-78 101,-130 215,-130 215,-78 101,-78"/>
</g>
<g id="clust5" class="cluster">
<title>cluster_StationModule_exports</title>
<polygon fill="none" stroke="#000000" points="161,-208 161,-260 335,-260 335,-208 161,-208"/>
</g>
<!-- StationDetailComponent -->
<g id="node1" class="node">
<title>StationDetailComponent</title>
<polygon fill="#ffffb3" stroke="#000000" points="386.7091,-122 231.2909,-122 231.2909,-86 386.7091,-86 386.7091,-122"/>
<text text-anchor="middle" x="309" y="-99.8" font-family="Times,serif" font-size="14.00" fill="#000000">StationDetailComponent</text>
</g>
<!-- StationModule -->
<g id="node2" class="node">
<title>StationModule</title>
<polygon fill="#8dd3c7" stroke="#000000" points="297.719,-187 294.719,-191 273.719,-191 270.719,-187 198.281,-187 198.281,-151 297.719,-151 297.719,-187"/>
<text text-anchor="middle" x="248" y="-164.8" font-family="Times,serif" font-size="14.00" fill="#000000">StationModule</text>
</g>
<!-- StationDetailComponent&#45;&gt;StationModule -->
<g id="edge1" class="edge">
<title>StationDetailComponent&#45;&gt;StationModule</title>
<path fill="none" stroke="#000000" d="M264.5025,-122.1061C264.5025,-122.1061 264.5025,-140.991 264.5025,-140.991"/>
<polygon fill="#000000" stroke="#000000" points="261.0025,-140.9909 264.5025,-150.991 268.0025,-140.991 261.0025,-140.9909"/>
</g>
<!-- StationDetailComponent  -->
<g id="node4" class="node">
<title>StationDetailComponent </title>
<polygon fill="#fb8072" stroke="#000000" points="327.2093,-252 168.7907,-252 168.7907,-216 327.2093,-216 327.2093,-252"/>
<text text-anchor="middle" x="248" y="-229.8" font-family="Times,serif" font-size="14.00" fill="#000000">StationDetailComponent </text>
</g>
<!-- StationModule&#45;&gt;StationDetailComponent  -->
<g id="edge3" class="edge">
<title>StationModule&#45;&gt;StationDetailComponent </title>
<path fill="none" stroke="#000000" stroke-dasharray="5,2" d="M248,-187.1061C248,-187.1061 248,-205.991 248,-205.991"/>
<polygon fill="#000000" stroke="#000000" points="244.5001,-205.9909 248,-215.991 251.5001,-205.991 244.5001,-205.9909"/>
</g>
<!-- SharedModule -->
<g id="node3" class="node">
<title>SharedModule</title>
<polygon fill="#8dd3c7" stroke="#000000" points="207.4231,-122 204.4231,-126 183.4231,-126 180.4231,-122 108.5769,-122 108.5769,-86 207.4231,-86 207.4231,-122"/>
<text text-anchor="middle" x="158" y="-99.8" font-family="Times,serif" font-size="14.00" fill="#000000">SharedModule</text>
</g>
<!-- SharedModule&#45;&gt;StationModule -->
<g id="edge2" class="edge">
<title>SharedModule&#45;&gt;StationModule</title>
<path fill="none" stroke="#000000" d="M202.8009,-122.1061C202.8009,-122.1061 202.8009,-140.991 202.8009,-140.991"/>
<polygon fill="#000000" stroke="#000000" points="199.3009,-140.9909 202.8009,-150.991 206.3009,-140.991 199.3009,-140.9909"/>
</g>
</g>
</svg>
