<?xml version="1.0" encoding="UTF-8" standalone="no"?>
<!DOCTYPE svg PUBLIC "-//W3C//DTD SVG 1.1//EN"
 "http://www.w3.org/Graphics/SVG/1.1/DTD/svg11.dtd">
<!-- Generated by graphviz version 2.40.1 (20161225.0304)
 -->
<!-- Title: dependencies Pages: 1 -->
<svg width="531pt" height="284pt"
 viewBox="0.00 0.00 531.00 284.00" xmlns="http://www.w3.org/2000/svg" xmlns:xlink="http://www.w3.org/1999/xlink">
<g id="graph0" class="graph" transform="scale(1 1) rotate(0) translate(4 280)">
<title>dependencies</title>
<polygon fill="#ffffff" stroke="transparent" points="-4,4 -4,-280 527,-280 527,4 -4,4"/>
<text text-anchor="start" x="240.5091" y="-42.4" font-family="sans-serif" font-weight="bold" font-size="14.00" fill="#000000">Legend</text>
<polygon fill="#ffffb3" stroke="transparent" points="27.5,-10 27.5,-30 47.5,-30 47.5,-10 27.5,-10"/>
<text text-anchor="start" x="51.129" y="-15.4" font-family="sans-serif" font-size="14.00" fill="#000000"> &#160;Declarations</text>
<polygon fill="#8dd3c7" stroke="transparent" points="140.5,-10 140.5,-30 160.5,-30 160.5,-10 140.5,-10"/>
<text text-anchor="start" x="164.2251" y="-15.4" font-family="sans-serif" font-size="14.00" fill="#000000"> &#160;Module</text>
<polygon fill="#80b1d3" stroke="transparent" points="226.5,-10 226.5,-30 246.5,-30 246.5,-10 226.5,-10"/>
<text text-anchor="start" x="250.2812" y="-15.4" font-family="sans-serif" font-size="14.00" fill="#000000"> &#160;Bootstrap</text>
<polygon fill="#fdb462" stroke="transparent" points="323.5,-10 323.5,-30 343.5,-30 343.5,-10 323.5,-10"/>
<text text-anchor="start" x="347.1732" y="-15.4" font-family="sans-serif" font-size="14.00" fill="#000000"> &#160;Providers</text>
<polygon fill="#fb8072" stroke="transparent" points="419.5,-10 419.5,-30 439.5,-30 439.5,-10 419.5,-10"/>
<text text-anchor="start" x="443.2258" y="-15.4" font-family="sans-serif" font-size="14.00" fill="#000000"> &#160;Exports</text>
<g id="clust1" class="cluster">
<title>cluster_StationModule</title>
<polygon fill="none" stroke="#000000" stroke-dasharray="1,5" points="8,-70 8,-268 515,-268 515,-70 8,-70"/>
</g>
<g id="clust2" class="cluster">
<title>cluster_StationModule_declarations</title>
<polygon fill="none" stroke="#000000" points="138,-78 138,-130 507,-130 507,-78 138,-78"/>
</g>
<g id="clust5" class="cluster">
<title>cluster_StationModule_imports</title>
<polygon fill="none" stroke="#000000" points="16,-78 16,-130 130,-130 130,-78 16,-78"/>
</g>
<g id="clust6" class="cluster">
<title>cluster_StationModule_exports</title>
<polygon fill="none" stroke="#000000" points="74,-208 74,-260 449,-260 449,-208 74,-208"/>
</g>
<!-- StationCommandComponent -->
<g id="node1" class="node">
<title>StationCommandComponent</title>
<polygon fill="#ffffb3" stroke="#000000" points="498.8341,-122 319.1659,-122 319.1659,-86 498.8341,-86 498.8341,-122"/>
<text text-anchor="middle" x="409" y="-99.8" font-family="Times,serif" font-size="14.00" fill="#000000">StationCommandComponent</text>
</g>
<!-- StationModule -->
<g id="node3" class="node">
<title>StationModule</title>
<polygon fill="#8dd3c7" stroke="#000000" points="273.719,-187 270.719,-191 249.719,-191 246.719,-187 174.281,-187 174.281,-151 273.719,-151 273.719,-187"/>
<text text-anchor="middle" x="224" y="-164.8" font-family="Times,serif" font-size="14.00" fill="#000000">StationModule</text>
</g>
<!-- StationCommandComponent&#45;&gt;StationModule -->
<g id="edge1" class="edge">
<title>StationCommandComponent&#45;&gt;StationModule</title>
<path fill="none" stroke="#000000" d="M380.375,-122.1061C380.375,-141.3391 380.375,-169 380.375,-169 380.375,-169 283.908,-169 283.908,-169"/>
<polygon fill="#000000" stroke="#000000" points="283.908,-165.5001 273.908,-169 283.9079,-172.5001 283.908,-165.5001"/>
</g>
<!-- StationDetailComponent -->
<g id="node2" class="node">
<title>StationDetailComponent</title>
<polygon fill="#ffffb3" stroke="#000000" points="301.7091,-122 146.2909,-122 146.2909,-86 301.7091,-86 301.7091,-122"/>
<text text-anchor="middle" x="224" y="-99.8" font-family="Times,serif" font-size="14.00" fill="#000000">StationDetailComponent</text>
</g>
<!-- StationDetailComponent&#45;&gt;StationModule -->
<g id="edge2" class="edge">
<title>StationDetailComponent&#45;&gt;StationModule</title>
<path fill="none" stroke="#000000" d="M224,-122.1061C224,-122.1061 224,-140.991 224,-140.991"/>
<polygon fill="#000000" stroke="#000000" points="220.5001,-140.9909 224,-150.991 227.5001,-140.991 220.5001,-140.9909"/>
</g>
<!-- StationCommandComponent  -->
<g id="node5" class="node">
<title>StationCommandComponent </title>
<polygon fill="#fb8072" stroke="#000000" points="441.3339,-252 258.6661,-252 258.6661,-216 441.3339,-216 441.3339,-252"/>
<text text-anchor="middle" x="350" y="-229.8" font-family="Times,serif" font-size="14.00" fill="#000000">StationCommandComponent </text>
</g>
<!-- StationModule&#45;&gt;StationCommandComponent  -->
<g id="edge4" class="edge">
<title>StationModule&#45;&gt;StationCommandComponent </title>
<path fill="none" stroke="#000000" stroke-dasharray="5,2" d="M266.0963,-187.1061C266.0963,-187.1061 266.0963,-205.991 266.0963,-205.991"/>
<polygon fill="#000000" stroke="#000000" points="262.5963,-205.9909 266.0963,-215.991 269.5963,-205.991 262.5963,-205.9909"/>
</g>
<!-- StationDetailComponent  -->
<g id="node6" class="node">
<title>StationDetailComponent </title>
<polygon fill="#fb8072" stroke="#000000" points="240.2093,-252 81.7907,-252 81.7907,-216 240.2093,-216 240.2093,-252"/>
<text text-anchor="middle" x="161" y="-229.8" font-family="Times,serif" font-size="14.00" fill="#000000">StationDetailComponent </text>
</g>
<!-- StationModule&#45;&gt;StationDetailComponent  -->
<g id="edge5" class="edge">
<title>StationModule&#45;&gt;StationDetailComponent </title>
<path fill="none" stroke="#000000" stroke-dasharray="5,2" d="M207.3726,-187.1061C207.3726,-187.1061 207.3726,-205.991 207.3726,-205.991"/>
<polygon fill="#000000" stroke="#000000" points="203.8726,-205.9909 207.3726,-215.991 210.8726,-205.991 203.8726,-205.9909"/>
</g>
<!-- SharedModule -->
<g id="node4" class="node">
<title>SharedModule</title>
<polygon fill="#8dd3c7" stroke="#000000" points="122.4231,-122 119.4231,-126 98.4231,-126 95.4231,-122 23.5769,-122 23.5769,-86 122.4231,-86 122.4231,-122"/>
<text text-anchor="middle" x="73" y="-99.8" font-family="Times,serif" font-size="14.00" fill="#000000">SharedModule</text>
</g>
<!-- SharedModule&#45;&gt;StationModule -->
<g id="edge3" class="edge">
<title>SharedModule&#45;&gt;StationModule</title>
<path fill="none" stroke="#000000" d="M101.9283,-122.1061C101.9283,-141.3391 101.9283,-169 101.9283,-169 101.9283,-169 164.3488,-169 164.3488,-169"/>
<polygon fill="#000000" stroke="#000000" points="164.3488,-172.5001 174.3488,-169 164.3487,-165.5001 164.3488,-172.5001"/>
</g>
</g>
</svg>
