<?xml version="1.0" encoding="UTF-8" standalone="no"?>
<!DOCTYPE svg PUBLIC "-//W3C//DTD SVG 1.1//EN"
 "http://www.w3.org/Graphics/SVG/1.1/DTD/svg11.dtd">
<!-- Generated by graphviz version 2.40.1 (20161225.0304)
 -->
<!-- Title: dependencies Pages: 1 -->
<svg width="915pt" height="284pt"
 viewBox="0.00 0.00 915.00 284.00" xmlns="http://www.w3.org/2000/svg" xmlns:xlink="http://www.w3.org/1999/xlink">
<g id="graph0" class="graph" transform="scale(1 1) rotate(0) translate(4 280)">
<title>dependencies</title>
<polygon fill="#ffffff" stroke="transparent" points="-4,4 -4,-280 911,-280 911,4 -4,4"/>
<text text-anchor="start" x="432.5091" y="-42.4" font-family="sans-serif" font-weight="bold" font-size="14.00" fill="#000000">Legend</text>
<polygon fill="#ffffb3" stroke="transparent" points="219.5,-10 219.5,-30 239.5,-30 239.5,-10 219.5,-10"/>
<text text-anchor="start" x="243.129" y="-15.4" font-family="sans-serif" font-size="14.00" fill="#000000"> &#160;Declarations</text>
<polygon fill="#8dd3c7" stroke="transparent" points="332.5,-10 332.5,-30 352.5,-30 352.5,-10 332.5,-10"/>
<text text-anchor="start" x="356.2251" y="-15.4" font-family="sans-serif" font-size="14.00" fill="#000000"> &#160;Module</text>
<polygon fill="#80b1d3" stroke="transparent" points="418.5,-10 418.5,-30 438.5,-30 438.5,-10 418.5,-10"/>
<text text-anchor="start" x="442.2812" y="-15.4" font-family="sans-serif" font-size="14.00" fill="#000000"> &#160;Bootstrap</text>
<polygon fill="#fdb462" stroke="transparent" points="515.5,-10 515.5,-30 535.5,-30 535.5,-10 515.5,-10"/>
<text text-anchor="start" x="539.1732" y="-15.4" font-family="sans-serif" font-size="14.00" fill="#000000"> &#160;Providers</text>
<polygon fill="#fb8072" stroke="transparent" points="611.5,-10 611.5,-30 631.5,-30 631.5,-10 611.5,-10"/>
<text text-anchor="start" x="635.2258" y="-15.4" font-family="sans-serif" font-size="14.00" fill="#000000"> &#160;Exports</text>
<g id="clust1" class="cluster">
<title>cluster_PublicModule</title>
<polygon fill="none" stroke="#000000" stroke-dasharray="1,5" points="8,-70 8,-268 899,-268 899,-70 8,-70"/>
</g>
<g id="clust2" class="cluster">
<title>cluster_PublicModule_declarations</title>
<polygon fill="none" stroke="#000000" points="296,-78 296,-130 891,-130 891,-78 296,-78"/>
</g>
<g id="clust7" class="cluster">
<title>cluster_PublicModule_imports</title>
<polygon fill="none" stroke="#000000" points="16,-78 16,-130 288,-130 288,-78 16,-78"/>
</g>
<g id="clust8" class="cluster">
<title>cluster_PublicModule_exports</title>
<polygon fill="none" stroke="#000000" points="133,-208 133,-260 743,-260 743,-208 133,-208"/>
</g>
<!-- HomeComponent -->
<g id="node1" class="node">
<title>HomeComponent</title>
<polygon fill="#ffffb3" stroke="#000000" points="882.5451,-122 767.4549,-122 767.4549,-86 882.5451,-86 882.5451,-122"/>
<text text-anchor="middle" x="825" y="-99.8" font-family="Times,serif" font-size="14.00" fill="#000000">HomeComponent</text>
</g>
<!-- PublicModule -->
<g id="node5" class="node">
<title>PublicModule</title>
<polygon fill="#8dd3c7" stroke="#000000" points="515.8288,-187 512.8288,-191 491.8288,-191 488.8288,-187 420.1712,-187 420.1712,-151 515.8288,-151 515.8288,-187"/>
<text text-anchor="middle" x="468" y="-164.8" font-family="Times,serif" font-size="14.00" fill="#000000">PublicModule</text>
</g>
<!-- HomeComponent&#45;&gt;PublicModule -->
<g id="edge1" class="edge">
<title>HomeComponent&#45;&gt;PublicModule</title>
<path fill="none" stroke="#000000" d="M825,-122.1061C825,-141.3391 825,-169 825,-169 825,-169 525.7762,-169 525.7762,-169"/>
<polygon fill="#000000" stroke="#000000" points="525.7762,-165.5001 515.7762,-169 525.7761,-172.5001 525.7762,-165.5001"/>
</g>
<!-- LoginComponent -->
<g id="node2" class="node">
<title>LoginComponent</title>
<polygon fill="#ffffb3" stroke="#000000" points="749.2758,-122 634.7242,-122 634.7242,-86 749.2758,-86 749.2758,-122"/>
<text text-anchor="middle" x="692" y="-99.8" font-family="Times,serif" font-size="14.00" fill="#000000">LoginComponent</text>
</g>
<!-- LoginComponent&#45;&gt;PublicModule -->
<g id="edge2" class="edge">
<title>LoginComponent&#45;&gt;PublicModule</title>
<path fill="none" stroke="#000000" d="M684.5672,-122.027C684.5672,-138.3976 684.5672,-160 684.5672,-160 684.5672,-160 525.7947,-160 525.7947,-160"/>
<polygon fill="#000000" stroke="#000000" points="525.7947,-156.5001 515.7947,-160 525.7946,-163.5001 525.7947,-156.5001"/>
</g>
<!-- LogoutComponent -->
<g id="node3" class="node">
<title>LogoutComponent</title>
<polygon fill="#ffffb3" stroke="#000000" points="616.7758,-122 495.2242,-122 495.2242,-86 616.7758,-86 616.7758,-122"/>
<text text-anchor="middle" x="556" y="-99.8" font-family="Times,serif" font-size="14.00" fill="#000000">LogoutComponent</text>
</g>
<!-- LogoutComponent&#45;&gt;PublicModule -->
<g id="edge3" class="edge">
<title>LogoutComponent&#45;&gt;PublicModule</title>
<path fill="none" stroke="#000000" d="M505.3882,-122.1061C505.3882,-122.1061 505.3882,-140.991 505.3882,-140.991"/>
<polygon fill="#000000" stroke="#000000" points="501.8882,-140.9909 505.3882,-150.991 508.8882,-140.991 501.8882,-140.9909"/>
</g>
<!-- UnauthenticatedComponent -->
<g id="node4" class="node">
<title>UnauthenticatedComponent</title>
<polygon fill="#ffffb3" stroke="#000000" points="477.5744,-122 304.4256,-122 304.4256,-86 477.5744,-86 477.5744,-122"/>
<text text-anchor="middle" x="391" y="-99.8" font-family="Times,serif" font-size="14.00" fill="#000000">UnauthenticatedComponent</text>
</g>
<!-- UnauthenticatedComponent&#45;&gt;PublicModule -->
<g id="edge4" class="edge">
<title>UnauthenticatedComponent&#45;&gt;PublicModule</title>
<path fill="none" stroke="#000000" d="M448.9366,-122.1061C448.9366,-122.1061 448.9366,-140.991 448.9366,-140.991"/>
<polygon fill="#000000" stroke="#000000" points="445.4366,-140.9909 448.9366,-150.991 452.4366,-140.991 445.4366,-140.9909"/>
</g>
<!-- HomeComponent  -->
<g id="node8" class="node">
<title>HomeComponent </title>
<polygon fill="#fb8072" stroke="#000000" points="734.5442,-252 615.4558,-252 615.4558,-216 734.5442,-216 734.5442,-252"/>
<text text-anchor="middle" x="675" y="-229.8" font-family="Times,serif" font-size="14.00" fill="#000000">HomeComponent </text>
</g>
<!-- PublicModule&#45;&gt;HomeComponent  -->
<g id="edge7" class="edge">
<title>PublicModule&#45;&gt;HomeComponent </title>
<path fill="none" stroke="#000000" stroke-dasharray="5,2" d="M515.7583,-178C562.1882,-178 625.75,-178 625.75,-178 625.75,-178 625.75,-205.973 625.75,-205.973"/>
<polygon fill="#000000" stroke="#000000" points="622.2501,-205.973 625.75,-215.973 629.2501,-205.973 622.2501,-205.973"/>
</g>
<!-- LoginComponent  -->
<g id="node9" class="node">
<title>LoginComponent </title>
<polygon fill="#fb8072" stroke="#000000" points="597.2759,-252 478.7241,-252 478.7241,-216 597.2759,-216 597.2759,-252"/>
<text text-anchor="middle" x="538" y="-229.8" font-family="Times,serif" font-size="14.00" fill="#000000">LoginComponent </text>
</g>
<!-- PublicModule&#45;&gt;LoginComponent  -->
<g id="edge8" class="edge">
<title>PublicModule&#45;&gt;LoginComponent </title>
<path fill="none" stroke="#000000" stroke-dasharray="5,2" d="M497.2632,-187.1061C497.2632,-187.1061 497.2632,-205.991 497.2632,-205.991"/>
<polygon fill="#000000" stroke="#000000" points="493.7632,-205.9909 497.2632,-215.991 500.7632,-205.991 493.7632,-205.9909"/>
</g>
<!-- LogoutComponent  -->
<g id="node10" class="node">
<title>LogoutComponent </title>
<polygon fill="#fb8072" stroke="#000000" points="460.7759,-252 335.2241,-252 335.2241,-216 460.7759,-216 460.7759,-252"/>
<text text-anchor="middle" x="398" y="-229.8" font-family="Times,serif" font-size="14.00" fill="#000000">LogoutComponent </text>
</g>
<!-- PublicModule&#45;&gt;LogoutComponent  -->
<g id="edge9" class="edge">
<title>PublicModule&#45;&gt;LogoutComponent </title>
<path fill="none" stroke="#000000" stroke-dasharray="5,2" d="M440.4869,-187.1061C440.4869,-187.1061 440.4869,-205.991 440.4869,-205.991"/>
<polygon fill="#000000" stroke="#000000" points="436.9869,-205.9909 440.4869,-215.991 443.9869,-205.991 436.9869,-205.9909"/>
</g>
<!-- UnauthenticatedComponent  -->
<g id="node11" class="node">
<title>UnauthenticatedComponent </title>
<polygon fill="#fb8072" stroke="#000000" points="317.0749,-252 140.9251,-252 140.9251,-216 317.0749,-216 317.0749,-252"/>
<text text-anchor="middle" x="229" y="-229.8" font-family="Times,serif" font-size="14.00" fill="#000000">UnauthenticatedComponent </text>
</g>
<!-- PublicModule&#45;&gt;UnauthenticatedComponent  -->
<g id="edge10" class="edge">
<title>PublicModule&#45;&gt;UnauthenticatedComponent </title>
<path fill="none" stroke="#000000" stroke-dasharray="5,2" d="M420.0036,-178C373.796,-178 310.875,-178 310.875,-178 310.875,-178 310.875,-205.973 310.875,-205.973"/>
<polygon fill="#000000" stroke="#000000" points="307.3751,-205.973 310.875,-215.973 314.3751,-205.973 307.3751,-205.973"/>
</g>
<!-- PublicRoutingModule -->
<g id="node6" class="node">
<title>PublicRoutingModule</title>
<polygon fill="#8dd3c7" stroke="#000000" points="280.4467,-122 277.4467,-126 256.4467,-126 253.4467,-122 139.5533,-122 139.5533,-86 280.4467,-86 280.4467,-122"/>
<text text-anchor="middle" x="210" y="-99.8" font-family="Times,serif" font-size="14.00" fill="#000000">PublicRoutingModule</text>
</g>
<!-- PublicRoutingModule&#45;&gt;PublicModule -->
<g id="edge5" class="edge">
<title>PublicRoutingModule&#45;&gt;PublicModule</title>
<path fill="none" stroke="#000000" d="M210.4679,-122.027C210.4679,-138.3976 210.4679,-160 210.4679,-160 210.4679,-160 410.1637,-160 410.1637,-160"/>
<polygon fill="#000000" stroke="#000000" points="410.1638,-163.5001 420.1637,-160 410.1637,-156.5001 410.1638,-163.5001"/>
</g>
<!-- SharedModule -->
<g id="node7" class="node">
<title>SharedModule</title>
<polygon fill="#8dd3c7" stroke="#000000" points="122.4231,-122 119.4231,-126 98.4231,-126 95.4231,-122 23.5769,-122 23.5769,-86 122.4231,-86 122.4231,-122"/>
<text text-anchor="middle" x="73" y="-99.8" font-family="Times,serif" font-size="14.00" fill="#000000">SharedModule</text>
</g>
<!-- SharedModule&#45;&gt;PublicModule -->
<g id="edge6" class="edge">
<title>SharedModule&#45;&gt;PublicModule</title>
<path fill="none" stroke="#000000" d="M73,-122.1061C73,-141.3391 73,-169 73,-169 73,-169 409.9601,-169 409.9601,-169"/>
<polygon fill="#000000" stroke="#000000" points="409.9602,-172.5001 419.9601,-169 409.9601,-165.5001 409.9602,-172.5001"/>
</g>
</g>
</svg>
