<?xml version="1.0" encoding="UTF-8" standalone="no"?>
<!DOCTYPE svg PUBLIC "-//W3C//DTD SVG 1.1//EN"
 "http://www.w3.org/Graphics/SVG/1.1/DTD/svg11.dtd">
<!-- Generated by graphviz version 2.40.1 (20161225.0304)
 -->
<!-- Title: dependencies Pages: 1 -->
<svg width="1777pt" height="211pt"
 viewBox="0.00 0.00 1777.00 211.00" xmlns="http://www.w3.org/2000/svg" xmlns:xlink="http://www.w3.org/1999/xlink">
<g id="graph0" class="graph" transform="scale(1 1) rotate(0) translate(4 207)">
<title>dependencies</title>
<polygon fill="#ffffff" stroke="transparent" points="-4,4 -4,-207 1773,-207 1773,4 -4,4"/>
<text text-anchor="start" x="863.5091" y="-42.4" font-family="sans-serif" font-weight="bold" font-size="14.00" fill="#000000">Legend</text>
<polygon fill="#ffffb3" stroke="transparent" points="650.5,-10 650.5,-30 670.5,-30 670.5,-10 650.5,-10"/>
<text text-anchor="start" x="674.129" y="-15.4" font-family="sans-serif" font-size="14.00" fill="#000000"> &#160;Declarations</text>
<polygon fill="#8dd3c7" stroke="transparent" points="763.5,-10 763.5,-30 783.5,-30 783.5,-10 763.5,-10"/>
<text text-anchor="start" x="787.2251" y="-15.4" font-family="sans-serif" font-size="14.00" fill="#000000"> &#160;Module</text>
<polygon fill="#80b1d3" stroke="transparent" points="849.5,-10 849.5,-30 869.5,-30 869.5,-10 849.5,-10"/>
<text text-anchor="start" x="873.2812" y="-15.4" font-family="sans-serif" font-size="14.00" fill="#000000"> &#160;Bootstrap</text>
<polygon fill="#fdb462" stroke="transparent" points="946.5,-10 946.5,-30 966.5,-30 966.5,-10 946.5,-10"/>
<text text-anchor="start" x="970.1732" y="-15.4" font-family="sans-serif" font-size="14.00" fill="#000000"> &#160;Providers</text>
<polygon fill="#fb8072" stroke="transparent" points="1042.5,-10 1042.5,-30 1062.5,-30 1062.5,-10 1042.5,-10"/>
<text text-anchor="start" x="1066.2258" y="-15.4" font-family="sans-serif" font-size="14.00" fill="#000000"> &#160;Exports</text>
<g id="clust1" class="cluster">
<title>cluster_DevicesModule</title>
<polygon fill="none" stroke="#000000" stroke-dasharray="1,5" points="8,-70 8,-195 1761,-195 1761,-70 8,-70"/>
</g>
<g id="clust2" class="cluster">
<title>cluster_DevicesModule_declarations</title>
<polygon fill="none" stroke="#000000" points="724,-78 724,-130 1753,-130 1753,-78 724,-78"/>
</g>
<g id="clust9" class="cluster">
<title>cluster_DevicesModule_imports</title>
<polygon fill="none" stroke="#000000" points="196,-78 196,-130 716,-130 716,-78 196,-78"/>
</g>
<g id="clust12" class="cluster">
<title>cluster_DevicesModule_providers</title>
<polygon fill="none" stroke="#000000" points="16,-78 16,-130 188,-130 188,-78 16,-78"/>
</g>
<!-- DetailDeviceComponent -->
<g id="node1" class="node">
<title>DetailDeviceComponent</title>
<polygon fill="#ffffb3" stroke="#000000" points="1744.6811,-122 1589.3189,-122 1589.3189,-86 1744.6811,-86 1744.6811,-122"/>
<text text-anchor="middle" x="1667" y="-99.8" font-family="Times,serif" font-size="14.00" fill="#000000">DetailDeviceComponent</text>
</g>
<!-- DevicesModule -->
<g id="node7" class="node">
<title>DevicesModule</title>
<polygon fill="#8dd3c7" stroke="#000000" points="848.136,-187 845.136,-191 824.136,-191 821.136,-187 743.864,-187 743.864,-151 848.136,-151 848.136,-187"/>
<text text-anchor="middle" x="796" y="-164.8" font-family="Times,serif" font-size="14.00" fill="#000000">DevicesModule</text>
</g>
<!-- DetailDeviceComponent&#45;&gt;DevicesModule -->
<g id="edge1" class="edge">
<title>DetailDeviceComponent&#45;&gt;DevicesModule</title>
<path fill="none" stroke="#000000" d="M1667,-122.0908C1667,-145.1328 1667,-182 1667,-182 1667,-182 858.1996,-182 858.1996,-182"/>
<polygon fill="#000000" stroke="#000000" points="858.1996,-178.5001 848.1996,-182 858.1996,-185.5001 858.1996,-178.5001"/>
</g>
<!-- ListDevicesComponent -->
<g id="node2" class="node">
<title>ListDevicesComponent</title>
<polygon fill="#ffffb3" stroke="#000000" points="1571.1965,-122 1422.8035,-122 1422.8035,-86 1571.1965,-86 1571.1965,-122"/>
<text text-anchor="middle" x="1497" y="-99.8" font-family="Times,serif" font-size="14.00" fill="#000000">ListDevicesComponent</text>
</g>
<!-- ListDevicesComponent&#45;&gt;DevicesModule -->
<g id="edge2" class="edge">
<title>ListDevicesComponent&#45;&gt;DevicesModule</title>
<path fill="none" stroke="#000000" d="M1497,-122.2843C1497,-143.3211 1497,-175 1497,-175 1497,-175 858.4022,-175 858.4022,-175"/>
<polygon fill="#000000" stroke="#000000" points="858.4023,-171.5001 848.4022,-175 858.4022,-178.5001 858.4023,-171.5001"/>
</g>
<!-- MeteoStationComponent -->
<g id="node3" class="node">
<title>MeteoStationComponent</title>
<polygon fill="#ffffb3" stroke="#000000" points="1405.266,-122 1248.734,-122 1248.734,-86 1405.266,-86 1405.266,-122"/>
<text text-anchor="middle" x="1327" y="-99.8" font-family="Times,serif" font-size="14.00" fill="#000000">MeteoStationComponent</text>
</g>
<!-- MeteoStationComponent&#45;&gt;DevicesModule -->
<g id="edge3" class="edge">
<title>MeteoStationComponent&#45;&gt;DevicesModule</title>
<path fill="none" stroke="#000000" d="M1327,-122.1061C1327,-141.3391 1327,-169 1327,-169 1327,-169 858.3675,-169 858.3675,-169"/>
<polygon fill="#000000" stroke="#000000" points="858.3676,-165.5001 848.3675,-169 858.3675,-172.5001 858.3676,-165.5001"/>
</g>
<!-- MeteoStatsComponent -->
<g id="node4" class="node">
<title>MeteoStatsComponent</title>
<polygon fill="#ffffb3" stroke="#000000" points="1230.3202,-122 1085.6798,-122 1085.6798,-86 1230.3202,-86 1230.3202,-122"/>
<text text-anchor="middle" x="1158" y="-99.8" font-family="Times,serif" font-size="14.00" fill="#000000">MeteoStatsComponent</text>
</g>
<!-- MeteoStatsComponent&#45;&gt;DevicesModule -->
<g id="edge4" class="edge">
<title>MeteoStatsComponent&#45;&gt;DevicesModule</title>
<path fill="none" stroke="#000000" d="M1158,-122.0225C1158,-139.3734 1158,-163 1158,-163 1158,-163 858.2513,-163 858.2513,-163"/>
<polygon fill="#000000" stroke="#000000" points="858.2513,-159.5001 848.2513,-163 858.2513,-166.5001 858.2513,-159.5001"/>
</g>
<!-- MeteoStatsGraphicComponent -->
<g id="node5" class="node">
<title>MeteoStatsGraphicComponent</title>
<polygon fill="#ffffb3" stroke="#000000" points="1067.9072,-122 878.0928,-122 878.0928,-86 1067.9072,-86 1067.9072,-122"/>
<text text-anchor="middle" x="973" y="-99.8" font-family="Times,serif" font-size="14.00" fill="#000000">MeteoStatsGraphicComponent</text>
</g>
<!-- MeteoStatsGraphicComponent&#45;&gt;DevicesModule -->
<g id="edge5" class="edge">
<title>MeteoStatsGraphicComponent&#45;&gt;DevicesModule</title>
<path fill="none" stroke="#000000" d="M973,-122.2396C973,-137.5706 973,-157 973,-157 973,-157 858.1485,-157 858.1485,-157"/>
<polygon fill="#000000" stroke="#000000" points="858.1485,-153.5001 848.1485,-157 858.1485,-160.5001 858.1485,-153.5001"/>
</g>
<!-- PlayLedComponent -->
<g id="node6" class="node">
<title>PlayLedComponent</title>
<polygon fill="#ffffb3" stroke="#000000" points="859.9874,-122 732.0126,-122 732.0126,-86 859.9874,-86 859.9874,-122"/>
<text text-anchor="middle" x="796" y="-99.8" font-family="Times,serif" font-size="14.00" fill="#000000">PlayLedComponent</text>
</g>
<!-- PlayLedComponent&#45;&gt;DevicesModule -->
<g id="edge6" class="edge">
<title>PlayLedComponent&#45;&gt;DevicesModule</title>
<path fill="none" stroke="#000000" d="M796,-122.1061C796,-122.1061 796,-140.991 796,-140.991"/>
<polygon fill="#000000" stroke="#000000" points="792.5001,-140.9909 796,-150.991 799.5001,-140.991 792.5001,-140.9909"/>
</g>
<!-- DeviceRoutingModule -->
<g id="node8" class="node">
<title>DeviceRoutingModule</title>
<polygon fill="#8dd3c7" stroke="#000000" points="708.3089,-122 705.3089,-126 684.3089,-126 681.3089,-122 563.6911,-122 563.6911,-86 708.3089,-86 708.3089,-122"/>
<text text-anchor="middle" x="636" y="-99.8" font-family="Times,serif" font-size="14.00" fill="#000000">DeviceRoutingModule</text>
</g>
<!-- DeviceRoutingModule&#45;&gt;DevicesModule -->
<g id="edge7" class="edge">
<title>DeviceRoutingModule&#45;&gt;DevicesModule</title>
<path fill="none" stroke="#000000" d="M636,-122.2396C636,-137.5706 636,-157 636,-157 636,-157 733.61,-157 733.61,-157"/>
<polygon fill="#000000" stroke="#000000" points="733.6101,-160.5001 743.61,-157 733.61,-153.5001 733.6101,-160.5001"/>
</g>
<!-- ForecastModule -->
<g id="node9" class="node">
<title>ForecastModule</title>
<polygon fill="#8dd3c7" stroke="#000000" points="545.472,-122 542.472,-126 521.472,-126 518.472,-122 438.528,-122 438.528,-86 545.472,-86 545.472,-122"/>
<text text-anchor="middle" x="492" y="-99.8" font-family="Times,serif" font-size="14.00" fill="#000000">ForecastModule</text>
</g>
<!-- ForecastModule&#45;&gt;DevicesModule -->
<g id="edge8" class="edge">
<title>ForecastModule&#45;&gt;DevicesModule</title>
<path fill="none" stroke="#000000" d="M492,-122.0225C492,-139.3734 492,-163 492,-163 492,-163 733.7405,-163 733.7405,-163"/>
<polygon fill="#000000" stroke="#000000" points="733.7406,-166.5001 743.7405,-163 733.7405,-159.5001 733.7406,-166.5001"/>
</g>
<!-- SharedModule -->
<g id="node10" class="node">
<title>SharedModule</title>
<polygon fill="#8dd3c7" stroke="#000000" points="420.4231,-122 417.4231,-126 396.4231,-126 393.4231,-122 321.5769,-122 321.5769,-86 420.4231,-86 420.4231,-122"/>
<text text-anchor="middle" x="371" y="-99.8" font-family="Times,serif" font-size="14.00" fill="#000000">SharedModule</text>
</g>
<!-- SharedModule&#45;&gt;DevicesModule -->
<g id="edge9" class="edge">
<title>SharedModule&#45;&gt;DevicesModule</title>
<path fill="none" stroke="#000000" d="M371,-122.1061C371,-141.3391 371,-169 371,-169 371,-169 733.4604,-169 733.4604,-169"/>
<polygon fill="#000000" stroke="#000000" points="733.4604,-172.5001 743.4604,-169 733.4604,-165.5001 733.4604,-172.5001"/>
</g>
<!-- StationModule -->
<g id="node11" class="node">
<title>StationModule</title>
<polygon fill="#8dd3c7" stroke="#000000" points="303.719,-122 300.719,-126 279.719,-126 276.719,-122 204.281,-122 204.281,-86 303.719,-86 303.719,-122"/>
<text text-anchor="middle" x="254" y="-99.8" font-family="Times,serif" font-size="14.00" fill="#000000">StationModule</text>
</g>
<!-- StationModule&#45;&gt;DevicesModule -->
<g id="edge10" class="edge">
<title>StationModule&#45;&gt;DevicesModule</title>
<path fill="none" stroke="#000000" d="M254,-122.2843C254,-143.3211 254,-175 254,-175 254,-175 733.5383,-175 733.5383,-175"/>
<polygon fill="#000000" stroke="#000000" points="733.5383,-178.5001 743.5383,-175 733.5383,-171.5001 733.5383,-178.5001"/>
</g>
<!-- TokenInterceptor -->
<g id="node12" class="node">
<title>TokenInterceptor</title>
<ellipse fill="#fdb462" stroke="#000000" cx="102" cy="-104" rx="78.1308" ry="18"/>
<text text-anchor="middle" x="102" y="-99.8" font-family="Times,serif" font-size="14.00" fill="#000000">TokenInterceptor</text>
</g>
<!-- TokenInterceptor&#45;&gt;DevicesModule -->
<g id="edge11" class="edge">
<title>TokenInterceptor&#45;&gt;DevicesModule</title>
<path fill="none" stroke="#000000" d="M102,-122.0908C102,-145.1328 102,-182 102,-182 102,-182 733.8372,-182 733.8372,-182"/>
<polygon fill="#000000" stroke="#000000" points="733.8372,-185.5001 743.8372,-182 733.8372,-178.5001 733.8372,-185.5001"/>
</g>
</g>
</svg>
