<?xml version="1.0" encoding="UTF-8" standalone="no"?>
<!DOCTYPE svg PUBLIC "-//W3C//DTD SVG 1.1//EN"
 "http://www.w3.org/Graphics/SVG/1.1/DTD/svg11.dtd">
<!-- Generated by graphviz version 2.40.1 (20161225.0304)
 -->
<!-- Title: dependencies Pages: 1 -->
<svg width="3427pt" height="363pt"
 viewBox="0.00 0.00 3427.00 363.00" xmlns="http://www.w3.org/2000/svg" xmlns:xlink="http://www.w3.org/1999/xlink">
<g id="graph0" class="graph" transform="scale(1 1) rotate(0) translate(4 359)">
<title>dependencies</title>
<polygon fill="#ffffff" stroke="transparent" points="-4,4 -4,-359 3423,-359 3423,4 -4,4"/>
<text text-anchor="start" x="1688.5091" y="-42.4" font-family="sans-serif" font-weight="bold" font-size="14.00" fill="#000000">Legend</text>
<polygon fill="#ffffb3" stroke="transparent" points="1475.5,-10 1475.5,-30 1495.5,-30 1495.5,-10 1475.5,-10"/>
<text text-anchor="start" x="1499.129" y="-15.4" font-family="sans-serif" font-size="14.00" fill="#000000"> &#160;Declarations</text>
<polygon fill="#8dd3c7" stroke="transparent" points="1588.5,-10 1588.5,-30 1608.5,-30 1608.5,-10 1588.5,-10"/>
<text text-anchor="start" x="1612.2251" y="-15.4" font-family="sans-serif" font-size="14.00" fill="#000000"> &#160;Module</text>
<polygon fill="#80b1d3" stroke="transparent" points="1674.5,-10 1674.5,-30 1694.5,-30 1694.5,-10 1674.5,-10"/>
<text text-anchor="start" x="1698.2812" y="-15.4" font-family="sans-serif" font-size="14.00" fill="#000000"> &#160;Bootstrap</text>
<polygon fill="#fdb462" stroke="transparent" points="1771.5,-10 1771.5,-30 1791.5,-30 1791.5,-10 1771.5,-10"/>
<text text-anchor="start" x="1795.1732" y="-15.4" font-family="sans-serif" font-size="14.00" fill="#000000"> &#160;Providers</text>
<polygon fill="#fb8072" stroke="transparent" points="1867.5,-10 1867.5,-30 1887.5,-30 1887.5,-10 1867.5,-10"/>
<text text-anchor="start" x="1891.2258" y="-15.4" font-family="sans-serif" font-size="14.00" fill="#000000"> &#160;Exports</text>
<g id="clust1" class="cluster">
<title>cluster_AppModule</title>
<polygon fill="none" stroke="#000000" stroke-dasharray="1,5" points="8,-70 8,-347 403,-347 403,-70 8,-70"/>
</g>
<g id="clust2" class="cluster">
<title>cluster_AppModule_declarations</title>
<polygon fill="none" stroke="#000000" points="16,-143 16,-195 138,-195 138,-143 16,-143"/>
</g>
<g id="clust4" class="cluster">
<title>cluster_AppModule_imports</title>
<polygon fill="none" stroke="#000000" points="146,-78 146,-195 395,-195 395,-78 146,-78"/>
</g>
<g id="clust6" class="cluster">
<title>cluster_AppModule_bootstrap</title>
<polygon fill="none" stroke="#000000" points="178,-287 178,-339 302,-339 302,-287 178,-287"/>
</g>
<g id="clust14" class="cluster">
<title>cluster_CoreModule</title>
<polygon fill="none" stroke="#000000" stroke-dasharray="1,5" points="2253,-211 2253,-279 2511,-279 2511,-211 2253,-211"/>
</g>
<g id="clust16" class="cluster">
<title>cluster_CoreModule_imports</title>
<polygon fill="none" stroke="#000000" points="2261,-219 2261,-271 2503,-271 2503,-219 2261,-219"/>
</g>
<g id="clust26" class="cluster">
<title>cluster_DevicesModule</title>
<polygon fill="none" stroke="#000000" stroke-dasharray="1,5" points="998,-211 998,-339 2245,-339 2245,-211 998,-211"/>
</g>
<g id="clust27" class="cluster">
<title>cluster_DevicesModule_declarations</title>
<polygon fill="none" stroke="#000000" points="1417,-219 1417,-271 2237,-271 2237,-219 1417,-219"/>
</g>
<g id="clust33" class="cluster">
<title>cluster_DevicesModule_imports</title>
<polygon fill="none" stroke="#000000" points="1006,-219 1006,-271 1409,-271 1409,-219 1006,-219"/>
</g>
<g id="clust37" class="cluster">
<title>cluster_ForecastModule</title>
<polygon fill="none" stroke="#000000" stroke-dasharray="1,5" points="586,-135 586,-203 970,-203 970,-135 586,-135"/>
</g>
<g id="clust38" class="cluster">
<title>cluster_ForecastModule_declarations</title>
<polygon fill="none" stroke="#000000" points="784,-143 784,-195 962,-195 962,-143 784,-143"/>
</g>
<g id="clust41" class="cluster">
<title>cluster_ForecastModule_exports</title>
<polygon fill="none" stroke="#000000" points="594,-143 594,-195 776,-195 776,-143 594,-143"/>
</g>
<g id="clust44" class="cluster">
<title>cluster_ProtectedModule</title>
<polygon fill="none" stroke="#000000" stroke-dasharray="1,5" points="3221,-135 3221,-203 3411,-203 3411,-135 3221,-135"/>
</g>
<g id="clust46" class="cluster">
<title>cluster_ProtectedModule_imports</title>
<polygon fill="none" stroke="#000000" points="3229,-143 3229,-195 3403,-195 3403,-143 3229,-143"/>
</g>
<g id="clust56" class="cluster">
<title>cluster_PublicModule</title>
<polygon fill="none" stroke="#000000" stroke-dasharray="1,5" points="1820,-135 1820,-203 3213,-203 3213,-135 1820,-135"/>
</g>
<g id="clust57" class="cluster">
<title>cluster_PublicModule_declarations</title>
<polygon fill="none" stroke="#000000" points="2610,-143 2610,-195 3205,-195 3205,-143 2610,-143"/>
</g>
<g id="clust62" class="cluster">
<title>cluster_PublicModule_imports</title>
<polygon fill="none" stroke="#000000" points="2446,-143 2446,-195 2602,-195 2602,-143 2446,-143"/>
</g>
<g id="clust63" class="cluster">
<title>cluster_PublicModule_exports</title>
<polygon fill="none" stroke="#000000" points="1828,-143 1828,-195 2438,-195 2438,-143 1828,-143"/>
</g>
<g id="clust72" class="cluster">
<title>cluster_SharedModule</title>
<polygon fill="none" stroke="#000000" stroke-dasharray="1,5" points="411,-211 411,-279 990,-279 990,-211 411,-211"/>
</g>
<g id="clust73" class="cluster">
<title>cluster_SharedModule_declarations</title>
<polygon fill="none" stroke="#000000" points="708,-219 708,-271 982,-271 982,-219 708,-219"/>
</g>
<g id="clust77" class="cluster">
<title>cluster_SharedModule_exports</title>
<polygon fill="none" stroke="#000000" points="419,-219 419,-271 700,-271 700,-219 419,-219"/>
</g>
<g id="clust80" class="cluster">
<title>cluster_StationModule</title>
<polygon fill="none" stroke="#000000" stroke-dasharray="1,5" points="978,-135 978,-203 1746,-203 1746,-135 978,-135"/>
</g>
<g id="clust81" class="cluster">
<title>cluster_StationModule_declarations</title>
<polygon fill="none" stroke="#000000" points="1369,-143 1369,-195 1738,-195 1738,-143 1369,-143"/>
</g>
<g id="clust85" class="cluster">
<title>cluster_StationModule_exports</title>
<polygon fill="none" stroke="#000000" points="986,-143 986,-195 1361,-195 1361,-143 986,-143"/>
</g>
<!-- AppComponent -->
<g id="node1" class="node">
<title>AppComponent</title>
<polygon fill="#ffffb3" stroke="#000000" points="129.9399,-187 24.0601,-187 24.0601,-151 129.9399,-151 129.9399,-187"/>
<text text-anchor="middle" x="77" y="-164.8" font-family="Times,serif" font-size="14.00" fill="#000000">AppComponent</text>
</g>
<!-- AppModule -->
<g id="node2" class="node">
<title>AppModule</title>
<polygon fill="#8dd3c7" stroke="#000000" points="281.6571,-263 278.6571,-267 257.6571,-267 254.6571,-263 198.3429,-263 198.3429,-227 281.6571,-227 281.6571,-263"/>
<text text-anchor="middle" x="240" y="-240.8" font-family="Times,serif" font-size="14.00" fill="#000000">AppModule</text>
</g>
<!-- AppComponent&#45;&gt;AppModule -->
<g id="edge1" class="edge">
<title>AppComponent&#45;&gt;AppModule</title>
<path fill="none" stroke="#000000" d="M129.9225,-163C168.8119,-163 214.9031,-163 214.9031,-163 214.9031,-163 214.9031,-216.8015 214.9031,-216.8015"/>
<polygon fill="#000000" stroke="#000000" points="211.4032,-216.8015 214.9031,-226.8015 218.4032,-216.8016 211.4032,-216.8015"/>
</g>
<!-- AppComponent  -->
<g id="node6" class="node">
<title>AppComponent </title>
<polygon fill="#80b1d3" stroke="#000000" points="294.439,-331 185.561,-331 185.561,-295 294.439,-295 294.439,-331"/>
<text text-anchor="middle" x="240" y="-308.8" font-family="Times,serif" font-size="14.00" fill="#000000">AppComponent </text>
</g>
<!-- AppModule&#45;&gt;AppComponent  -->
<g id="edge5" class="edge">
<title>AppModule&#45;&gt;AppComponent </title>
<path fill="none" stroke="#000000" stroke-dasharray="1,5" d="M240,-263.2228C240,-263.2228 240,-284.7269 240,-284.7269"/>
<polygon fill="#000000" stroke="#000000" points="236.5001,-284.7269 240,-294.7269 243.5001,-284.727 236.5001,-284.7269"/>
</g>
<!-- AppRoutingModule -->
<g id="node3" class="node">
<title>AppRoutingModule</title>
<polygon fill="#8dd3c7" stroke="#000000" points="282.2744,-122 279.2744,-126 258.2744,-126 255.2744,-122 153.7256,-122 153.7256,-86 282.2744,-86 282.2744,-122"/>
<text text-anchor="middle" x="218" y="-99.8" font-family="Times,serif" font-size="14.00" fill="#000000">AppRoutingModule</text>
</g>
<!-- AppRoutingModule&#45;&gt;AppModule -->
<g id="edge2" class="edge">
<title>AppRoutingModule&#45;&gt;AppModule</title>
<path fill="none" stroke="#000000" d="M231.6344,-122.1446C231.6344,-122.1446 231.6344,-216.925 231.6344,-216.925"/>
<polygon fill="#000000" stroke="#000000" points="228.1345,-216.925 231.6344,-226.925 235.1345,-216.925 228.1345,-216.925"/>
</g>
<!-- SharedModule -->
<g id="node5" class="node">
<title>SharedModule</title>
<polygon fill="#8dd3c7" stroke="#000000" points="387.4231,-187 384.4231,-191 363.4231,-191 360.4231,-187 288.5769,-187 288.5769,-151 387.4231,-151 387.4231,-187"/>
<text text-anchor="middle" x="338" y="-164.8" font-family="Times,serif" font-size="14.00" fill="#000000">SharedModule</text>
</g>
<!-- AppRoutingModule&#45;&gt;SharedModule -->
<g id="edge36" class="edge">
<title>AppRoutingModule&#45;&gt;SharedModule</title>
<path fill="none" stroke="#000000" d="M282.3802,-104C289.7591,-104 294.7041,-104 294.7041,-104 294.7041,-104 294.7041,-140.8939 294.7041,-140.8939"/>
<polygon fill="#000000" stroke="#000000" points="291.2041,-140.8938 294.7041,-150.8939 298.2041,-140.8939 291.2041,-140.8938"/>
</g>
<!-- CoreModule -->
<g id="node4" class="node">
<title>CoreModule</title>
<polygon fill="#8dd3c7" stroke="#000000" points="387.2619,-122 384.2619,-126 363.2619,-126 360.2619,-122 300.7381,-122 300.7381,-86 387.2619,-86 387.2619,-122"/>
<text text-anchor="middle" x="344" y="-99.8" font-family="Times,serif" font-size="14.00" fill="#000000">CoreModule</text>
</g>
<!-- CoreModule&#45;&gt;AppModule -->
<g id="edge3" class="edge">
<title>CoreModule&#45;&gt;AppModule</title>
<path fill="none" stroke="#000000" d="M343.9152,-122.0449C343.9152,-129.749 343.9152,-137 343.9152,-137 343.9152,-137 248.3656,-137 248.3656,-137 248.3656,-137 248.3656,-216.6793 248.3656,-216.6793"/>
<polygon fill="#000000" stroke="#000000" points="244.8657,-216.6792 248.3656,-226.6793 251.8657,-216.6793 244.8657,-216.6792"/>
</g>
<!-- SharedModule&#45;&gt;AppModule -->
<g id="edge4" class="edge">
<title>SharedModule&#45;&gt;AppModule</title>
<path fill="none" stroke="#000000" d="M288.5652,-175C275.5636,-175 265.0969,-175 265.0969,-175 265.0969,-175 265.0969,-216.9733 265.0969,-216.9733"/>
<polygon fill="#000000" stroke="#000000" points="261.597,-216.9732 265.0969,-226.9733 268.597,-216.9733 261.597,-216.9732"/>
</g>
<!-- ProtectedModule -->
<g id="node7" class="node">
<title>ProtectedModule</title>
<polygon fill="#8dd3c7" stroke="#000000" points="2381.4188,-263 2378.4188,-267 2357.4188,-267 2354.4188,-263 2268.5812,-263 2268.5812,-227 2381.4188,-227 2381.4188,-263"/>
<text text-anchor="middle" x="2325" y="-240.8" font-family="Times,serif" font-size="14.00" fill="#000000">ProtectedModule</text>
</g>
<!-- SharedModule&#45;&gt;ProtectedModule -->
<g id="edge23" class="edge">
<title>SharedModule&#45;&gt;ProtectedModule</title>
<path fill="none" stroke="#000000" d="M325.3834,-187.0439C325.3834,-199.5633 325.3834,-214 325.3834,-214 325.3834,-214 2276.5733,-214 2276.5733,-214 2276.5733,-214 2276.5733,-216.9672 2276.5733,-216.9672"/>
<polygon fill="#000000" stroke="#000000" points="2273.0734,-216.9671 2276.5733,-226.9672 2280.0734,-216.9672 2273.0734,-216.9671"/>
</g>
<!-- PublicModule -->
<g id="node8" class="node">
<title>PublicModule</title>
<polygon fill="#8dd3c7" stroke="#000000" points="2494.8288,-263 2491.8288,-267 2470.8288,-267 2467.8288,-263 2399.1712,-263 2399.1712,-227 2494.8288,-227 2494.8288,-263"/>
<text text-anchor="middle" x="2447" y="-240.8" font-family="Times,serif" font-size="14.00" fill="#000000">PublicModule</text>
</g>
<!-- SharedModule&#45;&gt;PublicModule -->
<g id="edge29" class="edge">
<title>SharedModule&#45;&gt;PublicModule</title>
<path fill="none" stroke="#000000" d="M335.688,-187.0555C335.688,-198.439 335.688,-211 335.688,-211 335.688,-211 2404.3669,-211 2404.3669,-211 2404.3669,-211 2404.3669,-216.8056 2404.3669,-216.8056"/>
<polygon fill="#000000" stroke="#000000" points="2400.867,-216.8055 2404.3669,-226.8056 2407.867,-216.8056 2400.867,-216.8055"/>
</g>
<!-- DevicesModule -->
<g id="node14" class="node">
<title>DevicesModule</title>
<polygon fill="#8dd3c7" stroke="#000000" points="1725.136,-331 1722.136,-335 1701.136,-335 1698.136,-331 1620.864,-331 1620.864,-295 1725.136,-295 1725.136,-331"/>
<text text-anchor="middle" x="1673" y="-308.8" font-family="Times,serif" font-size="14.00" fill="#000000">DevicesModule</text>
</g>
<!-- SharedModule&#45;&gt;DevicesModule -->
<g id="edge16" class="edge">
<title>SharedModule&#45;&gt;DevicesModule</title>
<path fill="none" stroke="#000000" d="M345.9926,-187.2005C345.9926,-228.3516 345.9926,-325 345.9926,-325 345.9926,-325 1610.571,-325 1610.571,-325"/>
<polygon fill="#000000" stroke="#000000" points="1610.571,-328.5001 1620.571,-325 1610.571,-321.5001 1610.571,-328.5001"/>
</g>
<!-- ForecastModule -->
<g id="node16" class="node">
<title>ForecastModule</title>
<polygon fill="#8dd3c7" stroke="#000000" points="1283.472,-263 1280.472,-267 1259.472,-267 1256.472,-263 1176.528,-263 1176.528,-227 1283.472,-227 1283.472,-263"/>
<text text-anchor="middle" x="1230" y="-240.8" font-family="Times,serif" font-size="14.00" fill="#000000">ForecastModule</text>
</g>
<!-- SharedModule&#45;&gt;ForecastModule -->
<g id="edge19" class="edge">
<title>SharedModule&#45;&gt;ForecastModule</title>
<path fill="none" stroke="#000000" d="M304.7741,-187.0511C304.7741,-201.373 304.7741,-219 304.7741,-219 304.7741,-219 1203.257,-219 1203.257,-219 1203.257,-219 1203.257,-219.7942 1203.257,-219.7942"/>
<polygon fill="#000000" stroke="#000000" points="1199.7571,-216.9421 1203.257,-226.9421 1206.7571,-216.9422 1199.7571,-216.9421"/>
</g>
<!-- StationModule -->
<g id="node17" class="node">
<title>StationModule</title>
<polygon fill="#8dd3c7" stroke="#000000" points="1400.719,-263 1397.719,-267 1376.719,-267 1373.719,-263 1301.281,-263 1301.281,-227 1400.719,-227 1400.719,-263"/>
<text text-anchor="middle" x="1351" y="-240.8" font-family="Times,serif" font-size="14.00" fill="#000000">StationModule</text>
</g>
<!-- SharedModule&#45;&gt;StationModule -->
<g id="edge41" class="edge">
<title>SharedModule&#45;&gt;StationModule</title>
<path fill="none" stroke="#000000" d="M315.0787,-187.1467C315.0787,-200.7395 315.0787,-217 315.0787,-217 315.0787,-217 1314.3972,-217 1314.3972,-217 1314.3972,-217 1314.3972,-217.9793 1314.3972,-217.9793"/>
<polygon fill="#000000" stroke="#000000" points="1310.8973,-216.793 1314.3972,-226.793 1317.8973,-216.7931 1310.8973,-216.793"/>
</g>
<!-- FooterComponent  -->
<g id="node32" class="node">
<title>FooterComponent </title>
<polygon fill="#fb8072" stroke="#000000" points="691.8814,-263 570.1186,-263 570.1186,-227 691.8814,-227 691.8814,-263"/>
<text text-anchor="middle" x="631" y="-240.8" font-family="Times,serif" font-size="14.00" fill="#000000">FooterComponent </text>
</g>
<!-- SharedModule&#45;&gt;FooterComponent  -->
<g id="edge37" class="edge">
<title>SharedModule&#45;&gt;FooterComponent </title>
<path fill="none" stroke="#000000" stroke-dasharray="5,2" d="M387.3011,-169C459.6369,-169 586.0393,-169 586.0393,-169 586.0393,-169 586.0393,-216.9891 586.0393,-216.9891"/>
<polygon fill="#000000" stroke="#000000" points="582.5393,-216.989 586.0393,-226.9891 589.5393,-216.9891 582.5393,-216.989"/>
</g>
<!-- HeaderComponent  -->
<g id="node33" class="node">
<title>HeaderComponent </title>
<polygon fill="#fb8072" stroke="#000000" points="552.7436,-263 427.2564,-263 427.2564,-227 552.7436,-227 552.7436,-263"/>
<text text-anchor="middle" x="490" y="-240.8" font-family="Times,serif" font-size="14.00" fill="#000000">HeaderComponent </text>
</g>
<!-- SharedModule&#45;&gt;HeaderComponent  -->
<g id="edge38" class="edge">
<title>SharedModule&#45;&gt;HeaderComponent </title>
<path fill="none" stroke="#000000" stroke-dasharray="5,2" d="M376.9065,-187.0109C376.9065,-209.4852 376.9065,-245 376.9065,-245 376.9065,-245 417.1696,-245 417.1696,-245"/>
<polygon fill="#000000" stroke="#000000" points="417.1696,-248.5001 427.1696,-245 417.1695,-241.5001 417.1696,-248.5001"/>
</g>
<!-- ProtectedModule&#45;&gt;CoreModule -->
<g id="edge6" class="edge">
<title>ProtectedModule&#45;&gt;CoreModule</title>
<path fill="none" stroke="#000000" d="M2301.3079,-226.7933C2301.3079,-189.9441 2301.3079,-110 2301.3079,-110 2301.3079,-110 397.6254,-110 397.6254,-110"/>
<polygon fill="#000000" stroke="#000000" points="397.6255,-106.5001 387.6254,-110 397.6254,-113.5001 397.6255,-106.5001"/>
</g>
<!-- PublicModule&#45;&gt;CoreModule -->
<g id="edge7" class="edge">
<title>PublicModule&#45;&gt;CoreModule</title>
<path fill="none" stroke="#000000" d="M2441.6496,-226.9749C2441.6496,-187.7217 2441.6496,-98 2441.6496,-98 2441.6496,-98 397.3309,-98 397.3309,-98"/>
<polygon fill="#000000" stroke="#000000" points="397.3309,-94.5001 387.3309,-98 397.3309,-101.5001 397.3309,-94.5001"/>
</g>
<!-- HomeComponent  -->
<g id="node26" class="node">
<title>HomeComponent </title>
<polygon fill="#fb8072" stroke="#000000" points="2429.5442,-187 2310.4558,-187 2310.4558,-151 2429.5442,-151 2429.5442,-187"/>
<text text-anchor="middle" x="2370" y="-164.8" font-family="Times,serif" font-size="14.00" fill="#000000">HomeComponent </text>
</g>
<!-- PublicModule&#45;&gt;HomeComponent  -->
<g id="edge30" class="edge">
<title>PublicModule&#45;&gt;HomeComponent </title>
<path fill="none" stroke="#000000" stroke-dasharray="5,2" d="M2424.4911,-226.9891C2424.4911,-226.9891 2424.4911,-197.145 2424.4911,-197.145"/>
<polygon fill="#000000" stroke="#000000" points="2427.9912,-197.145 2424.4911,-187.145 2420.9912,-197.1451 2427.9912,-197.145"/>
</g>
<!-- LoginComponent  -->
<g id="node27" class="node">
<title>LoginComponent </title>
<polygon fill="#fb8072" stroke="#000000" points="2292.2759,-187 2173.7241,-187 2173.7241,-151 2292.2759,-151 2292.2759,-187"/>
<text text-anchor="middle" x="2233" y="-164.8" font-family="Times,serif" font-size="14.00" fill="#000000">LoginComponent </text>
</g>
<!-- PublicModule&#45;&gt;LoginComponent  -->
<g id="edge31" class="edge">
<title>PublicModule&#45;&gt;LoginComponent </title>
<path fill="none" stroke="#000000" stroke-dasharray="5,2" d="M2419.46,-226.9445C2419.46,-215.561 2419.46,-203 2419.46,-203 2419.46,-203 2284.3555,-203 2284.3555,-203 2284.3555,-203 2284.3555,-197.1944 2284.3555,-197.1944"/>
<polygon fill="#000000" stroke="#000000" points="2287.8556,-197.1944 2284.3555,-187.1944 2280.8556,-197.1945 2287.8556,-197.1944"/>
</g>
<!-- LogoutComponent  -->
<g id="node28" class="node">
<title>LogoutComponent </title>
<polygon fill="#fb8072" stroke="#000000" points="2155.7759,-187 2030.2241,-187 2030.2241,-151 2155.7759,-151 2155.7759,-187"/>
<text text-anchor="middle" x="2093" y="-164.8" font-family="Times,serif" font-size="14.00" fill="#000000">LogoutComponent </text>
</g>
<!-- PublicModule&#45;&gt;LogoutComponent  -->
<g id="edge32" class="edge">
<title>PublicModule&#45;&gt;LogoutComponent </title>
<path fill="none" stroke="#000000" stroke-dasharray="5,2" d="M2414.429,-226.8701C2414.429,-216.6855 2414.429,-206 2414.429,-206 2414.429,-206 2120.239,-206 2120.239,-206 2120.239,-206 2120.239,-197.0664 2120.239,-197.0664"/>
<polygon fill="#000000" stroke="#000000" points="2123.739,-197.0664 2120.239,-187.0664 2116.739,-197.0665 2123.739,-197.0664"/>
</g>
<!-- UnauthenticatedComponent  -->
<g id="node29" class="node">
<title>UnauthenticatedComponent </title>
<polygon fill="#fb8072" stroke="#000000" points="2012.0749,-187 1835.9251,-187 1835.9251,-151 2012.0749,-151 2012.0749,-187"/>
<text text-anchor="middle" x="1924" y="-164.8" font-family="Times,serif" font-size="14.00" fill="#000000">UnauthenticatedComponent </text>
</g>
<!-- PublicModule&#45;&gt;UnauthenticatedComponent  -->
<g id="edge33" class="edge">
<title>PublicModule&#45;&gt;UnauthenticatedComponent </title>
<path fill="none" stroke="#000000" stroke-dasharray="5,2" d="M2409.398,-226.5782C2409.398,-217.7209 2409.398,-209 2409.398,-209 2409.398,-209 1975.6468,-209 1975.6468,-209 1975.6468,-209 1975.6468,-197.1274 1975.6468,-197.1274"/>
<polygon fill="#000000" stroke="#000000" points="1979.1468,-197.1274 1975.6468,-187.1274 1972.1468,-197.1275 1979.1468,-197.1274"/>
</g>
<!-- DetailDeviceComponent -->
<g id="node9" class="node">
<title>DetailDeviceComponent</title>
<polygon fill="#ffffb3" stroke="#000000" points="1920.6811,-263 1765.3189,-263 1765.3189,-227 1920.6811,-227 1920.6811,-263"/>
<text text-anchor="middle" x="1843" y="-240.8" font-family="Times,serif" font-size="14.00" fill="#000000">DetailDeviceComponent</text>
</g>
<!-- DetailDeviceComponent&#45;&gt;DevicesModule -->
<g id="edge8" class="edge">
<title>DetailDeviceComponent&#45;&gt;DevicesModule</title>
<path fill="none" stroke="#000000" d="M1843,-263.027C1843,-279.3976 1843,-301 1843,-301 1843,-301 1735.3928,-301 1735.3928,-301"/>
<polygon fill="#000000" stroke="#000000" points="1735.3928,-297.5001 1725.3928,-301 1735.3927,-304.5001 1735.3928,-297.5001"/>
</g>
<!-- ListDevicesComponent -->
<g id="node10" class="node">
<title>ListDevicesComponent</title>
<polygon fill="#ffffb3" stroke="#000000" points="1747.1965,-263 1598.8035,-263 1598.8035,-227 1747.1965,-227 1747.1965,-263"/>
<text text-anchor="middle" x="1673" y="-240.8" font-family="Times,serif" font-size="14.00" fill="#000000">ListDevicesComponent</text>
</g>
<!-- ListDevicesComponent&#45;&gt;DevicesModule -->
<g id="edge9" class="edge">
<title>ListDevicesComponent&#45;&gt;DevicesModule</title>
<path fill="none" stroke="#000000" d="M1673,-263.2228C1673,-263.2228 1673,-284.7269 1673,-284.7269"/>
<polygon fill="#000000" stroke="#000000" points="1669.5001,-284.7269 1673,-294.7269 1676.5001,-284.727 1669.5001,-284.7269"/>
</g>
<!-- MeteoStationComponent -->
<g id="node11" class="node">
<title>MeteoStationComponent</title>
<polygon fill="#ffffb3" stroke="#000000" points="1581.266,-263 1424.734,-263 1424.734,-227 1581.266,-227 1581.266,-263"/>
<text text-anchor="middle" x="1503" y="-240.8" font-family="Times,serif" font-size="14.00" fill="#000000">MeteoStationComponent</text>
</g>
<!-- MeteoStationComponent&#45;&gt;DevicesModule -->
<g id="edge10" class="edge">
<title>MeteoStationComponent&#45;&gt;DevicesModule</title>
<path fill="none" stroke="#000000" d="M1503,-263.027C1503,-279.3976 1503,-301 1503,-301 1503,-301 1610.6072,-301 1610.6072,-301"/>
<polygon fill="#000000" stroke="#000000" points="1610.6073,-304.5001 1620.6072,-301 1610.6072,-297.5001 1610.6073,-304.5001"/>
</g>
<!-- MeteoStatsComponent -->
<g id="node12" class="node">
<title>MeteoStatsComponent</title>
<polygon fill="#ffffb3" stroke="#000000" points="2229.3202,-263 2084.6798,-263 2084.6798,-227 2229.3202,-227 2229.3202,-263"/>
<text text-anchor="middle" x="2157" y="-240.8" font-family="Times,serif" font-size="14.00" fill="#000000">MeteoStatsComponent</text>
</g>
<!-- MeteoStatsComponent&#45;&gt;DevicesModule -->
<g id="edge11" class="edge">
<title>MeteoStatsComponent&#45;&gt;DevicesModule</title>
<path fill="none" stroke="#000000" d="M2132.9467,-263.2228C2132.9467,-283.3652 2132.9467,-313 2132.9467,-313 2132.9467,-313 1735.3139,-313 1735.3139,-313"/>
<polygon fill="#000000" stroke="#000000" points="1735.314,-309.5001 1725.3139,-313 1735.3139,-316.5001 1735.314,-309.5001"/>
</g>
<!-- MeteoStatsComponent&#45;&gt;DevicesModule -->
<g id="edge12" class="edge">
<title>MeteoStatsComponent&#45;&gt;DevicesModule</title>
<path fill="none" stroke="#000000" d="M2181.0533,-263.2921C2181.0533,-285.2057 2181.0533,-319 2181.0533,-319 2181.0533,-319 1735.4571,-319 1735.4571,-319"/>
<polygon fill="#000000" stroke="#000000" points="1735.4571,-315.5001 1725.4571,-319 1735.457,-322.5001 1735.4571,-315.5001"/>
</g>
<!-- PlayLedComponent -->
<g id="node13" class="node">
<title>PlayLedComponent</title>
<polygon fill="#ffffb3" stroke="#000000" points="2066.9874,-263 1939.0126,-263 1939.0126,-227 2066.9874,-227 2066.9874,-263"/>
<text text-anchor="middle" x="2003" y="-240.8" font-family="Times,serif" font-size="14.00" fill="#000000">PlayLedComponent</text>
</g>
<!-- PlayLedComponent&#45;&gt;DevicesModule -->
<g id="edge13" class="edge">
<title>PlayLedComponent&#45;&gt;DevicesModule</title>
<path fill="none" stroke="#000000" d="M2003,-263.2667C2003,-281.5552 2003,-307 2003,-307 2003,-307 1735.2895,-307 1735.2895,-307"/>
<polygon fill="#000000" stroke="#000000" points="1735.2895,-303.5001 1725.2895,-307 1735.2894,-310.5001 1735.2895,-303.5001"/>
</g>
<!-- DevicesModule&#45;&gt;ProtectedModule -->
<g id="edge21" class="edge">
<title>DevicesModule&#45;&gt;ProtectedModule</title>
<path fill="none" stroke="#000000" d="M1725.2538,-325C1879.9709,-325 2325,-325 2325,-325 2325,-325 2325,-273.1532 2325,-273.1532"/>
<polygon fill="#000000" stroke="#000000" points="2328.5001,-273.1532 2325,-263.1532 2321.5001,-273.1533 2328.5001,-273.1532"/>
</g>
<!-- DeviceRoutingModule -->
<g id="node15" class="node">
<title>DeviceRoutingModule</title>
<polygon fill="#8dd3c7" stroke="#000000" points="1158.3089,-263 1155.3089,-267 1134.3089,-267 1131.3089,-263 1013.6911,-263 1013.6911,-227 1158.3089,-227 1158.3089,-263"/>
<text text-anchor="middle" x="1086" y="-240.8" font-family="Times,serif" font-size="14.00" fill="#000000">DeviceRoutingModule</text>
</g>
<!-- DeviceRoutingModule&#45;&gt;DevicesModule -->
<g id="edge14" class="edge">
<title>DeviceRoutingModule&#45;&gt;DevicesModule</title>
<path fill="none" stroke="#000000" d="M1086,-263.2921C1086,-285.2057 1086,-319 1086,-319 1086,-319 1610.6496,-319 1610.6496,-319"/>
<polygon fill="#000000" stroke="#000000" points="1610.6497,-322.5001 1620.6496,-319 1610.6496,-315.5001 1610.6497,-322.5001"/>
</g>
<!-- ForecastModule&#45;&gt;DevicesModule -->
<g id="edge15" class="edge">
<title>ForecastModule&#45;&gt;DevicesModule</title>
<path fill="none" stroke="#000000" d="M1230,-263.2228C1230,-283.3652 1230,-313 1230,-313 1230,-313 1610.4425,-313 1610.4425,-313"/>
<polygon fill="#000000" stroke="#000000" points="1610.4425,-316.5001 1620.4425,-313 1610.4424,-309.5001 1610.4425,-316.5001"/>
</g>
<!-- ForecastDetailComponent  -->
<g id="node19" class="node">
<title>ForecastDetailComponent </title>
<polygon fill="#fb8072" stroke="#000000" points="768.4628,-187 601.5372,-187 601.5372,-151 768.4628,-151 768.4628,-187"/>
<text text-anchor="middle" x="685" y="-164.8" font-family="Times,serif" font-size="14.00" fill="#000000">ForecastDetailComponent </text>
</g>
<!-- ForecastModule&#45;&gt;ForecastDetailComponent  -->
<g id="edge20" class="edge">
<title>ForecastModule&#45;&gt;ForecastDetailComponent </title>
<path fill="none" stroke="#000000" stroke-dasharray="5,2" d="M1230,-226.8495C1230,-214.7292 1230,-201 1230,-201 1230,-201 750.8635,-201 750.8635,-201 750.8635,-201 750.8635,-197.2434 750.8635,-197.2434"/>
<polygon fill="#000000" stroke="#000000" points="754.3636,-197.2434 750.8635,-187.2434 747.3636,-197.2434 754.3636,-197.2434"/>
</g>
<!-- StationModule&#45;&gt;DevicesModule -->
<g id="edge17" class="edge">
<title>StationModule&#45;&gt;DevicesModule</title>
<path fill="none" stroke="#000000" d="M1351,-263.2667C1351,-281.5552 1351,-307 1351,-307 1351,-307 1610.5485,-307 1610.5485,-307"/>
<polygon fill="#000000" stroke="#000000" points="1610.5485,-310.5001 1620.5485,-307 1610.5485,-303.5001 1610.5485,-310.5001"/>
</g>
<!-- StationCommandComponent  -->
<g id="node36" class="node">
<title>StationCommandComponent </title>
<polygon fill="#fb8072" stroke="#000000" points="1353.3339,-187 1170.6661,-187 1170.6661,-151 1353.3339,-151 1353.3339,-187"/>
<text text-anchor="middle" x="1262" y="-164.8" font-family="Times,serif" font-size="14.00" fill="#000000">StationCommandComponent </text>
</g>
<!-- StationModule&#45;&gt;StationCommandComponent  -->
<g id="edge42" class="edge">
<title>StationModule&#45;&gt;StationCommandComponent </title>
<path fill="none" stroke="#000000" stroke-dasharray="5,2" d="M1340.4103,-226.9891C1340.4103,-226.9891 1340.4103,-197.145 1340.4103,-197.145"/>
<polygon fill="#000000" stroke="#000000" points="1343.9104,-197.145 1340.4103,-187.145 1336.9104,-197.1451 1343.9104,-197.145"/>
</g>
<!-- StationDetailComponent  -->
<g id="node37" class="node">
<title>StationDetailComponent </title>
<polygon fill="#fb8072" stroke="#000000" points="1152.2093,-187 993.7907,-187 993.7907,-151 1152.2093,-151 1152.2093,-187"/>
<text text-anchor="middle" x="1073" y="-164.8" font-family="Times,serif" font-size="14.00" fill="#000000">StationDetailComponent </text>
</g>
<!-- StationModule&#45;&gt;StationDetailComponent  -->
<g id="edge43" class="edge">
<title>StationModule&#45;&gt;StationDetailComponent </title>
<path fill="none" stroke="#000000" stroke-dasharray="5,2" d="M1327.4038,-226.9489C1327.4038,-212.627 1327.4038,-195 1327.4038,-195 1327.4038,-195 1083.1001,-195 1083.1001,-195 1083.1001,-195 1083.1001,-194.2058 1083.1001,-194.2058"/>
<polygon fill="#000000" stroke="#000000" points="1086.6002,-197.0578 1083.1001,-187.0579 1079.6002,-197.0579 1086.6002,-197.0578"/>
</g>
<!-- ForecastDetailComponent -->
<g id="node18" class="node">
<title>ForecastDetailComponent</title>
<polygon fill="#ffffb3" stroke="#000000" points="954.4622,-187 791.5378,-187 791.5378,-151 954.4622,-151 954.4622,-187"/>
<text text-anchor="middle" x="873" y="-164.8" font-family="Times,serif" font-size="14.00" fill="#000000">ForecastDetailComponent</text>
</g>
<!-- ForecastDetailComponent&#45;&gt;ForecastModule -->
<g id="edge18" class="edge">
<title>ForecastDetailComponent&#45;&gt;ForecastModule</title>
<path fill="none" stroke="#000000" d="M921.6739,-187.2015C921.6739,-193.028 921.6739,-198 921.6739,-198 921.6739,-198 1256.743,-198 1256.743,-198 1256.743,-198 1256.743,-216.963 1256.743,-216.963"/>
<polygon fill="#000000" stroke="#000000" points="1253.2431,-216.963 1256.743,-226.963 1260.2431,-216.963 1253.2431,-216.963"/>
</g>
<!-- ProtectedRoutingModule -->
<g id="node20" class="node">
<title>ProtectedRoutingModule</title>
<polygon fill="#8dd3c7" stroke="#000000" points="3394.5365,-187 3391.5365,-191 3370.5365,-191 3367.5365,-187 3237.4635,-187 3237.4635,-151 3394.5365,-151 3394.5365,-187"/>
<text text-anchor="middle" x="3316" y="-164.8" font-family="Times,serif" font-size="14.00" fill="#000000">ProtectedRoutingModule</text>
</g>
<!-- ProtectedRoutingModule&#45;&gt;ProtectedModule -->
<g id="edge22" class="edge">
<title>ProtectedRoutingModule&#45;&gt;ProtectedModule</title>
<path fill="none" stroke="#000000" d="M3316,-187.08C3316,-188.8464 3316,-190 3316,-190 3316,-190 2345.8435,-190 2345.8435,-190 2345.8435,-190 2345.8435,-216.9909 2345.8435,-216.9909"/>
<polygon fill="#000000" stroke="#000000" points="2342.3435,-216.9909 2345.8435,-226.9909 2349.3435,-216.991 2342.3435,-216.9909"/>
</g>
<!-- HomeComponent -->
<g id="node21" class="node">
<title>HomeComponent</title>
<polygon fill="#ffffb3" stroke="#000000" points="3196.5451,-187 3081.4549,-187 3081.4549,-151 3196.5451,-151 3196.5451,-187"/>
<text text-anchor="middle" x="3139" y="-164.8" font-family="Times,serif" font-size="14.00" fill="#000000">HomeComponent</text>
</g>
<!-- HomeComponent&#45;&gt;PublicModule -->
<g id="edge24" class="edge">
<title>HomeComponent&#45;&gt;PublicModule</title>
<path fill="none" stroke="#000000" d="M3139,-187.0265C3139,-212.5093 3139,-256 3139,-256 3139,-256 2504.837,-256 2504.837,-256"/>
<polygon fill="#000000" stroke="#000000" points="2504.837,-252.5001 2494.837,-256 2504.837,-259.5001 2504.837,-252.5001"/>
</g>
<!-- LoginComponent -->
<g id="node22" class="node">
<title>LoginComponent</title>
<polygon fill="#ffffb3" stroke="#000000" points="3063.2758,-187 2948.7242,-187 2948.7242,-151 3063.2758,-151 3063.2758,-187"/>
<text text-anchor="middle" x="3006" y="-164.8" font-family="Times,serif" font-size="14.00" fill="#000000">LoginComponent</text>
</g>
<!-- LoginComponent&#45;&gt;PublicModule -->
<g id="edge25" class="edge">
<title>LoginComponent&#45;&gt;PublicModule</title>
<path fill="none" stroke="#000000" d="M3006,-187.1532C3006,-210.7566 3006,-249 3006,-249 3006,-249 2505.1438,-249 2505.1438,-249"/>
<polygon fill="#000000" stroke="#000000" points="2505.1439,-245.5001 2495.1438,-249 2505.1438,-252.5001 2505.1439,-245.5001"/>
</g>
<!-- LogoutComponent -->
<g id="node23" class="node">
<title>LogoutComponent</title>
<polygon fill="#ffffb3" stroke="#000000" points="2930.7758,-187 2809.2242,-187 2809.2242,-151 2930.7758,-151 2930.7758,-187"/>
<text text-anchor="middle" x="2870" y="-164.8" font-family="Times,serif" font-size="14.00" fill="#000000">LogoutComponent</text>
</g>
<!-- LogoutComponent&#45;&gt;PublicModule -->
<g id="edge26" class="edge">
<title>LogoutComponent&#45;&gt;PublicModule</title>
<path fill="none" stroke="#000000" d="M2870,-187.0449C2870,-208.6623 2870,-242 2870,-242 2870,-242 2504.7012,-242 2504.7012,-242"/>
<polygon fill="#000000" stroke="#000000" points="2504.7013,-238.5001 2494.7012,-242 2504.7012,-245.5001 2504.7013,-238.5001"/>
</g>
<!-- UnauthenticatedComponent -->
<g id="node24" class="node">
<title>UnauthenticatedComponent</title>
<polygon fill="#ffffb3" stroke="#000000" points="2791.5744,-187 2618.4256,-187 2618.4256,-151 2791.5744,-151 2791.5744,-187"/>
<text text-anchor="middle" x="2705" y="-164.8" font-family="Times,serif" font-size="14.00" fill="#000000">UnauthenticatedComponent</text>
</g>
<!-- UnauthenticatedComponent&#45;&gt;PublicModule -->
<g id="edge27" class="edge">
<title>UnauthenticatedComponent&#45;&gt;PublicModule</title>
<path fill="none" stroke="#000000" d="M2705,-187.0348C2705,-206.5762 2705,-235 2705,-235 2705,-235 2504.9232,-235 2504.9232,-235"/>
<polygon fill="#000000" stroke="#000000" points="2504.9232,-231.5001 2494.9232,-235 2504.9231,-238.5001 2504.9232,-231.5001"/>
</g>
<!-- PublicRoutingModule -->
<g id="node25" class="node">
<title>PublicRoutingModule</title>
<polygon fill="#8dd3c7" stroke="#000000" points="2594.4467,-187 2591.4467,-191 2570.4467,-191 2567.4467,-187 2453.5533,-187 2453.5533,-151 2594.4467,-151 2594.4467,-187"/>
<text text-anchor="middle" x="2524" y="-164.8" font-family="Times,serif" font-size="14.00" fill="#000000">PublicRoutingModule</text>
</g>
<!-- PublicRoutingModule&#45;&gt;PublicModule -->
<g id="edge28" class="edge">
<title>PublicRoutingModule&#45;&gt;PublicModule</title>
<path fill="none" stroke="#000000" d="M2474.2206,-187.0109C2474.2206,-187.0109 2474.2206,-216.855 2474.2206,-216.855"/>
<polygon fill="#000000" stroke="#000000" points="2470.7206,-216.8549 2474.2206,-226.855 2477.7206,-216.855 2470.7206,-216.8549"/>
</g>
<!-- FooterComponent -->
<g id="node30" class="node">
<title>FooterComponent</title>
<polygon fill="#ffffb3" stroke="#000000" points="973.8809,-263 856.1191,-263 856.1191,-227 973.8809,-227 973.8809,-263"/>
<text text-anchor="middle" x="915" y="-240.8" font-family="Times,serif" font-size="14.00" fill="#000000">FooterComponent</text>
</g>
<!-- FooterComponent&#45;&gt;SharedModule -->
<g id="edge34" class="edge">
<title>FooterComponent&#45;&gt;SharedModule</title>
<path fill="none" stroke="#000000" d="M888.8668,-226.8777C888.8668,-224.0271 888.8668,-222 888.8668,-222 888.8668,-222 366.6019,-222 366.6019,-222 366.6019,-222 366.6019,-197.2396 366.6019,-197.2396"/>
<polygon fill="#000000" stroke="#000000" points="370.102,-197.2396 366.6019,-187.2396 363.102,-197.2396 370.102,-197.2396"/>
</g>
<!-- HeaderComponent -->
<g id="node31" class="node">
<title>HeaderComponent</title>
<polygon fill="#ffffb3" stroke="#000000" points="837.7437,-263 716.2563,-263 716.2563,-227 837.7437,-227 837.7437,-263"/>
<text text-anchor="middle" x="777" y="-240.8" font-family="Times,serif" font-size="14.00" fill="#000000">HeaderComponent</text>
</g>
<!-- HeaderComponent&#45;&gt;SharedModule -->
<g id="edge35" class="edge">
<title>HeaderComponent&#45;&gt;SharedModule</title>
<path fill="none" stroke="#000000" d="M733.4959,-226.8457C733.4959,-225.7031 733.4959,-225 733.4959,-225 733.4959,-225 356.2972,-225 356.2972,-225 356.2972,-225 356.2972,-197.027 356.2972,-197.027"/>
<polygon fill="#000000" stroke="#000000" points="359.7973,-197.027 356.2972,-187.027 352.7973,-197.027 359.7973,-197.027"/>
</g>
<!-- StationCommandComponent -->
<g id="node34" class="node">
<title>StationCommandComponent</title>
<polygon fill="#ffffb3" stroke="#000000" points="1729.8341,-187 1550.1659,-187 1550.1659,-151 1729.8341,-151 1729.8341,-187"/>
<text text-anchor="middle" x="1640" y="-164.8" font-family="Times,serif" font-size="14.00" fill="#000000">StationCommandComponent</text>
</g>
<!-- StationCommandComponent&#45;&gt;StationModule -->
<g id="edge39" class="edge">
<title>StationCommandComponent&#45;&gt;StationModule</title>
<path fill="none" stroke="#000000" d="M1565.858,-187.1903C1565.858,-190.5376 1565.858,-193 1565.858,-193 1565.858,-193 1392.8714,-193 1392.8714,-193 1392.8714,-193 1392.8714,-216.8129 1392.8714,-216.8129"/>
<polygon fill="#000000" stroke="#000000" points="1389.3715,-216.8129 1392.8714,-226.8129 1396.3715,-216.813 1389.3715,-216.8129"/>
</g>
<!-- StationDetailComponent -->
<g id="node35" class="node">
<title>StationDetailComponent</title>
<polygon fill="#ffffb3" stroke="#000000" points="1532.7091,-187 1377.2909,-187 1377.2909,-151 1532.7091,-151 1532.7091,-187"/>
<text text-anchor="middle" x="1455" y="-164.8" font-family="Times,serif" font-size="14.00" fill="#000000">StationDetailComponent</text>
</g>
<!-- StationDetailComponent&#45;&gt;StationModule -->
<g id="edge40" class="edge">
<title>StationDetailComponent&#45;&gt;StationModule</title>
<path fill="none" stroke="#000000" d="M1385.1335,-187.0109C1385.1335,-187.0109 1385.1335,-216.855 1385.1335,-216.855"/>
<polygon fill="#000000" stroke="#000000" points="1381.6336,-216.8549 1385.1335,-226.855 1388.6336,-216.855 1381.6336,-216.8549"/>
</g>
</g>
</svg>
