<?xml version="1.0" encoding="UTF-8" standalone="no"?>
<!DOCTYPE svg PUBLIC "-//W3C//DTD SVG 1.1//EN"
 "http://www.w3.org/Graphics/SVG/1.1/DTD/svg11.dtd">
<!-- Generated by graphviz version 2.40.1 (20161225.0304)
 -->
<!-- Title: dependencies Pages: 1 -->
<svg width="3506pt" height="363pt"
 viewBox="0.00 0.00 3506.00 363.00" xmlns="http://www.w3.org/2000/svg" xmlns:xlink="http://www.w3.org/1999/xlink">
<g id="graph0" class="graph" transform="scale(1 1) rotate(0) translate(4 359)">
<title>dependencies</title>
<polygon fill="#ffffff" stroke="transparent" points="-4,4 -4,-359 3502,-359 3502,4 -4,4"/>
<text text-anchor="start" x="1728.0091" y="-42.4" font-family="sans-serif" font-weight="bold" font-size="14.00" fill="#000000">Legend</text>
<polygon fill="#ffffb3" stroke="transparent" points="1515,-10 1515,-30 1535,-30 1535,-10 1515,-10"/>
<text text-anchor="start" x="1538.629" y="-15.4" font-family="sans-serif" font-size="14.00" fill="#000000"> &#160;Declarations</text>
<polygon fill="#8dd3c7" stroke="transparent" points="1628,-10 1628,-30 1648,-30 1648,-10 1628,-10"/>
<text text-anchor="start" x="1651.7251" y="-15.4" font-family="sans-serif" font-size="14.00" fill="#000000"> &#160;Module</text>
<polygon fill="#80b1d3" stroke="transparent" points="1714,-10 1714,-30 1734,-30 1734,-10 1714,-10"/>
<text text-anchor="start" x="1737.7812" y="-15.4" font-family="sans-serif" font-size="14.00" fill="#000000"> &#160;Bootstrap</text>
<polygon fill="#fdb462" stroke="transparent" points="1811,-10 1811,-30 1831,-30 1831,-10 1811,-10"/>
<text text-anchor="start" x="1834.6732" y="-15.4" font-family="sans-serif" font-size="14.00" fill="#000000"> &#160;Providers</text>
<polygon fill="#fb8072" stroke="transparent" points="1907,-10 1907,-30 1927,-30 1927,-10 1907,-10"/>
<text text-anchor="start" x="1930.7258" y="-15.4" font-family="sans-serif" font-size="14.00" fill="#000000"> &#160;Exports</text>
<g id="clust1" class="cluster">
<title>cluster_AppModule</title>
<polygon fill="none" stroke="#000000" stroke-dasharray="1,5" points="8,-70 8,-347 403,-347 403,-70 8,-70"/>
</g>
<g id="clust2" class="cluster">
<title>cluster_AppModule_declarations</title>
<polygon fill="none" stroke="#000000" points="16,-143 16,-195 138,-195 138,-143 16,-143"/>
</g>
<g id="clust4" class="cluster">
<title>cluster_AppModule_imports</title>
<polygon fill="none" stroke="#000000" points="146,-78 146,-195 395,-195 395,-78 146,-78"/>
</g>
<g id="clust6" class="cluster">
<title>cluster_AppModule_bootstrap</title>
<polygon fill="none" stroke="#000000" points="178,-287 178,-339 302,-339 302,-287 178,-287"/>
</g>
<g id="clust14" class="cluster">
<title>cluster_CoreModule</title>
<polygon fill="none" stroke="#000000" stroke-dasharray="1,5" points="2253,-211 2253,-279 2511,-279 2511,-211 2253,-211"/>
</g>
<g id="clust16" class="cluster">
<title>cluster_CoreModule_imports</title>
<polygon fill="none" stroke="#000000" points="2261,-219 2261,-271 2503,-271 2503,-219 2261,-219"/>
</g>
<g id="clust26" class="cluster">
<title>cluster_DevicesModule</title>
<polygon fill="none" stroke="#000000" stroke-dasharray="1,5" points="998,-211 998,-339 2245,-339 2245,-211 998,-211"/>
</g>
<g id="clust27" class="cluster">
<title>cluster_DevicesModule_declarations</title>
<polygon fill="none" stroke="#000000" points="1417,-219 1417,-271 2237,-271 2237,-219 1417,-219"/>
</g>
<g id="clust33" class="cluster">
<title>cluster_DevicesModule_imports</title>
<polygon fill="none" stroke="#000000" points="1006,-219 1006,-271 1409,-271 1409,-219 1006,-219"/>
</g>
<g id="clust37" class="cluster">
<title>cluster_ForecastModule</title>
<polygon fill="none" stroke="#000000" stroke-dasharray="1,5" points="490,-135 490,-203 1050,-203 1050,-135 490,-135"/>
</g>
<g id="clust38" class="cluster">
<title>cluster_ForecastModule_declarations</title>
<polygon fill="none" stroke="#000000" points="688,-143 688,-195 1042,-195 1042,-143 688,-143"/>
</g>
<g id="clust42" class="cluster">
<title>cluster_ForecastModule_exports</title>
<polygon fill="none" stroke="#000000" points="498,-143 498,-195 680,-195 680,-143 498,-143"/>
</g>
<g id="clust45" class="cluster">
<title>cluster_ProtectedModule</title>
<polygon fill="none" stroke="#000000" stroke-dasharray="1,5" points="3300,-135 3300,-203 3490,-203 3490,-135 3300,-135"/>
</g>
<g id="clust47" class="cluster">
<title>cluster_ProtectedModule_imports</title>
<polygon fill="none" stroke="#000000" points="3308,-143 3308,-195 3482,-195 3482,-143 3308,-143"/>
</g>
<g id="clust57" class="cluster">
<title>cluster_PublicModule</title>
<polygon fill="none" stroke="#000000" stroke-dasharray="1,5" points="1900,-135 1900,-203 3292,-203 3292,-135 1900,-135"/>
</g>
<g id="clust58" class="cluster">
<title>cluster_PublicModule_declarations</title>
<polygon fill="none" stroke="#000000" points="2690,-143 2690,-195 3284,-195 3284,-143 2690,-143"/>
</g>
<g id="clust63" class="cluster">
<title>cluster_PublicModule_imports</title>
<polygon fill="none" stroke="#000000" points="2526,-143 2526,-195 2682,-195 2682,-143 2526,-143"/>
</g>
<g id="clust64" class="cluster">
<title>cluster_PublicModule_exports</title>
<polygon fill="none" stroke="#000000" points="1908,-143 1908,-195 2518,-195 2518,-143 1908,-143"/>
</g>
<g id="clust73" class="cluster">
<title>cluster_SharedModule</title>
<polygon fill="none" stroke="#000000" stroke-dasharray="1,5" points="411,-211 411,-279 990,-279 990,-211 411,-211"/>
</g>
<g id="clust74" class="cluster">
<title>cluster_SharedModule_declarations</title>
<polygon fill="none" stroke="#000000" points="708,-219 708,-271 982,-271 982,-219 708,-219"/>
</g>
<g id="clust78" class="cluster">
<title>cluster_SharedModule_exports</title>
<polygon fill="none" stroke="#000000" points="419,-219 419,-271 700,-271 700,-219 419,-219"/>
</g>
<g id="clust81" class="cluster">
<title>cluster_StationModule</title>
<polygon fill="none" stroke="#000000" stroke-dasharray="1,5" points="1058,-135 1058,-203 1826,-203 1826,-135 1058,-135"/>
</g>
<g id="clust82" class="cluster">
<title>cluster_StationModule_declarations</title>
<polygon fill="none" stroke="#000000" points="1449,-143 1449,-195 1818,-195 1818,-143 1449,-143"/>
</g>
<g id="clust86" class="cluster">
<title>cluster_StationModule_exports</title>
<polygon fill="none" stroke="#000000" points="1066,-143 1066,-195 1441,-195 1441,-143 1066,-143"/>
</g>
<!-- AppComponent -->
<g id="node1" class="node">
<title>AppComponent</title>
<polygon fill="#ffffb3" stroke="#000000" points="129.9399,-187 24.0601,-187 24.0601,-151 129.9399,-151 129.9399,-187"/>
<text text-anchor="middle" x="77" y="-164.8" font-family="Times,serif" font-size="14.00" fill="#000000">AppComponent</text>
</g>
<!-- AppModule -->
<g id="node2" class="node">
<title>AppModule</title>
<polygon fill="#8dd3c7" stroke="#000000" points="281.6571,-263 278.6571,-267 257.6571,-267 254.6571,-263 198.3429,-263 198.3429,-227 281.6571,-227 281.6571,-263"/>
<text text-anchor="middle" x="240" y="-240.8" font-family="Times,serif" font-size="14.00" fill="#000000">AppModule</text>
</g>
<!-- AppComponent&#45;&gt;AppModule -->
<g id="edge1" class="edge">
<title>AppComponent&#45;&gt;AppModule</title>
<path fill="none" stroke="#000000" d="M129.9225,-163C168.8119,-163 214.9031,-163 214.9031,-163 214.9031,-163 214.9031,-216.8015 214.9031,-216.8015"/>
<polygon fill="#000000" stroke="#000000" points="211.4032,-216.8015 214.9031,-226.8015 218.4032,-216.8016 211.4032,-216.8015"/>
</g>
<!-- AppComponent  -->
<g id="node6" class="node">
<title>AppComponent </title>
<polygon fill="#80b1d3" stroke="#000000" points="294.439,-331 185.561,-331 185.561,-295 294.439,-295 294.439,-331"/>
<text text-anchor="middle" x="240" y="-308.8" font-family="Times,serif" font-size="14.00" fill="#000000">AppComponent </text>
</g>
<!-- AppModule&#45;&gt;AppComponent  -->
<g id="edge5" class="edge">
<title>AppModule&#45;&gt;AppComponent </title>
<path fill="none" stroke="#000000" stroke-dasharray="1,5" d="M240,-263.2228C240,-263.2228 240,-284.7269 240,-284.7269"/>
<polygon fill="#000000" stroke="#000000" points="236.5001,-284.7269 240,-294.7269 243.5001,-284.727 236.5001,-284.7269"/>
</g>
<!-- AppRoutingModule -->
<g id="node3" class="node">
<title>AppRoutingModule</title>
<polygon fill="#8dd3c7" stroke="#000000" points="282.2744,-122 279.2744,-126 258.2744,-126 255.2744,-122 153.7256,-122 153.7256,-86 282.2744,-86 282.2744,-122"/>
<text text-anchor="middle" x="218" y="-99.8" font-family="Times,serif" font-size="14.00" fill="#000000">AppRoutingModule</text>
</g>
<!-- AppRoutingModule&#45;&gt;AppModule -->
<g id="edge2" class="edge">
<title>AppRoutingModule&#45;&gt;AppModule</title>
<path fill="none" stroke="#000000" d="M231.6344,-122.1446C231.6344,-122.1446 231.6344,-216.925 231.6344,-216.925"/>
<polygon fill="#000000" stroke="#000000" points="228.1345,-216.925 231.6344,-226.925 235.1345,-216.925 228.1345,-216.925"/>
</g>
<!-- SharedModule -->
<g id="node5" class="node">
<title>SharedModule</title>
<polygon fill="#8dd3c7" stroke="#000000" points="387.4231,-187 384.4231,-191 363.4231,-191 360.4231,-187 288.5769,-187 288.5769,-151 387.4231,-151 387.4231,-187"/>
<text text-anchor="middle" x="338" y="-164.8" font-family="Times,serif" font-size="14.00" fill="#000000">SharedModule</text>
</g>
<!-- AppRoutingModule&#45;&gt;SharedModule -->
<g id="edge37" class="edge">
<title>AppRoutingModule&#45;&gt;SharedModule</title>
<path fill="none" stroke="#000000" d="M282.3802,-104C289.7591,-104 294.7041,-104 294.7041,-104 294.7041,-104 294.7041,-140.8939 294.7041,-140.8939"/>
<polygon fill="#000000" stroke="#000000" points="291.2041,-140.8938 294.7041,-150.8939 298.2041,-140.8939 291.2041,-140.8938"/>
</g>
<!-- CoreModule -->
<g id="node4" class="node">
<title>CoreModule</title>
<polygon fill="#8dd3c7" stroke="#000000" points="387.2619,-122 384.2619,-126 363.2619,-126 360.2619,-122 300.7381,-122 300.7381,-86 387.2619,-86 387.2619,-122"/>
<text text-anchor="middle" x="344" y="-99.8" font-family="Times,serif" font-size="14.00" fill="#000000">CoreModule</text>
</g>
<!-- CoreModule&#45;&gt;AppModule -->
<g id="edge3" class="edge">
<title>CoreModule&#45;&gt;AppModule</title>
<path fill="none" stroke="#000000" d="M343.9152,-122.0449C343.9152,-129.749 343.9152,-137 343.9152,-137 343.9152,-137 248.3656,-137 248.3656,-137 248.3656,-137 248.3656,-216.6793 248.3656,-216.6793"/>
<polygon fill="#000000" stroke="#000000" points="244.8657,-216.6792 248.3656,-226.6793 251.8657,-216.6793 244.8657,-216.6792"/>
</g>
<!-- SharedModule&#45;&gt;AppModule -->
<g id="edge4" class="edge">
<title>SharedModule&#45;&gt;AppModule</title>
<path fill="none" stroke="#000000" d="M288.5652,-175C275.5636,-175 265.0969,-175 265.0969,-175 265.0969,-175 265.0969,-216.9733 265.0969,-216.9733"/>
<polygon fill="#000000" stroke="#000000" points="261.597,-216.9732 265.0969,-226.9733 268.597,-216.9733 261.597,-216.9732"/>
</g>
<!-- ProtectedModule -->
<g id="node7" class="node">
<title>ProtectedModule</title>
<polygon fill="#8dd3c7" stroke="#000000" points="2381.4188,-263 2378.4188,-267 2357.4188,-267 2354.4188,-263 2268.5812,-263 2268.5812,-227 2381.4188,-227 2381.4188,-263"/>
<text text-anchor="middle" x="2325" y="-240.8" font-family="Times,serif" font-size="14.00" fill="#000000">ProtectedModule</text>
</g>
<!-- SharedModule&#45;&gt;ProtectedModule -->
<g id="edge24" class="edge">
<title>SharedModule&#45;&gt;ProtectedModule</title>
<path fill="none" stroke="#000000" d="M356.2972,-187.0439C356.2972,-199.5633 356.2972,-214 356.2972,-214 356.2972,-214 2301.2897,-214 2301.2897,-214 2301.2897,-214 2301.2897,-216.9672 2301.2897,-216.9672"/>
<polygon fill="#000000" stroke="#000000" points="2297.7898,-216.9671 2301.2897,-226.9672 2304.7898,-216.9672 2297.7898,-216.9671"/>
</g>
<!-- PublicModule -->
<g id="node8" class="node">
<title>PublicModule</title>
<polygon fill="#8dd3c7" stroke="#000000" points="2494.8288,-263 2491.8288,-267 2470.8288,-267 2467.8288,-263 2399.1712,-263 2399.1712,-227 2494.8288,-227 2494.8288,-263"/>
<text text-anchor="middle" x="2447" y="-240.8" font-family="Times,serif" font-size="14.00" fill="#000000">PublicModule</text>
</g>
<!-- SharedModule&#45;&gt;PublicModule -->
<g id="edge30" class="edge">
<title>SharedModule&#45;&gt;PublicModule</title>
<path fill="none" stroke="#000000" d="M366.6019,-187.4854C366.6019,-199.1399 366.6019,-212 366.6019,-212 366.6019,-212 2415.2239,-212 2415.2239,-212 2415.2239,-212 2415.2239,-216.9551 2415.2239,-216.9551"/>
<polygon fill="#000000" stroke="#000000" points="2411.724,-216.9551 2415.2239,-226.9551 2418.724,-216.9552 2411.724,-216.9551"/>
</g>
<!-- DevicesModule -->
<g id="node14" class="node">
<title>DevicesModule</title>
<polygon fill="#8dd3c7" stroke="#000000" points="1725.136,-331 1722.136,-335 1701.136,-335 1698.136,-331 1620.864,-331 1620.864,-295 1725.136,-295 1725.136,-331"/>
<text text-anchor="middle" x="1673" y="-308.8" font-family="Times,serif" font-size="14.00" fill="#000000">DevicesModule</text>
</g>
<!-- SharedModule&#45;&gt;DevicesModule -->
<g id="edge16" class="edge">
<title>SharedModule&#45;&gt;DevicesModule</title>
<path fill="none" stroke="#000000" d="M376.9065,-187.2005C376.9065,-228.3516 376.9065,-325 376.9065,-325 376.9065,-325 1610.5863,-325 1610.5863,-325"/>
<polygon fill="#000000" stroke="#000000" points="1610.5864,-328.5001 1620.5863,-325 1610.5863,-321.5001 1610.5864,-328.5001"/>
</g>
<!-- ForecastModule -->
<g id="node16" class="node">
<title>ForecastModule</title>
<polygon fill="#8dd3c7" stroke="#000000" points="1283.472,-263 1280.472,-267 1259.472,-267 1256.472,-263 1176.528,-263 1176.528,-227 1283.472,-227 1283.472,-263"/>
<text text-anchor="middle" x="1230" y="-240.8" font-family="Times,serif" font-size="14.00" fill="#000000">ForecastModule</text>
</g>
<!-- SharedModule&#45;&gt;ForecastModule -->
<g id="edge20" class="edge">
<title>SharedModule&#45;&gt;ForecastModule</title>
<path fill="none" stroke="#000000" d="M335.688,-187.0511C335.688,-201.373 335.688,-219 335.688,-219 335.688,-219 1185.8207,-219 1185.8207,-219 1185.8207,-219 1185.8207,-219.7942 1185.8207,-219.7942"/>
<polygon fill="#000000" stroke="#000000" points="1182.3209,-216.9421 1185.8207,-226.9421 1189.3209,-216.9422 1182.3209,-216.9421"/>
</g>
<!-- StationModule -->
<g id="node17" class="node">
<title>StationModule</title>
<polygon fill="#8dd3c7" stroke="#000000" points="1400.719,-263 1397.719,-267 1376.719,-267 1373.719,-263 1301.281,-263 1301.281,-227 1400.719,-227 1400.719,-263"/>
<text text-anchor="middle" x="1351" y="-240.8" font-family="Times,serif" font-size="14.00" fill="#000000">StationModule</text>
</g>
<!-- SharedModule&#45;&gt;StationModule -->
<g id="edge42" class="edge">
<title>SharedModule&#45;&gt;StationModule</title>
<path fill="none" stroke="#000000" d="M345.9926,-187.037C345.9926,-200.2913 345.9926,-216 345.9926,-216 345.9926,-216 1317.9271,-216 1317.9271,-216 1317.9271,-216 1317.9271,-217.0799 1317.9271,-217.0799"/>
<polygon fill="#000000" stroke="#000000" points="1314.4272,-216.7985 1317.9271,-226.7985 1321.4272,-216.7986 1314.4272,-216.7985"/>
</g>
<!-- FooterComponent  -->
<g id="node33" class="node">
<title>FooterComponent </title>
<polygon fill="#fb8072" stroke="#000000" points="691.8814,-263 570.1186,-263 570.1186,-227 691.8814,-227 691.8814,-263"/>
<text text-anchor="middle" x="631" y="-240.8" font-family="Times,serif" font-size="14.00" fill="#000000">FooterComponent </text>
</g>
<!-- SharedModule&#45;&gt;FooterComponent  -->
<g id="edge38" class="edge">
<title>SharedModule&#45;&gt;FooterComponent </title>
<path fill="none" stroke="#000000" stroke-dasharray="5,2" d="M325.3834,-187.027C325.3834,-203.3976 325.3834,-225 325.3834,-225 325.3834,-225 604.2834,-225 604.2834,-225 604.2834,-225 604.2834,-225.1846 604.2834,-225.1846"/>
<polygon fill="#000000" stroke="#000000" points="600.784,-216.8455 604.2834,-226.8457 607.784,-216.8459 600.784,-216.8455"/>
</g>
<!-- HeaderComponent  -->
<g id="node34" class="node">
<title>HeaderComponent </title>
<polygon fill="#fb8072" stroke="#000000" points="552.7436,-263 427.2564,-263 427.2564,-227 552.7436,-227 552.7436,-263"/>
<text text-anchor="middle" x="490" y="-240.8" font-family="Times,serif" font-size="14.00" fill="#000000">HeaderComponent </text>
</g>
<!-- SharedModule&#45;&gt;HeaderComponent  -->
<g id="edge39" class="edge">
<title>SharedModule&#45;&gt;HeaderComponent </title>
<path fill="none" stroke="#000000" stroke-dasharray="5,2" d="M387.3422,-169C423.6006,-169 466.5736,-169 466.5736,-169 466.5736,-169 466.5736,-216.9891 466.5736,-216.9891"/>
<polygon fill="#000000" stroke="#000000" points="463.0737,-216.989 466.5736,-226.9891 470.0737,-216.9891 463.0737,-216.989"/>
</g>
<!-- ProtectedModule&#45;&gt;CoreModule -->
<g id="edge6" class="edge">
<title>ProtectedModule&#45;&gt;CoreModule</title>
<path fill="none" stroke="#000000" d="M2371.2611,-226.7933C2371.2611,-189.9441 2371.2611,-110 2371.2611,-110 2371.2611,-110 397.2801,-110 397.2801,-110"/>
<polygon fill="#000000" stroke="#000000" points="397.2801,-106.5001 387.2801,-110 397.2801,-113.5001 397.2801,-106.5001"/>
</g>
<!-- PublicModule&#45;&gt;CoreModule -->
<g id="edge7" class="edge">
<title>PublicModule&#45;&gt;CoreModule</title>
<path fill="none" stroke="#000000" d="M2494.7363,-233C2509.3778,-233 2521.7074,-233 2521.7074,-233 2521.7074,-233 2521.7074,-98 2521.7074,-98 2521.7074,-98 397.5005,-98 397.5005,-98"/>
<polygon fill="#000000" stroke="#000000" points="397.5006,-94.5001 387.5005,-98 397.5005,-101.5001 397.5006,-94.5001"/>
</g>
<!-- HomeComponent  -->
<g id="node27" class="node">
<title>HomeComponent </title>
<polygon fill="#fb8072" stroke="#000000" points="2171.5442,-187 2052.4558,-187 2052.4558,-151 2171.5442,-151 2171.5442,-187"/>
<text text-anchor="middle" x="2112" y="-164.8" font-family="Times,serif" font-size="14.00" fill="#000000">HomeComponent </text>
</g>
<!-- PublicModule&#45;&gt;HomeComponent  -->
<g id="edge31" class="edge">
<title>PublicModule&#45;&gt;HomeComponent </title>
<path fill="none" stroke="#000000" stroke-dasharray="5,2" d="M2447,-226.8903C2447,-217.103 2447,-207 2447,-207 2447,-207 2128.1811,-207 2128.1811,-207 2128.1811,-207 2128.1811,-197.1097 2128.1811,-197.1097"/>
<polygon fill="#000000" stroke="#000000" points="2131.6812,-197.1096 2128.1811,-187.1097 2124.6812,-197.1097 2131.6812,-197.1096"/>
</g>
<!-- LoginComponent  -->
<g id="node28" class="node">
<title>LoginComponent </title>
<polygon fill="#fb8072" stroke="#000000" points="2034.2759,-187 1915.7241,-187 1915.7241,-151 2034.2759,-151 2034.2759,-187"/>
<text text-anchor="middle" x="1975" y="-164.8" font-family="Times,serif" font-size="14.00" fill="#000000">LoginComponent </text>
</g>
<!-- PublicModule&#45;&gt;LoginComponent  -->
<g id="edge32" class="edge">
<title>PublicModule&#45;&gt;LoginComponent </title>
<path fill="none" stroke="#000000" stroke-dasharray="5,2" d="M2431.112,-226.68C2431.112,-218.2117 2431.112,-210 2431.112,-210 2431.112,-210 1986.5721,-210 1986.5721,-210 1986.5721,-210 1986.5721,-197.1025 1986.5721,-197.1025"/>
<polygon fill="#000000" stroke="#000000" points="1990.0721,-197.1025 1986.5721,-187.1025 1983.0721,-197.1026 1990.0721,-197.1025"/>
</g>
<!-- LogoutComponent  -->
<g id="node29" class="node">
<title>LogoutComponent </title>
<polygon fill="#fb8072" stroke="#000000" points="2509.7759,-187 2384.2241,-187 2384.2241,-151 2509.7759,-151 2509.7759,-187"/>
<text text-anchor="middle" x="2447" y="-164.8" font-family="Times,serif" font-size="14.00" fill="#000000">LogoutComponent </text>
</g>
<!-- PublicModule&#45;&gt;LogoutComponent  -->
<g id="edge33" class="edge">
<title>PublicModule&#45;&gt;LogoutComponent </title>
<path fill="none" stroke="#000000" stroke-dasharray="5,2" d="M2478.7761,-226.9891C2478.7761,-226.9891 2478.7761,-197.145 2478.7761,-197.145"/>
<polygon fill="#000000" stroke="#000000" points="2482.2762,-197.145 2478.7761,-187.145 2475.2762,-197.1451 2482.2762,-197.145"/>
</g>
<!-- UnauthenticatedComponent  -->
<g id="node30" class="node">
<title>UnauthenticatedComponent </title>
<polygon fill="#fb8072" stroke="#000000" points="2366.0749,-187 2189.9251,-187 2189.9251,-151 2366.0749,-151 2366.0749,-187"/>
<text text-anchor="middle" x="2278" y="-164.8" font-family="Times,serif" font-size="14.00" fill="#000000">UnauthenticatedComponent </text>
</g>
<!-- PublicModule&#45;&gt;UnauthenticatedComponent  -->
<g id="edge34" class="edge">
<title>PublicModule&#45;&gt;UnauthenticatedComponent </title>
<path fill="none" stroke="#000000" stroke-dasharray="5,2" d="M2462.888,-226.8726C2462.888,-216.2891 2462.888,-205 2462.888,-205 2462.888,-205 2333.7885,-205 2333.7885,-205 2333.7885,-205 2333.7885,-197.4218 2333.7885,-197.4218"/>
<polygon fill="#000000" stroke="#000000" points="2337.2886,-197.4218 2333.7885,-187.4218 2330.2886,-197.4219 2337.2886,-197.4218"/>
</g>
<!-- DetailDeviceComponent -->
<g id="node9" class="node">
<title>DetailDeviceComponent</title>
<polygon fill="#ffffb3" stroke="#000000" points="1920.6811,-263 1765.3189,-263 1765.3189,-227 1920.6811,-227 1920.6811,-263"/>
<text text-anchor="middle" x="1843" y="-240.8" font-family="Times,serif" font-size="14.00" fill="#000000">DetailDeviceComponent</text>
</g>
<!-- DetailDeviceComponent&#45;&gt;DevicesModule -->
<g id="edge8" class="edge">
<title>DetailDeviceComponent&#45;&gt;DevicesModule</title>
<path fill="none" stroke="#000000" d="M1843,-263.027C1843,-279.3976 1843,-301 1843,-301 1843,-301 1735.3928,-301 1735.3928,-301"/>
<polygon fill="#000000" stroke="#000000" points="1735.3928,-297.5001 1725.3928,-301 1735.3927,-304.5001 1735.3928,-297.5001"/>
</g>
<!-- ListDevicesComponent -->
<g id="node10" class="node">
<title>ListDevicesComponent</title>
<polygon fill="#ffffb3" stroke="#000000" points="1747.1965,-263 1598.8035,-263 1598.8035,-227 1747.1965,-227 1747.1965,-263"/>
<text text-anchor="middle" x="1673" y="-240.8" font-family="Times,serif" font-size="14.00" fill="#000000">ListDevicesComponent</text>
</g>
<!-- ListDevicesComponent&#45;&gt;DevicesModule -->
<g id="edge9" class="edge">
<title>ListDevicesComponent&#45;&gt;DevicesModule</title>
<path fill="none" stroke="#000000" d="M1673,-263.2228C1673,-263.2228 1673,-284.7269 1673,-284.7269"/>
<polygon fill="#000000" stroke="#000000" points="1669.5001,-284.7269 1673,-294.7269 1676.5001,-284.727 1669.5001,-284.7269"/>
</g>
<!-- MeteoStationComponent -->
<g id="node11" class="node">
<title>MeteoStationComponent</title>
<polygon fill="#ffffb3" stroke="#000000" points="1581.266,-263 1424.734,-263 1424.734,-227 1581.266,-227 1581.266,-263"/>
<text text-anchor="middle" x="1503" y="-240.8" font-family="Times,serif" font-size="14.00" fill="#000000">MeteoStationComponent</text>
</g>
<!-- MeteoStationComponent&#45;&gt;DevicesModule -->
<g id="edge10" class="edge">
<title>MeteoStationComponent&#45;&gt;DevicesModule</title>
<path fill="none" stroke="#000000" d="M1503,-263.027C1503,-279.3976 1503,-301 1503,-301 1503,-301 1610.6072,-301 1610.6072,-301"/>
<polygon fill="#000000" stroke="#000000" points="1610.6073,-304.5001 1620.6072,-301 1610.6072,-297.5001 1610.6073,-304.5001"/>
</g>
<!-- MeteoStatsComponent -->
<g id="node12" class="node">
<title>MeteoStatsComponent</title>
<polygon fill="#ffffb3" stroke="#000000" points="2229.3202,-263 2084.6798,-263 2084.6798,-227 2229.3202,-227 2229.3202,-263"/>
<text text-anchor="middle" x="2157" y="-240.8" font-family="Times,serif" font-size="14.00" fill="#000000">MeteoStatsComponent</text>
</g>
<!-- MeteoStatsComponent&#45;&gt;DevicesModule -->
<g id="edge11" class="edge">
<title>MeteoStatsComponent&#45;&gt;DevicesModule</title>
<path fill="none" stroke="#000000" d="M2132.9467,-263.2228C2132.9467,-283.3652 2132.9467,-313 2132.9467,-313 2132.9467,-313 1735.3139,-313 1735.3139,-313"/>
<polygon fill="#000000" stroke="#000000" points="1735.314,-309.5001 1725.3139,-313 1735.3139,-316.5001 1735.314,-309.5001"/>
</g>
<!-- MeteoStatsComponent&#45;&gt;DevicesModule -->
<g id="edge12" class="edge">
<title>MeteoStatsComponent&#45;&gt;DevicesModule</title>
<path fill="none" stroke="#000000" d="M2181.0533,-263.2921C2181.0533,-285.2057 2181.0533,-319 2181.0533,-319 2181.0533,-319 1735.4571,-319 1735.4571,-319"/>
<polygon fill="#000000" stroke="#000000" points="1735.4571,-315.5001 1725.4571,-319 1735.457,-322.5001 1735.4571,-315.5001"/>
</g>
<!-- PlayLedComponent -->
<g id="node13" class="node">
<title>PlayLedComponent</title>
<polygon fill="#ffffb3" stroke="#000000" points="2066.9874,-263 1939.0126,-263 1939.0126,-227 2066.9874,-227 2066.9874,-263"/>
<text text-anchor="middle" x="2003" y="-240.8" font-family="Times,serif" font-size="14.00" fill="#000000">PlayLedComponent</text>
</g>
<!-- PlayLedComponent&#45;&gt;DevicesModule -->
<g id="edge13" class="edge">
<title>PlayLedComponent&#45;&gt;DevicesModule</title>
<path fill="none" stroke="#000000" d="M2003,-263.2667C2003,-281.5552 2003,-307 2003,-307 2003,-307 1735.2895,-307 1735.2895,-307"/>
<polygon fill="#000000" stroke="#000000" points="1735.2895,-303.5001 1725.2895,-307 1735.2894,-310.5001 1735.2895,-303.5001"/>
</g>
<!-- DevicesModule&#45;&gt;ProtectedModule -->
<g id="edge22" class="edge">
<title>DevicesModule&#45;&gt;ProtectedModule</title>
<path fill="none" stroke="#000000" d="M1725.2538,-325C1879.9709,-325 2325,-325 2325,-325 2325,-325 2325,-273.1532 2325,-273.1532"/>
<polygon fill="#000000" stroke="#000000" points="2328.5001,-273.1532 2325,-263.1532 2321.5001,-273.1533 2328.5001,-273.1532"/>
</g>
<!-- DeviceRoutingModule -->
<g id="node15" class="node">
<title>DeviceRoutingModule</title>
<polygon fill="#8dd3c7" stroke="#000000" points="1158.3089,-263 1155.3089,-267 1134.3089,-267 1131.3089,-263 1013.6911,-263 1013.6911,-227 1158.3089,-227 1158.3089,-263"/>
<text text-anchor="middle" x="1086" y="-240.8" font-family="Times,serif" font-size="14.00" fill="#000000">DeviceRoutingModule</text>
</g>
<!-- DeviceRoutingModule&#45;&gt;DevicesModule -->
<g id="edge14" class="edge">
<title>DeviceRoutingModule&#45;&gt;DevicesModule</title>
<path fill="none" stroke="#000000" d="M1086,-263.2921C1086,-285.2057 1086,-319 1086,-319 1086,-319 1610.6496,-319 1610.6496,-319"/>
<polygon fill="#000000" stroke="#000000" points="1610.6497,-322.5001 1620.6496,-319 1610.6496,-315.5001 1610.6497,-322.5001"/>
</g>
<!-- ForecastModule&#45;&gt;DevicesModule -->
<g id="edge15" class="edge">
<title>ForecastModule&#45;&gt;DevicesModule</title>
<path fill="none" stroke="#000000" d="M1230,-263.2228C1230,-283.3652 1230,-313 1230,-313 1230,-313 1610.4425,-313 1610.4425,-313"/>
<polygon fill="#000000" stroke="#000000" points="1610.4425,-316.5001 1620.4425,-313 1610.4424,-309.5001 1610.4425,-316.5001"/>
</g>
<!-- ForecastDetailComponent  -->
<g id="node20" class="node">
<title>ForecastDetailComponent </title>
<polygon fill="#fb8072" stroke="#000000" points="672.4628,-187 505.5372,-187 505.5372,-151 672.4628,-151 672.4628,-187"/>
<text text-anchor="middle" x="589" y="-164.8" font-family="Times,serif" font-size="14.00" fill="#000000">ForecastDetailComponent </text>
</g>
<!-- ForecastModule&#45;&gt;ForecastDetailComponent  -->
<g id="edge21" class="edge">
<title>ForecastModule&#45;&gt;ForecastDetailComponent </title>
<path fill="none" stroke="#000000" stroke-dasharray="5,2" d="M1195.1275,-226.8196C1195.1275,-213.9618 1195.1275,-199 1195.1275,-199 1195.1275,-199 638.2573,-199 638.2573,-199 638.2573,-199 638.2573,-197.1432 638.2573,-197.1432"/>
<polygon fill="#000000" stroke="#000000" points="641.7574,-197.1432 638.2573,-187.1432 634.7574,-197.1432 641.7574,-197.1432"/>
</g>
<!-- StationModule&#45;&gt;DevicesModule -->
<g id="edge17" class="edge">
<title>StationModule&#45;&gt;DevicesModule</title>
<path fill="none" stroke="#000000" d="M1351,-263.2667C1351,-281.5552 1351,-307 1351,-307 1351,-307 1610.5485,-307 1610.5485,-307"/>
<polygon fill="#000000" stroke="#000000" points="1610.5485,-310.5001 1620.5485,-307 1610.5485,-303.5001 1610.5485,-310.5001"/>
</g>
<!-- StationCommandComponent  -->
<g id="node37" class="node">
<title>StationCommandComponent </title>
<polygon fill="#fb8072" stroke="#000000" points="1433.3339,-187 1250.6661,-187 1250.6661,-151 1433.3339,-151 1433.3339,-187"/>
<text text-anchor="middle" x="1342" y="-164.8" font-family="Times,serif" font-size="14.00" fill="#000000">StationCommandComponent </text>
</g>
<!-- StationModule&#45;&gt;StationCommandComponent  -->
<g id="edge43" class="edge">
<title>StationModule&#45;&gt;StationCommandComponent </title>
<path fill="none" stroke="#000000" stroke-dasharray="5,2" d="M1351,-226.9891C1351,-226.9891 1351,-197.145 1351,-197.145"/>
<polygon fill="#000000" stroke="#000000" points="1354.5001,-197.145 1351,-187.145 1347.5001,-197.1451 1354.5001,-197.145"/>
</g>
<!-- StationDetailComponent  -->
<g id="node38" class="node">
<title>StationDetailComponent </title>
<polygon fill="#fb8072" stroke="#000000" points="1232.2093,-187 1073.7907,-187 1073.7907,-151 1232.2093,-151 1232.2093,-187"/>
<text text-anchor="middle" x="1153" y="-164.8" font-family="Times,serif" font-size="14.00" fill="#000000">StationDetailComponent </text>
</g>
<!-- StationModule&#45;&gt;StationDetailComponent  -->
<g id="edge44" class="edge">
<title>StationModule&#45;&gt;StationDetailComponent </title>
<path fill="none" stroke="#000000" stroke-dasharray="5,2" d="M1334.4635,-226.7604C1334.4635,-211.4294 1334.4635,-192 1334.4635,-192 1334.4635,-192 1223.0478,-192 1223.0478,-192 1223.0478,-192 1223.0478,-191.5122 1223.0478,-191.5122"/>
<polygon fill="#000000" stroke="#000000" points="1226.548,-197.1222 1223.0478,-187.1223 1219.548,-197.1224 1226.548,-197.1222"/>
</g>
<!-- ForecastDaysComponent -->
<g id="node18" class="node">
<title>ForecastDaysComponent</title>
<polygon fill="#ffffb3" stroke="#000000" points="1033.5211,-187 876.4789,-187 876.4789,-151 1033.5211,-151 1033.5211,-187"/>
<text text-anchor="middle" x="955" y="-164.8" font-family="Times,serif" font-size="14.00" fill="#000000">ForecastDaysComponent</text>
</g>
<!-- ForecastDaysComponent&#45;&gt;ForecastModule -->
<g id="edge18" class="edge">
<title>ForecastDaysComponent&#45;&gt;ForecastModule</title>
<path fill="none" stroke="#000000" d="M1023.803,-187.1686C1023.803,-191.0459 1023.803,-194 1023.803,-194 1023.803,-194 1213.741,-194 1213.741,-194 1213.741,-194 1213.741,-216.8757 1213.741,-216.8757"/>
<polygon fill="#000000" stroke="#000000" points="1210.2411,-216.8757 1213.741,-226.8757 1217.2411,-216.8757 1210.2411,-216.8757"/>
</g>
<!-- ForecastDetailComponent -->
<g id="node19" class="node">
<title>ForecastDetailComponent</title>
<polygon fill="#ffffb3" stroke="#000000" points="858.4622,-187 695.5378,-187 695.5378,-151 858.4622,-151 858.4622,-187"/>
<text text-anchor="middle" x="777" y="-164.8" font-family="Times,serif" font-size="14.00" fill="#000000">ForecastDetailComponent</text>
</g>
<!-- ForecastDetailComponent&#45;&gt;ForecastModule -->
<g id="edge19" class="edge">
<title>ForecastDetailComponent&#45;&gt;ForecastModule</title>
<path fill="none" stroke="#000000" d="M846.9657,-187.1592C846.9657,-192.0433 846.9657,-196 846.9657,-196 846.9657,-196 1204.4343,-196 1204.4343,-196 1204.4343,-196 1204.4343,-216.7542 1204.4343,-216.7542"/>
<polygon fill="#000000" stroke="#000000" points="1200.9343,-216.7542 1204.4343,-226.7542 1207.9343,-216.7542 1200.9343,-216.7542"/>
</g>
<!-- ProtectedRoutingModule -->
<g id="node21" class="node">
<title>ProtectedRoutingModule</title>
<polygon fill="#8dd3c7" stroke="#000000" points="3473.5365,-187 3470.5365,-191 3449.5365,-191 3446.5365,-187 3316.4635,-187 3316.4635,-151 3473.5365,-151 3473.5365,-187"/>
<text text-anchor="middle" x="3395" y="-164.8" font-family="Times,serif" font-size="14.00" fill="#000000">ProtectedRoutingModule</text>
</g>
<!-- ProtectedRoutingModule&#45;&gt;ProtectedModule -->
<g id="edge23" class="edge">
<title>ProtectedRoutingModule&#45;&gt;ProtectedModule</title>
<path fill="none" stroke="#000000" d="M3395,-187.08C3395,-188.8464 3395,-190 3395,-190 3395,-190 2376.2351,-190 2376.2351,-190 2376.2351,-190 2376.2351,-216.9909 2376.2351,-216.9909"/>
<polygon fill="#000000" stroke="#000000" points="2372.7352,-216.9909 2376.2351,-226.9909 2379.7352,-216.991 2372.7352,-216.9909"/>
</g>
<!-- HomeComponent -->
<g id="node22" class="node">
<title>HomeComponent</title>
<polygon fill="#ffffb3" stroke="#000000" points="2945.5451,-187 2830.4549,-187 2830.4549,-151 2945.5451,-151 2945.5451,-187"/>
<text text-anchor="middle" x="2888" y="-164.8" font-family="Times,serif" font-size="14.00" fill="#000000">HomeComponent</text>
</g>
<!-- HomeComponent&#45;&gt;PublicModule -->
<g id="edge25" class="edge">
<title>HomeComponent&#45;&gt;PublicModule</title>
<path fill="none" stroke="#000000" d="M2888,-187.3228C2888,-210.6602 2888,-248 2888,-248 2888,-248 2505.0342,-248 2505.0342,-248"/>
<polygon fill="#000000" stroke="#000000" points="2505.0343,-244.5001 2495.0342,-248 2505.0342,-251.5001 2505.0343,-244.5001"/>
</g>
<!-- LoginComponent -->
<g id="node23" class="node">
<title>LoginComponent</title>
<polygon fill="#ffffb3" stroke="#000000" points="2812.2758,-187 2697.7242,-187 2697.7242,-151 2812.2758,-151 2812.2758,-187"/>
<text text-anchor="middle" x="2755" y="-164.8" font-family="Times,serif" font-size="14.00" fill="#000000">LoginComponent</text>
</g>
<!-- LoginComponent&#45;&gt;PublicModule -->
<g id="edge26" class="edge">
<title>LoginComponent&#45;&gt;PublicModule</title>
<path fill="none" stroke="#000000" d="M2755,-187.2921C2755,-209.2057 2755,-243 2755,-243 2755,-243 2504.7871,-243 2504.7871,-243"/>
<polygon fill="#000000" stroke="#000000" points="2504.7871,-239.5001 2494.7871,-243 2504.787,-246.5001 2504.7871,-239.5001"/>
</g>
<!-- LogoutComponent -->
<g id="node24" class="node">
<title>LogoutComponent</title>
<polygon fill="#ffffb3" stroke="#000000" points="3275.7758,-187 3154.2242,-187 3154.2242,-151 3275.7758,-151 3275.7758,-187"/>
<text text-anchor="middle" x="3215" y="-164.8" font-family="Times,serif" font-size="14.00" fill="#000000">LogoutComponent</text>
</g>
<!-- LogoutComponent&#45;&gt;PublicModule -->
<g id="edge27" class="edge">
<title>LogoutComponent&#45;&gt;PublicModule</title>
<path fill="none" stroke="#000000" d="M3215,-187.0105C3215,-213.0165 3215,-258 3215,-258 3215,-258 2504.7517,-258 2504.7517,-258"/>
<polygon fill="#000000" stroke="#000000" points="2504.7517,-254.5001 2494.7517,-258 2504.7516,-261.5001 2504.7517,-254.5001"/>
</g>
<!-- UnauthenticatedComponent -->
<g id="node25" class="node">
<title>UnauthenticatedComponent</title>
<polygon fill="#ffffb3" stroke="#000000" points="3136.5744,-187 2963.4256,-187 2963.4256,-151 3136.5744,-151 3136.5744,-187"/>
<text text-anchor="middle" x="3050" y="-164.8" font-family="Times,serif" font-size="14.00" fill="#000000">UnauthenticatedComponent</text>
</g>
<!-- UnauthenticatedComponent&#45;&gt;PublicModule -->
<g id="edge28" class="edge">
<title>UnauthenticatedComponent&#45;&gt;PublicModule</title>
<path fill="none" stroke="#000000" d="M3050,-187.2267C3050,-211.9318 3050,-253 3050,-253 3050,-253 2504.8204,-253 2504.8204,-253"/>
<polygon fill="#000000" stroke="#000000" points="2504.8205,-249.5001 2494.8204,-253 2504.8204,-256.5001 2504.8205,-249.5001"/>
</g>
<!-- PublicRoutingModule -->
<g id="node26" class="node">
<title>PublicRoutingModule</title>
<polygon fill="#8dd3c7" stroke="#000000" points="2674.4467,-187 2671.4467,-191 2650.4467,-191 2647.4467,-187 2533.5533,-187 2533.5533,-151 2674.4467,-151 2674.4467,-187"/>
<text text-anchor="middle" x="2604" y="-164.8" font-family="Times,serif" font-size="14.00" fill="#000000">PublicRoutingModule</text>
</g>
<!-- PublicRoutingModule&#45;&gt;PublicModule -->
<g id="edge29" class="edge">
<title>PublicRoutingModule&#45;&gt;PublicModule</title>
<path fill="none" stroke="#000000" d="M2604,-187.1289C2604,-207.5724 2604,-238 2604,-238 2604,-238 2504.9583,-238 2504.9583,-238"/>
<polygon fill="#000000" stroke="#000000" points="2504.9583,-234.5001 2494.9583,-238 2504.9582,-241.5001 2504.9583,-234.5001"/>
</g>
<!-- FooterComponent -->
<g id="node31" class="node">
<title>FooterComponent</title>
<polygon fill="#ffffb3" stroke="#000000" points="973.8809,-263 856.1191,-263 856.1191,-227 973.8809,-227 973.8809,-263"/>
<text text-anchor="middle" x="915" y="-240.8" font-family="Times,serif" font-size="14.00" fill="#000000">FooterComponent</text>
</g>
<!-- FooterComponent&#45;&gt;SharedModule -->
<g id="edge35" class="edge">
<title>FooterComponent&#45;&gt;SharedModule</title>
<path fill="none" stroke="#000000" d="M867.3605,-226.8097C867.3605,-223.4624 867.3605,-221 867.3605,-221 867.3605,-221 315.0787,-221 315.0787,-221 315.0787,-221 315.0787,-197.1871 315.0787,-197.1871"/>
<polygon fill="#000000" stroke="#000000" points="318.5788,-197.187 315.0787,-187.1871 311.5788,-197.1871 318.5788,-197.187"/>
</g>
<!-- HeaderComponent -->
<g id="node32" class="node">
<title>HeaderComponent</title>
<polygon fill="#ffffb3" stroke="#000000" points="837.7437,-263 716.2563,-263 716.2563,-227 837.7437,-227 837.7437,-263"/>
<text text-anchor="middle" x="777" y="-240.8" font-family="Times,serif" font-size="14.00" fill="#000000">HeaderComponent</text>
</g>
<!-- HeaderComponent&#45;&gt;SharedModule -->
<g id="edge36" class="edge">
<title>HeaderComponent&#45;&gt;SharedModule</title>
<path fill="none" stroke="#000000" d="M777,-226.8321C777,-224.5522 777,-223 777,-223 777,-223 304.7741,-223 304.7741,-223 304.7741,-223 304.7741,-197.2819 304.7741,-197.2819"/>
<polygon fill="#000000" stroke="#000000" points="308.2742,-197.2819 304.7741,-187.2819 301.2742,-197.282 308.2742,-197.2819"/>
</g>
<!-- StationCommandComponent -->
<g id="node35" class="node">
<title>StationCommandComponent</title>
<polygon fill="#ffffb3" stroke="#000000" points="1809.8341,-187 1630.1659,-187 1630.1659,-151 1809.8341,-151 1809.8341,-187"/>
<text text-anchor="middle" x="1720" y="-164.8" font-family="Times,serif" font-size="14.00" fill="#000000">StationCommandComponent</text>
</g>
<!-- StationCommandComponent&#45;&gt;StationModule -->
<g id="edge40" class="edge">
<title>StationCommandComponent&#45;&gt;StationModule</title>
<path fill="none" stroke="#000000" d="M1688.7157,-187.1944C1688.7157,-195.2782 1688.7157,-203 1688.7157,-203 1688.7157,-203 1384.0729,-203 1384.0729,-203 1384.0729,-203 1384.0729,-216.9445 1384.0729,-216.9445"/>
<polygon fill="#000000" stroke="#000000" points="1380.573,-216.9444 1384.0729,-226.9445 1387.573,-216.9445 1380.573,-216.9444"/>
</g>
<!-- StationDetailComponent -->
<g id="node36" class="node">
<title>StationDetailComponent</title>
<polygon fill="#ffffb3" stroke="#000000" points="1612.7091,-187 1457.2909,-187 1457.2909,-151 1612.7091,-151 1612.7091,-187"/>
<text text-anchor="middle" x="1535" y="-164.8" font-family="Times,serif" font-size="14.00" fill="#000000">StationDetailComponent</text>
</g>
<!-- StationDetailComponent&#45;&gt;StationModule -->
<g id="edge41" class="edge">
<title>StationDetailComponent&#45;&gt;StationModule</title>
<path fill="none" stroke="#000000" d="M1519.3892,-187.2434C1519.3892,-194.4297 1519.3892,-201 1519.3892,-201 1519.3892,-201 1367.5365,-201 1367.5365,-201 1367.5365,-201 1367.5365,-216.8495 1367.5365,-216.8495"/>
<polygon fill="#000000" stroke="#000000" points="1364.0366,-216.8494 1367.5365,-226.8495 1371.0366,-216.8495 1364.0366,-216.8494"/>
</g>
</g>
</svg>
